<svg width="640" height="137" viewBox="0 0 640 137" fill="none" xmlns="http://www.w3.org/2000/svg">
<path d="M46.9431 13.5206C45.7031 13.4606 44.1531 13.3706 42.8631 13.4806C42.3331 13.5606 41.5731 13.5706 41.3031 14.1006C41.2431 14.1606 41.3131 35.8005 41.3031 36.5105C41.2231 36.6305 40.3731 36.7306 40.0231 36.7406C33.1631 37.2906 9.53313 36.9106 8.84313 36.6206L8.87313 14.2806C8.67313 12.7206 2.46312 13.6006 1.45312 13.8506V68.2106C2.82313 71.9306 4.77312 73.5706 8.86312 74.5406L8.85313 44.3006C8.85313 44.1606 9.12313 43.8106 9.55313 43.8106C17.0031 43.8106 32.6331 43.8106 39.9531 43.8306C41.9331 43.6406 41.2331 44.9506 41.3231 46.1106C41.3431 46.2406 41.2531 73.9306 41.3131 74.0406C42.6931 75.1606 45.1331 74.4906 46.9931 74.5506C47.7931 74.5206 48.5831 74.4706 48.7631 74.5406V13.5206C48.5531 13.5906 47.8531 13.5606 46.9531 13.5206H46.9431Z" fill="#E4E4E4"/>
<path d="M638.855 72.2405C630.315 53.5405 620.855 29.8605 612.015 11.5205C608.235 18.9905 605.095 26.9505 601.635 34.6605C600.285 37.7505 598.955 40.8905 597.585 43.9805C593.265 53.9105 589.045 64.0005 584.625 73.7605C584.545 73.9405 584.675 74.5505 584.905 74.5005C595.645 73.4105 596.235 62.5705 600.445 55.8605C601.465 56.8205 620.665 53.8705 624.565 57.0605L631.465 73.4505C632.355 75.8305 637.685 74.0705 639.895 74.4605V74.2605C639.525 73.6805 639.255 73.1605 638.855 72.2405ZM621.395 49.5505H603.015C602.705 49.5905 602.395 49.4405 602.545 49.1005C602.555 48.9905 602.615 48.8805 602.655 48.7605C605.875 42.8605 608.105 33.2505 612.285 27.7705C615.005 34.5205 619.375 42.8505 621.395 49.5505Z" fill="#E4E4E4"/>
<path d="M564.169 26.8109C563.369 28.7609 550.119 59.9009 549.829 60.6009C549.089 60.6109 548.549 59.0209 547.399 56.8409C542.129 46.2309 534.409 24.7209 528.119 11.6109C523.649 30.3509 520.599 49.7609 516.759 68.7109C516.459 70.2009 515.889 73.3109 515.609 74.3309C517.899 74.0609 522.439 76.2709 522.979 72.9709C525.889 62.2609 527.079 41.0409 530.959 34.4209C531.569 34.8809 548.459 76.6409 549.619 76.5009L567.989 33.9209H568.509L575.899 73.3709C576.029 74.0609 576.299 74.5909 576.959 74.5909C578.729 74.4309 581.459 74.9509 583.199 74.2809L570.829 11.1309L564.169 26.8109Z" fill="#E4E4E4"/>
<path d="M197.026 42.1202C209.456 38.1102 207.626 18.3302 195.836 14.6902C190.516 12.7002 178.466 13.8102 171.596 13.5002C170.626 14.3902 171.586 73.3702 171.256 74.5702C178.526 74.4702 189.056 74.9302 195.376 73.8802C211.366 71.3302 212.806 44.9502 197.026 42.1202ZM178.246 22.7802C178.396 21.1502 178.356 19.9002 178.866 19.7402C185.046 20.2602 194.616 18.1302 197.406 25.5002C201.736 39.5302 189.266 41.0902 178.486 40.1702C178.126 36.1802 178.016 27.0702 178.246 22.7802ZM200.486 58.0602C200.666 69.1702 186.626 68.7402 178.786 68.1602C177.386 62.1902 178.496 55.1102 178.306 49.0302C178.306 49.2902 178.306 49.5602 178.296 49.8502C178.576 48.3102 177.726 46.5302 178.816 45.9302C183.796 45.8902 189.686 45.4402 194.556 47.3402C199.046 48.8902 200.916 53.5402 200.486 58.0602Z" fill="#E4E4E4"/>
<path d="M399.421 36.63C399.131 36.78 398.671 36.9 398.251 36.9H366.861L366.881 14.39C366.871 14.1 366.851 13.69 366.651 13.56C365.961 13.46 360.391 13.47 359.931 13.51C359.661 13.51 359.591 14.36 359.591 14.71C360.091 16 358.061 72.31 361.521 71.22C362.301 72.1 363.181 72.92 364.161 73.57H364.171C364.391 73.71 364.601 73.83 364.811 73.93C364.801 73.93 364.781 73.92 364.771 73.91C365.461 74.25 366.321 74.47 366.881 73.85L366.821 44.7C366.831 44.31 366.881 44.08 367.111 43.91C369.931 43.91 396.281 43.57 399.411 44.12V74.59L406.861 74.56V13.53L399.391 13.5L399.421 36.63Z" fill="#E4E4E4"/>
<path d="M510.981 69.8109C504.831 61.7609 497.361 53.5109 491.761 45.6209C491.761 45.6109 491.771 45.6009 491.781 45.6009C508.261 47.2109 514.661 28.4609 504.391 17.2709C497.821 11.1409 483.921 14.2509 474.961 13.5009L474.981 67.5609C474.981 70.0409 478.921 74.4709 482.131 74.5009V45.9009C485.211 44.2709 503.191 75.0609 506.661 74.5909C506.911 74.5509 514.511 74.6709 514.461 74.4009C514.701 74.5709 512.281 71.4109 510.981 69.8109ZM489.321 40.1109C486.931 40.2209 484.521 40.1509 482.131 40.0409V19.5709C488.201 20.0409 498.381 17.9809 501.201 25.0409C504.871 34.5309 498.701 40.3809 489.321 40.1109Z" fill="#E4E4E4"/>
<path d="M460.045 54.8704C452.895 39.0804 446.755 21.3404 440.445 11.9404C440.445 11.9404 440.435 11.9404 440.435 11.9504C440.745 11.7404 437.915 18.0004 435.765 22.8504C428.425 39.8604 419.925 56.6104 413.695 74.0304C422.845 75.4204 425.065 62.5604 429.365 55.8604C429.835 55.8604 451.595 55.8504 452.035 55.8504C457.115 60.4304 456.485 70.1004 461.655 74.5904L468.315 74.5604C468.405 74.5104 468.455 74.0104 468.365 73.8204C468.095 73.7904 464.535 65.4304 460.045 54.8704ZM431.435 48.8004C431.435 48.8004 440.505 27.9204 440.515 27.8704C440.765 27.4404 440.855 27.3004 441.165 27.9304L450.215 48.7504C450.355 49.0904 450.315 49.5604 449.945 49.5604C444.675 48.8104 436.325 51.0604 431.435 48.8004Z" fill="#E4E4E4"/>
<path d="M98.6605 13.9509C98.6005 13.4909 98.2105 13.4709 97.7705 13.5109H57.6705C56.0105 13.0809 57.0705 18.9209 56.7905 19.6709C60.3405 21.7709 72.6605 19.7609 74.1205 20.4109L74.1905 67.8309C74.5005 70.1609 77.6605 72.7109 79.6505 73.9409C84.1005 78.4609 80.4505 20.2309 81.5805 20.4209L98.1805 20.4409C98.3805 20.4409 98.8205 19.9609 98.7005 19.9709C98.6805 19.8309 98.7305 13.9209 98.6605 13.9509Z" fill="#E4E4E4"/>
<path d="M114.184 13.5705C110.074 13.2805 106.784 18.3505 106.784 21.1005L106.734 73.9105C106.734 74.1105 107.104 74.5705 107.574 74.5705H137.224L137.294 67.6305L114.174 67.6605V13.5705H114.184Z" fill="#E4E4E4"/>
<path d="M339.735 14.3606C332.405 12.8006 323.295 13.7606 316.055 13.5006L316.105 67.8306C316.105 70.8006 323.245 76.1406 323.245 73.7506V48.0806C327.055 45.3306 336.555 48.6306 341.495 45.5906C354.415 40.5206 353.535 17.7106 339.735 14.3606ZM342.535 33.0806C341.395 41.8606 329.905 40.3006 323.245 40.6006V20.2006C332.475 19.4606 345.075 20.6406 342.535 33.0806Z" fill="#E4E4E4"/>
<path d="M254.223 43.9104C254.873 46.3204 271.453 51.3504 266.873 48.3704C252.453 43.5904 256.043 24.6804 267.503 18.6104C274.293 14.3904 282.633 13.2304 290.313 12.0304C281.323 8.2504 269.643 5.4904 260.433 10.2004C248.183 16.5404 243.843 34.2804 254.223 43.9104Z" fill="#CF2B2D"/>
<path d="M303.776 29.6901C294.686 16.8301 271.826 18.6501 267.456 34.2101C266.756 36.5801 266.456 38.8601 266.496 41.5001C270.196 23.6501 292.086 28.9901 297.986 42.5201C301.536 49.2101 302.216 55.8001 303.456 62.9301C303.496 62.9301 303.536 62.9301 303.576 62.9101C303.576 62.9101 303.579 62.9068 303.586 62.9001C307.966 53.0001 310.346 39.0601 303.776 29.6901Z" fill="#CF2B2D"/>
<path d="M274.181 39.2305C287.751 41.7305 288.301 59.2205 278.821 66.7305C271.731 72.9905 261.051 75.2205 252.281 76.0905C293.401 97.0505 311.861 42.3805 274.181 39.2305Z" fill="#CF2B2D"/>
<path d="M264.751 65.8003C272.161 62.6303 275.901 54.7303 276.541 46.9203C272.461 60.3903 257.341 61.6603 247.621 50.4703C241.511 42.9503 240.541 34.2203 239.181 24.7803C224.811 55.7703 248.971 72.7103 264.751 65.8003Z" fill="#CF2B2D"/>
<path d="M219.45 20.5207L219.43 74.5707C221.44 74.4207 224.6 74.9107 226.67 74.4007C226.73 73.4107 226.67 14.5607 226.68 13.5107C223.49 14.7807 220.3 17.0907 219.45 20.5207Z" fill="#E4E4E4"/>
<mask id="mask0_712_15424" style="mask-type:luminance" maskUnits="userSpaceOnUse" x="136" y="92" width="370" height="32">
<path d="M505.33 92H136V124H505.33V92Z" fill="white"/>
</mask>
<g mask="url(#mask0_712_15424)">
<path d="M139.109 94.04V115.17H146.679C154.309 115.17 156.469 109.9 156.469 104.64C156.469 97.61 152.579 94.05 147.499 94.05H139.119L139.109 94.04ZM142.009 96.53H146.859C151.649 96.53 153.589 100.03 153.589 104.61C153.589 109.61 151.379 112.72 147.009 112.72H142.009V96.53Z" fill="#CF2B2D"/>
<path d="M161.148 108.55H171.858V108.16C171.858 102.69 168.478 100.62 165.398 100.62C162.318 100.62 158.578 102.63 158.578 107.98C158.578 113.33 162.018 115.61 165.488 115.61C170.218 115.61 171.528 111.84 171.858 110.85L169.428 110.52C169.128 111.81 168.208 113.81 165.718 113.81C162.338 113.81 161.138 110.91 161.138 108.73V108.55H161.148ZM161.218 106.82C161.428 104.58 162.678 102.48 165.228 102.48C167.628 102.48 169.268 104.49 169.268 106.82H161.218Z" fill="#CF2B2D"/>
<path d="M176.739 115.17V94.04H174.469V115.17H176.739Z" fill="#CF2B2D"/>
<path d="M182.513 96.8V94.04H180.203V96.8H182.513ZM182.513 115.17V101.08H180.203V115.17H182.513Z" fill="#CF2B2D"/>
<path d="M196.568 101.07H194.117L190.408 111.87L186.667 101.07H184.188L189.337 115.16H191.497L196.577 101.07H196.568Z" fill="#CF2B2D"/>
<path d="M200.101 108.55H210.811V108.16C210.811 102.69 207.431 100.62 204.351 100.62C201.271 100.62 197.531 102.63 197.531 107.98C197.531 113.33 200.971 115.61 204.441 115.61C209.171 115.61 210.481 111.84 210.811 110.85L208.381 110.52C208.081 111.81 207.161 113.81 204.671 113.81C201.291 113.81 200.091 110.91 200.091 108.73V108.55H200.101ZM200.161 106.82C200.371 104.58 201.621 102.48 204.171 102.48C206.571 102.48 208.211 104.49 208.211 106.82H200.161Z" fill="#CF2B2D"/>
<path d="M213.352 101.07V115.16H215.752V108.64C215.752 107.26 215.782 106.75 215.962 106.04C216.442 104.31 217.932 103.38 219.642 103.38C219.942 103.38 220.272 103.41 220.572 103.47V100.9C218.742 100.9 217.642 101.59 217.072 102.04C216.502 102.49 216.082 103.03 215.752 103.65V101.08H213.352V101.07Z" fill="#CF2B2D"/>
<path d="M224.599 96.8V94.04H222.289V96.8H224.599ZM224.599 115.17V101.08H222.289V115.17H224.599Z" fill="#CF2B2D"/>
<path d="M239.528 115.17V106.25C239.528 104.93 239.468 103.71 238.658 102.57C237.398 100.8 235.278 100.62 234.648 100.62C232.228 100.62 230.818 102.09 230.218 103.14V101.07H227.828V115.16H230.218V106.81C230.218 104.3 231.988 102.86 233.958 102.86C235.608 102.86 237.158 103.73 237.158 105.91V115.15H239.518L239.528 115.17Z" fill="#CF2B2D"/>
<path d="M255.833 101.07H253.353V102.99C252.013 101.43 250.513 100.63 248.753 100.63C243.693 100.63 242.203 104.91 242.203 108.2C242.203 112.92 245.133 115.62 248.723 115.62C249.863 115.62 251.743 115.32 253.363 113.11V115.83C253.363 118.5 252.433 120.08 249.443 120.08C247.163 120.08 245.553 119 245.553 116.79H242.863C243.193 120.41 246.003 122.03 249.263 122.03C252.523 122.03 255.843 120.65 255.843 115.45V101.09L255.833 101.07ZM253.433 107.93C253.433 110.98 252.173 113.47 249.103 113.47C246.033 113.47 244.643 111.13 244.643 108.14C244.643 104.61 246.583 102.79 249.003 102.79C251.573 102.79 253.433 104.7 253.433 107.94V107.93Z" fill="#CF2B2D"/>
<path d="M284.463 115.17L278.543 106.01C282.403 105.38 283.503 102.78 283.503 100.21C283.503 95.96 280.693 94.04 276.653 94.04H267.133V115.17H269.893V106.2H275.333L281.113 115.17H284.463ZM269.893 103.83V96.38H276.503C279.193 96.38 280.723 97.85 280.723 100.21C280.723 103.11 278.543 103.83 276.113 103.83H269.893Z" fill="#CF2B2D"/>
<path d="M287.953 108.55H298.663V108.16C298.663 102.69 295.283 100.62 292.203 100.62C289.123 100.62 285.383 102.63 285.383 107.98C285.383 113.33 288.823 115.61 292.293 115.61C297.023 115.61 298.333 111.84 298.663 110.85L296.233 110.52C295.933 111.81 295.013 113.81 292.523 113.81C289.143 113.81 287.943 110.91 287.943 108.73V108.55H287.953ZM288.023 106.82C288.233 104.58 289.483 102.48 292.033 102.48C294.433 102.48 296.073 104.49 296.073 106.82H288.023Z" fill="#CF2B2D"/>
<path d="M314.13 101.07H311.65V102.99C310.31 101.43 308.81 100.63 307.05 100.63C301.99 100.63 300.5 104.91 300.5 108.2C300.5 112.92 303.43 115.62 307.02 115.62C308.16 115.62 310.04 115.32 311.66 113.11V115.83C311.66 118.5 310.73 120.08 307.74 120.08C305.46 120.08 303.85 119 303.85 116.79H301.16C301.49 120.41 304.3 122.03 307.56 122.03C310.82 122.03 314.14 120.65 314.14 115.45V101.09L314.13 101.07ZM311.74 107.93C311.74 110.98 310.48 113.47 307.41 113.47C304.34 113.47 302.95 111.13 302.95 108.14C302.95 104.61 304.89 102.79 307.31 102.79C309.88 102.79 311.74 104.7 311.74 107.94V107.93Z" fill="#CF2B2D"/>
<path d="M329.122 115.17V101.08H326.792V108.29C326.792 109.46 326.792 110.65 326.102 111.67C325.082 113.16 323.292 113.28 322.752 113.28C321.222 113.28 320.482 112.53 320.182 111.94C319.852 111.25 319.852 110.59 319.852 109.1V101.08H317.492V110.15C317.492 111.35 317.552 112.57 318.212 113.68C319.292 115.45 321.472 115.53 321.982 115.53C323.832 115.53 325.722 114.57 326.772 113.01V115.17H329.132H329.122Z" fill="#CF2B2D"/>
<path d="M334.856 115.17V94.04H332.586V115.17H334.856Z" fill="#CF2B2D"/>
<path d="M346.619 106.73L344.459 106.88C342.659 107 340.179 107.39 338.749 108.46C337.399 109.48 337.219 110.86 337.219 111.51C337.219 113.93 339.189 115.55 342.009 115.55C344.829 115.55 346.169 113.96 346.829 113.24C346.859 113.66 347.219 114.56 347.789 114.98C348.299 115.33 349.169 115.33 349.279 115.33C349.669 115.33 350.089 115.3 350.809 115.06V113.05C350.539 113.11 350.389 113.17 350.089 113.17C349.039 113.17 349.009 112.36 349.009 111.52V106.55C349.009 104.04 348.889 102.57 346.889 101.44C345.719 100.75 344.229 100.6 343.359 100.6C338.369 100.6 337.949 104.55 337.949 105.24L340.429 105.39V105.18C340.429 103.41 341.509 102.43 343.479 102.43C346.589 102.43 346.629 104.91 346.629 106.23V106.71L346.619 106.73ZM346.639 108.29V109.39C346.639 113.01 343.799 113.55 342.509 113.55C340.619 113.55 339.839 112.5 339.839 111.46C339.839 110.08 341.129 109.49 341.579 109.3C342.679 108.82 345.529 108.46 346.629 108.28L346.639 108.29Z" fill="#CF2B2D"/>
<path d="M355.886 103.05H358.426V101.08H355.886V96.6201H353.436V101.08H351.156V103.05H353.436V112.87C353.436 114.48 353.826 115.41 356.156 115.41C357.086 115.41 358.226 115.2 358.436 115.17V113.2C357.776 113.44 357.206 113.53 356.946 113.53C356.196 113.53 355.896 113.14 355.896 112.12V103.05H355.886Z" fill="#CF2B2D"/>
<path d="M362.617 108.55H373.327V108.16C373.327 102.69 369.947 100.62 366.867 100.62C363.787 100.62 360.047 102.63 360.047 107.98C360.047 113.33 363.487 115.61 366.957 115.61C371.687 115.61 372.997 111.84 373.327 110.85L370.897 110.52C370.597 111.81 369.677 113.81 367.187 113.81C363.807 113.81 362.607 110.91 362.607 108.73V108.55H362.617ZM362.677 106.82C362.887 104.58 364.137 102.48 366.687 102.48C369.087 102.48 370.727 104.49 370.727 106.82H362.677Z" fill="#CF2B2D"/>
<path d="M388.786 115.17V94.04H386.386V102.93C385.876 102.12 384.116 100.63 381.546 100.63C378.676 100.63 375.086 102.6 375.086 108.08C375.086 112.44 377.446 115.62 381.576 115.62C384.356 115.62 385.676 114.21 386.386 113.38V115.18H388.786V115.17ZM377.656 108.17C377.656 105.5 378.886 102.81 382.116 102.81C384.776 102.81 386.456 105.03 386.456 107.93C386.456 112.24 384.156 113.49 382.056 113.49C378.646 113.49 377.656 110.65 377.656 108.17Z" fill="#CF2B2D"/>
<path d="M413.652 96.56V94.04H400.102V115.17H402.912V105.24H412.902V102.79H402.912V96.57H413.652V96.56Z" fill="#CF2B2D"/>
<path d="M423.791 106.73L421.631 106.88C419.831 107 417.351 107.39 415.921 108.46C414.571 109.48 414.391 110.86 414.391 111.51C414.391 113.93 416.361 115.55 419.181 115.55C422.001 115.55 423.341 113.96 424.001 113.24C424.031 113.66 424.391 114.56 424.961 114.98C425.471 115.33 426.341 115.33 426.451 115.33C426.841 115.33 427.261 115.3 427.981 115.06V113.05C427.711 113.11 427.561 113.17 427.261 113.17C426.211 113.17 426.181 112.36 426.181 111.52V106.55C426.181 104.04 426.061 102.57 424.061 101.44C422.891 100.75 421.401 100.6 420.531 100.6C415.541 100.6 415.121 104.55 415.121 105.24L417.601 105.39V105.18C417.601 103.41 418.681 102.43 420.651 102.43C423.761 102.43 423.801 104.91 423.801 106.23V106.71L423.791 106.73ZM423.821 108.29V109.39C423.821 113.01 420.981 113.55 419.691 113.55C417.801 113.55 417.021 112.5 417.021 111.46C417.021 110.08 418.311 109.49 418.761 109.3C419.861 108.82 422.711 108.46 423.811 108.28L423.821 108.29Z" fill="#CF2B2D"/>
<path d="M440.066 109.84C439.796 112.06 438.746 113.76 436.056 113.76C433.156 113.76 431.656 111.43 431.656 108.08C431.656 103.8 433.746 102.36 435.896 102.36C438.046 102.36 439.366 103.53 439.726 105.59L442.356 105.35C441.996 103.31 440.116 100.62 435.866 100.62C431.316 100.62 429.016 104 429.016 108.22C429.016 112.44 431.556 115.61 435.986 115.61C439.216 115.61 441.846 114.17 442.626 110.07L440.056 109.83L440.066 109.84Z" fill="#CF2B2D"/>
<path d="M447.271 96.8V94.04H444.961V96.8H447.271ZM447.271 115.17V101.08H444.961V115.17H447.271Z" fill="#CF2B2D"/>
<path d="M452.856 115.17V94.04H450.586V115.17H452.856Z" fill="#CF2B2D"/>
<path d="M458.638 96.8V94.04H456.328V96.8H458.638ZM458.638 115.17V101.08H456.328V115.17H458.638Z" fill="#CF2B2D"/>
<path d="M465.16 103.05H467.7V101.08H465.16V96.6201H462.71V101.08H460.43V103.05H462.71V112.87C462.71 114.48 463.1 115.41 465.43 115.41C466.36 115.41 467.5 115.2 467.71 115.17V113.2C467.05 113.44 466.48 113.53 466.22 113.53C465.47 113.53 465.17 113.14 465.17 112.12V103.05H465.16Z" fill="#CF2B2D"/>
<path d="M472.521 96.8V94.04H470.211V96.8H472.521ZM472.521 115.17V101.08H470.211V115.17H472.521Z" fill="#CF2B2D"/>
<path d="M477.57 108.55H488.28V108.16C488.28 102.69 484.9 100.62 481.82 100.62C478.74 100.62 475 102.63 475 107.98C475 113.33 478.44 115.61 481.91 115.61C486.64 115.61 487.95 111.84 488.28 110.85L485.85 110.52C485.55 111.81 484.63 113.81 482.14 113.81C478.76 113.81 477.56 110.91 477.56 108.73V108.55H477.57ZM477.64 106.82C477.85 104.58 479.1 102.48 481.65 102.48C484.05 102.48 485.69 104.49 485.69 106.82H477.64Z" fill="#CF2B2D"/>
<path d="M489.812 110.62C490.232 113.37 491.822 115.61 496.362 115.61C499.712 115.61 502.263 113.84 502.263 111.15C502.263 108.46 500.193 107.68 497.562 107.05L496.182 106.72C494.022 106.21 492.772 105.73 492.772 104.51C492.772 103.61 493.612 102.45 495.552 102.45C497.492 102.45 498.752 103.47 499.112 104.24C499.262 104.57 499.293 104.87 499.323 105.56L501.893 105.26C501.833 104.84 501.713 103.97 501.143 103.1C500.453 102.08 498.842 100.62 495.872 100.62C493.332 100.62 490.402 101.73 490.402 104.81C490.402 106.79 491.572 108.16 495.432 108.91L496.812 109.18C498.102 109.42 499.742 109.72 499.742 111.42C499.742 113.43 497.653 113.78 496.483 113.78C495.313 113.78 494.152 113.63 493.312 112.7C492.623 111.95 492.533 111.14 492.533 110.22L489.812 110.61V110.62Z" fill="#CF2B2D"/>
</g>
</svg>
