<svg width="639" height="74" viewBox="0 0 639 74" fill="none" xmlns="http://www.w3.org/2000/svg">
<path d="M45.49 5.80766C44.25 5.74766 42.7 5.65766 41.41 5.76766C40.88 5.84766 40.12 5.85766 39.85 6.38766C39.79 6.44766 39.86 28.0877 39.85 28.7977C39.77 28.9177 38.92 29.0177 38.57 29.0277C31.71 29.5777 8.08 29.1977 7.39 28.9077L7.42 6.56766C7.22 5.00766 1.01 5.88766 0 6.13766V60.4977C1.37 64.2177 3.32 65.8577 7.41 66.8277L7.4 36.5877C7.4 36.4477 7.67 36.0977 8.1 36.0977C15.55 36.0977 31.18 36.0977 38.5 36.1177C40.48 35.9277 39.78 37.2377 39.87 38.3977C39.89 38.5277 39.8 66.2177 39.86 66.3277C41.24 67.4477 43.68 66.7777 45.54 66.8377C46.34 66.8077 47.13 66.7577 47.31 66.8277V5.80766C47.1 5.87766 46.4 5.84766 45.5 5.80766H45.49Z" fill="#E4E4E4"/>
<path d="M637.402 64.5276C628.862 45.8276 619.402 22.1476 610.562 3.80762C606.782 11.2776 603.642 19.2376 600.182 26.9476C598.832 30.0376 597.502 33.1776 596.132 36.2676C591.812 46.1976 587.592 56.2876 583.172 66.0476C583.092 66.2276 583.222 66.8376 583.452 66.7876C594.192 65.6976 594.782 54.8576 598.992 48.1476C600.012 49.1076 619.212 46.1576 623.112 49.3476L630.012 65.7376C630.902 68.1176 636.232 66.3576 638.442 66.7476V66.5476C638.072 65.9676 637.802 65.4476 637.402 64.5276ZM619.942 41.8376H601.562C601.252 41.8776 600.942 41.7276 601.092 41.3876C601.102 41.2776 601.162 41.1676 601.202 41.0476C604.422 35.1476 606.652 25.5376 610.832 20.0576C613.552 26.8076 617.922 35.1376 619.942 41.8376Z" fill="#E4E4E4"/>
<path d="M562.716 19.098C561.916 21.048 548.666 52.188 548.376 52.888C547.636 52.898 547.096 51.308 545.946 49.128C540.676 38.518 532.956 17.008 526.666 3.89797C522.196 22.638 519.146 42.048 515.306 60.998C515.006 62.488 514.436 65.598 514.156 66.618C516.446 66.348 520.986 68.558 521.526 65.258C524.436 54.548 525.626 33.328 529.506 26.708C530.116 27.168 547.006 68.928 548.166 68.788L566.536 26.208H567.056L574.446 65.658C574.576 66.348 574.846 66.878 575.506 66.878C577.276 66.718 580.006 67.238 581.746 66.568L569.376 3.41797L562.716 19.098Z" fill="#E4E4E4"/>
<path d="M195.573 34.4073C208.003 30.3973 206.173 10.6173 194.383 6.97732C189.063 4.98732 177.013 6.09732 170.143 5.78732C169.173 6.67732 170.133 65.6573 169.803 66.8573C177.073 66.7573 187.603 67.2173 193.923 66.1673C209.913 63.6173 211.353 37.2373 195.573 34.4073ZM176.793 15.0673C176.943 13.4373 176.903 12.1873 177.413 12.0273C183.593 12.5473 193.163 10.4173 195.953 17.7873C200.283 31.8173 187.813 33.3773 177.033 32.4573C176.673 28.4673 176.563 19.3573 176.793 15.0673ZM199.033 50.3473C199.213 61.4573 185.173 61.0273 177.333 60.4473C175.933 54.4773 177.043 47.3973 176.853 41.3173C176.853 41.5773 176.853 41.8473 176.843 42.1373C177.123 40.5973 176.273 38.8173 177.363 38.2173C182.343 38.1773 188.233 37.7273 193.103 39.6273C197.593 41.1773 199.463 45.8273 199.033 50.3473Z" fill="#E4E4E4"/>
<path d="M397.968 28.9172C397.678 29.0672 397.218 29.1872 396.798 29.1872H365.407L365.428 6.67716C365.418 6.38716 365.398 5.97716 365.198 5.84716C364.508 5.74716 358.937 5.75716 358.477 5.79716C358.207 5.79716 358.138 6.64716 358.138 6.99716C358.638 8.28716 356.607 64.5972 360.067 63.5072C360.847 64.3872 361.728 65.2072 362.708 65.8572H362.718C362.938 65.9972 363.148 66.1172 363.358 66.2172C363.348 66.2172 363.327 66.2072 363.317 66.1972C364.007 66.5372 364.868 66.7572 365.428 66.1372L365.368 36.9872C365.378 36.5972 365.427 36.3672 365.657 36.1972C368.477 36.1972 394.828 35.8572 397.958 36.4072V66.8772L405.407 66.8472V5.81716L397.938 5.78716L397.968 28.9172Z" fill="#E4E4E4"/>
<path d="M509.528 62.098C503.378 54.048 495.908 45.798 490.308 37.908C490.308 37.898 490.318 37.888 490.328 37.888C506.808 39.498 513.208 20.748 502.938 9.55798C496.368 3.42798 482.468 6.53798 473.508 5.78798L473.528 59.848C473.528 62.328 477.468 66.758 480.678 66.788V38.188C483.758 36.558 501.738 67.348 505.208 66.878C505.458 66.838 513.058 66.958 513.008 66.688C513.248 66.858 510.828 63.698 509.528 62.098ZM487.868 32.398C485.478 32.508 483.068 32.438 480.678 32.328V11.858C486.748 12.328 496.928 10.268 499.748 17.328C503.418 26.818 497.248 32.668 487.868 32.398Z" fill="#E4E4E4"/>
<path d="M458.592 47.1575C451.442 31.3675 445.302 13.6275 438.992 4.22754C438.992 4.22754 438.982 4.22754 438.982 4.23754C439.292 4.02754 436.462 10.2875 434.312 15.1375C426.972 32.1475 418.472 48.8975 412.242 66.3175C421.392 67.7075 423.612 54.8475 427.912 48.1475C428.382 48.1475 450.142 48.1375 450.582 48.1375C455.662 52.7175 455.032 62.3875 460.202 66.8775L466.862 66.8475C466.952 66.7975 467.002 66.2975 466.912 66.1075C466.642 66.0775 463.082 57.7175 458.592 47.1575ZM429.982 41.0875C429.982 41.0875 439.052 20.2075 439.062 20.1575C439.312 19.7275 439.402 19.5875 439.712 20.2175L448.762 41.0375C448.902 41.3775 448.862 41.8475 448.492 41.8475C443.222 41.0975 434.872 43.3475 429.982 41.0875Z" fill="#E4E4E4"/>
<path d="M97.2074 6.23799C97.1474 5.77799 96.7574 5.75799 96.3174 5.79799H56.2174C54.5574 5.36799 55.6174 11.208 55.3374 11.958C58.8874 14.058 71.2074 12.048 72.6674 12.698L72.7374 60.118C73.0474 62.448 76.2074 64.998 78.1974 66.228C82.6474 70.748 78.9974 12.518 80.1274 12.708L96.7274 12.728C96.9274 12.728 97.3674 12.248 97.2474 12.258C97.2274 12.118 97.2774 6.20799 97.2074 6.23799Z" fill="#E4E4E4"/>
<path d="M112.731 5.85763C108.621 5.56763 105.331 10.6376 105.331 13.3876L105.281 66.1976C105.281 66.3976 105.651 66.8576 106.121 66.8576H135.771L135.841 59.9176L112.721 59.9476V5.85763H112.731Z" fill="#E4E4E4"/>
<path d="M338.282 6.64769C330.952 5.08769 321.842 6.04769 314.602 5.78769L314.652 60.1177C314.652 63.0877 321.792 68.4277 321.792 66.0377V40.3677C325.602 37.6177 335.102 40.9177 340.042 37.8777C352.962 32.8077 352.082 9.99769 338.282 6.64769ZM341.082 25.3677C339.942 34.1477 328.452 32.5877 321.792 32.8877V12.4877C331.022 11.7477 343.622 12.9277 341.082 25.3677Z" fill="#E4E4E4"/>
<path d="M252.77 36.1975C253.42 38.6075 270 43.6375 265.42 40.6575C251 35.8775 254.59 16.9675 266.05 10.8975C272.84 6.67751 281.18 5.51751 288.86 4.31751C279.87 0.537512 268.19 -2.22249 258.98 2.48751C246.73 8.82751 242.39 26.5675 252.77 36.1975Z" fill="#CF2B2D"/>
<path d="M302.323 21.9772C293.233 9.1172 270.373 10.9372 266.003 26.4972C265.303 28.8672 265.003 31.1472 265.043 33.7872C268.743 15.9372 290.633 21.2772 296.533 34.8072C300.083 41.4972 300.763 48.0872 302.003 55.2172C302.043 55.2172 302.083 55.2172 302.123 55.1972C302.123 55.1972 302.126 55.1939 302.133 55.1872C306.513 45.2872 308.893 31.3472 302.323 21.9772Z" fill="#CF2B2D"/>
<path d="M272.728 31.5176C286.298 34.0176 286.848 51.5076 277.368 59.0176C270.278 65.2776 259.598 67.5076 250.828 68.3776C291.948 89.3376 310.408 34.6676 272.728 31.5176Z" fill="#CF2B2D"/>
<path d="M263.298 58.0874C270.708 54.9174 274.448 47.0174 275.088 39.2074C271.008 52.6774 255.888 53.9474 246.168 42.7574C240.058 35.2374 239.088 26.5074 237.728 17.0674C223.358 48.0574 247.518 64.9974 263.298 58.0874Z" fill="#CF2B2D"/>
<path d="M217.997 12.8079L217.977 66.8578C219.987 66.7078 223.147 67.1979 225.217 66.6879C225.277 65.6979 225.217 6.84785 225.227 5.79785C222.037 7.06785 218.847 9.37785 217.997 12.8079Z" fill="#E4E4E4"/>
</svg>
