<svg width="232" height="59" viewBox="0 0 232 59" fill="none" xmlns="http://www.w3.org/2000/svg">
<g style="mix-blend-mode:luminosity">
<path fill-rule="evenodd" clip-rule="evenodd" d="M139.516 0.0299445C138.729 0.135856 137.897 0.78915 137.508 1.60565C137.323 1.99303 137.309 2.06906 137.309 2.66833C137.309 3.2663 137.323 3.34412 137.506 3.72702C137.843 4.43361 138.468 4.98842 139.19 5.22016C139.707 5.38625 140.475 5.32448 141.003 5.07436C141.733 4.72792 142.388 3.88745 142.536 3.10562C142.718 2.1432 142.469 1.36998 141.764 0.706722C141.264 0.237834 140.892 0.0865558 140.031 0.00344937C139.929 -0.00638571 139.697 0.00554119 139.516 0.0299445ZM73.5483 2.35182V3.08614L73.9969 3.13064C74.8841 3.21872 76.1554 3.51169 76.5768 3.72523C77.0297 3.95476 77.2083 4.17248 77.3706 4.69294C77.4699 5.01105 77.4773 5.77843 77.4773 15.6998C77.4773 27.7458 77.5163 26.799 76.9975 27.3581C76.5441 27.8468 76.1197 27.9846 74.5767 28.1443C74.0704 28.1967 73.6319 28.2396 73.6022 28.2396C73.5726 28.2396 73.5483 28.5715 73.5483 28.9772V29.7148H79.7975H86.0467V28.9911V28.2673L84.9905 28.1576C83.0204 27.953 82.4065 27.6775 82.1094 26.8647C82.0011 26.5686 81.993 26.2545 81.9768 21.7699L81.9594 16.9907L83.4617 16.9931L84.9639 16.9956L86.1705 18.5082C88.908 21.9404 91.5823 25.5748 93.7494 28.8081L94.3572 29.7148H98.3383H102.319V28.9867V28.2585L101.685 28.1842C100.327 28.025 99.706 27.8098 98.7019 27.1512C97.603 26.4304 97.4261 26.2237 92.6333 20.0641C91.9888 19.2358 90.994 17.9657 90.4227 17.2416C89.8514 16.5175 89.4057 15.906 89.4323 15.8827C89.4589 15.8595 89.7313 15.7643 90.0375 15.6712C91.2379 15.3064 92.6824 14.6514 93.5105 14.0963C95.7066 12.624 96.6948 10.5087 96.4944 7.70881C96.2896 4.84705 94.1453 2.74984 90.6506 1.99327C89.0903 1.6555 89.3212 1.66411 81.1433 1.63995L73.5483 1.61751V2.35182ZM125.769 1.82411C123.847 1.92535 122.255 2.0253 122.232 2.04626C122.209 2.06722 122.206 2.38539 122.226 2.75334L122.261 3.42231L122.7 3.38518C122.942 3.36477 123.338 3.3298 123.579 3.30736C124.262 3.24423 124.662 3.31628 124.983 3.55963C125.317 3.81301 125.437 4.05409 125.592 4.78072C125.702 5.3013 125.722 6.04773 125.866 15.0237C125.951 20.3484 126.013 25.2583 126.004 25.9345C125.984 27.3231 125.939 27.4868 125.477 27.8669C125.172 28.1184 124.784 28.2255 123.846 28.3177L123.078 28.3933V29.0387V29.6841L127.919 29.6998L132.761 29.7155V29.0479V28.3803L132.374 28.3429C131.494 28.2577 130.494 27.858 130.198 27.4725C129.824 26.9848 129.85 27.8731 129.809 14.3292L129.771 1.9248L129.591 1.77408C129.491 1.69115 129.378 1.6271 129.338 1.63171C129.298 1.63626 127.692 1.72287 125.769 1.82411ZM81.9631 9.28384V15.2847L83.8348 15.2521C85.4389 15.2242 85.7949 15.2005 86.3251 15.0866C87.4244 14.8504 88.2704 14.4449 89.1794 13.7184C90.7168 12.4897 91.5177 10.3871 91.3054 8.13707C91.1692 6.69358 90.7522 5.74923 89.8519 4.8452C89.2685 4.2594 88.7117 3.91578 87.9217 3.65399C86.9739 3.33994 86.3878 3.28376 84.0513 3.28339L81.9631 3.28302V9.28384ZM111.211 9.68191C107.654 10.0742 104.687 12.5789 103.49 16.198C102.901 17.9814 102.759 19.7081 103.036 21.7238C103.661 26.2682 106.402 29.2758 110.609 30.0347C111.68 30.2279 113.651 30.2278 114.617 30.0345C117.174 29.5235 119.399 27.9553 120.835 25.6529L121.191 25.0824L120.47 24.6612C120.073 24.4296 119.727 24.2479 119.701 24.2574C119.675 24.267 119.481 24.5376 119.269 24.8587C118.308 26.3161 117.438 27.1045 116.292 27.5585C114.706 28.1864 112.471 28.1103 110.924 27.3759C108.573 26.2594 107.3 23.8457 107.107 20.141L107.065 19.3265H113.88H120.696L120.695 18.5428C120.693 16.4709 120.382 14.8835 119.721 13.5791C118.677 11.5189 116.829 10.2193 114.341 9.79661C113.484 9.65087 111.989 9.5961 111.211 9.68191ZM155.376 9.65241C154.373 9.75986 152.941 10.1573 151.953 10.6022C150.978 11.0412 149.803 11.9881 149.302 12.7372C148.71 13.6238 148.7 14.7997 149.276 15.6926C149.529 16.0834 149.836 16.2885 150.36 16.4171C150.721 16.5056 150.866 16.5111 151.317 16.4539C151.996 16.3679 152.359 16.2099 152.773 15.8209C153.261 15.3622 153.391 15.0222 153.346 14.3172C153.326 14.0127 153.239 13.454 153.152 13.0757C153.065 12.6974 152.993 12.3051 152.993 12.2039C152.993 11.9854 153.162 11.8493 153.775 11.5731C154.456 11.2663 155.039 11.1439 155.84 11.1397C157.128 11.133 157.792 11.3692 158.529 12.0958C159.49 13.0432 159.799 14.0265 159.799 16.1371L159.8 17.2198L159.444 17.3774C158.72 17.6979 158.111 17.915 156.056 18.5854C152.925 19.6069 151.85 19.9836 151.205 20.2849C148.762 21.4274 147.66 23.263 147.868 25.8465C147.999 27.4781 148.888 28.782 150.397 29.5584C151.41 30.0793 152.537 30.2673 153.94 30.1496C156.123 29.9665 157.496 29.3584 159.235 27.8037C159.582 27.4937 159.873 27.2506 159.882 27.2634C159.89 27.2763 159.932 27.4251 159.974 27.5941C160.187 28.4515 160.842 29.2766 161.599 29.6436C162.288 29.9774 162.689 30.053 163.759 30.0515C164.829 30.0501 165.001 30.0201 166.278 29.6133L167.162 29.3316V28.6934C167.162 28.1282 167.15 28.0547 167.054 28.0506C165.315 27.9778 165.08 27.9534 164.794 27.8161C164.407 27.6297 163.968 27.1983 163.801 26.8393C163.672 26.56 163.667 26.4745 163.667 24.5514C163.667 23.4526 163.691 20.9493 163.72 18.9884C163.768 15.8414 163.763 15.3351 163.674 14.6722C163.413 12.7262 162.646 11.4555 161.223 10.6104C160.388 10.1146 159.613 9.87972 158.346 9.73809C157.721 9.66839 155.756 9.61165 155.376 9.65241ZM203.049 9.67804C201.383 9.88163 200.058 10.3692 198.677 11.2858C196.854 12.497 195.333 14.6492 194.733 16.8677C194.42 18.027 194.361 18.5241 194.362 19.9719C194.363 21.7075 194.507 22.7051 194.952 24.0596C195.698 26.3306 197.214 28.1662 199.173 29.169C201.336 30.2759 204.19 30.5099 206.514 29.7704C207.148 29.5687 208.472 28.8906 209.082 28.4554C210.28 27.6002 211.416 26.3717 212.102 25.1882C212.127 25.1451 211.892 24.9618 211.489 24.7118C211.13 24.4883 210.814 24.3055 210.787 24.3055C210.761 24.3055 210.612 24.4959 210.456 24.7285C209.767 25.7577 208.831 26.698 207.987 27.2093C206.785 27.9371 204.927 28.1826 203.447 27.8091C200.377 27.0339 198.51 23.6163 198.677 19.0776C198.769 16.6001 199.285 14.6588 200.221 13.2718C200.609 12.6972 201.403 11.9531 201.904 11.6937C202.688 11.2882 203.151 11.1815 204.101 11.1866C205.364 11.1934 205.999 11.3853 206.512 11.9163L206.728 12.1387L206.58 12.8282C206.499 13.2074 206.382 13.7528 206.32 14.0401C206.152 14.812 206.154 15.5985 206.323 15.9803C206.705 16.8422 207.743 17.3594 208.931 17.2807C210.111 17.2026 210.757 16.4864 210.937 15.0544C210.991 14.63 210.868 13.732 210.682 13.1802C210.095 11.4419 208.34 10.1834 205.926 9.76859C205.241 9.65081 203.675 9.60151 203.049 9.67804ZM222.044 9.67878C219.681 9.97143 217.655 11.0382 216.213 12.7493C213.987 15.3911 213.19 19.0029 214.006 22.75C214.249 23.8655 214.783 25.214 215.315 26.0574C216.813 28.4297 219.223 29.8429 222.283 30.1436C225.435 30.4534 228.078 29.5592 230.18 27.4712C230.834 26.8227 231.745 25.6069 231.913 25.1588C231.942 25.0825 231.787 24.9648 231.244 24.6517C230.855 24.4275 230.523 24.244 230.505 24.244C230.487 24.244 230.262 24.5553 230.006 24.9356C228.925 26.5356 227.903 27.3632 226.53 27.7493C224.989 28.1826 222.971 28.002 221.566 27.3052C219.35 26.2062 218.058 23.7024 217.917 20.2332L217.88 19.3265H224.664H231.449V18.2031C231.449 16.4828 231.269 15.4128 230.766 14.1341C230.289 12.9228 229.25 11.6259 228.231 10.9701C227.336 10.3939 226.146 9.94968 225.014 9.76951C224.278 9.65229 222.658 9.6028 222.044 9.67878ZM181.486 9.7751C180.76 9.90449 180.077 10.1257 179.414 10.4469C178.566 10.8571 178.02 11.2628 176.662 12.488C176.391 12.7331 176.147 12.9337 176.12 12.9337C176.094 12.9337 176.072 12.3165 176.072 11.5622V10.1907L175.902 10.0678L175.732 9.94476L172.329 10.1637L168.926 10.3827L168.908 11.0388L168.891 11.695L169.249 11.7343C169.918 11.8079 170.507 11.9479 170.852 12.1157C171.472 12.4175 171.974 13.114 172.114 13.8683C172.155 14.087 172.171 16.4442 172.159 20.562C172.139 27.5933 172.165 27.1626 171.727 27.6566C171.423 28.0004 171.001 28.1601 170.173 28.2456C169.827 28.2812 169.454 28.3233 169.343 28.3392L169.142 28.3681V29.0414V29.7148H174.185H179.228V29.0398C179.228 28.2681 179.317 28.3626 178.477 28.2469C177.16 28.0657 176.313 27.506 176.14 26.7025C176.094 26.4889 176.072 24.5759 176.072 20.6827V14.976L176.298 14.6464C176.917 13.7405 177.508 13.2407 178.578 12.7179C179.512 12.2615 180.007 12.1332 180.997 12.091C182.284 12.0361 182.938 12.2612 183.712 13.0254C184.417 13.7223 184.742 14.483 184.861 15.7191C184.904 16.1659 184.921 18.247 184.908 21.6623L184.889 26.918L184.747 27.2253C184.435 27.8986 183.979 28.1442 182.851 28.2475C182.475 28.282 182.076 28.3233 181.966 28.3392L181.765 28.3681V29.0414V29.7148H186.807H191.85V29.0414V28.3681L191.649 28.3372C191.538 28.3203 191.308 28.29 191.138 28.2698C190.754 28.2242 189.982 27.9756 189.656 27.7925C189.323 27.6051 189.029 27.2042 188.947 26.8254C188.902 26.6123 188.88 24.7559 188.88 21.0114C188.88 17.5049 188.856 15.2962 188.814 14.9193C188.636 13.3358 188.071 12.0244 187.178 11.1226C186.477 10.4144 185.625 9.98606 184.49 9.77227C183.84 9.64982 182.18 9.65136 181.486 9.7751ZM138.268 10.3242C136.515 10.436 134.991 10.5295 134.88 10.5319L134.679 10.5364V11.2126V11.8887H134.889C135.186 11.8887 136.062 12.056 136.535 12.2034C137.32 12.4477 137.861 12.9323 138.155 13.6558L138.299 14.0094V20.433C138.299 26.5863 138.294 26.8692 138.182 27.1579C138.117 27.3237 137.971 27.5624 137.856 27.6884C137.504 28.0758 137.131 28.1854 135.654 28.3353L135.298 28.3713V29.0431V29.7148H140.248H145.197V29.0424V28.3701L144.904 28.3308C144.351 28.2572 143.62 28.0476 143.173 27.8349C142.693 27.606 142.487 27.395 142.306 26.9445C142.204 26.6895 142.196 26.1517 142.179 18.5295L142.162 10.387L142.029 10.2465C141.87 10.0779 142.255 10.0699 138.268 10.3242ZM111.384 11.2378C110.29 11.4503 109.385 11.9919 108.671 12.862C107.746 13.987 107.308 15.2196 107.11 17.2519L107.069 17.6668H111.814H116.559L116.52 17.0982C116.452 16.1299 116.297 15.0178 116.149 14.439C115.73 12.797 114.796 11.7111 113.457 11.3084C112.991 11.1685 111.927 11.1323 111.384 11.2378ZM222.244 11.215C219.816 11.6491 218.147 13.9291 217.919 17.1225L217.88 17.6668H222.601H227.322L227.283 16.8524C227.225 15.6266 226.977 14.3096 226.668 13.5791C226.217 12.514 225.297 11.6264 224.338 11.3317C223.866 11.1866 222.751 11.1245 222.244 11.215ZM158.635 19.2743C155.795 20.133 154.355 20.842 153.297 21.903C152.454 22.7478 152.068 23.6669 152.068 24.828C152.068 26.4471 152.803 27.4697 154.235 27.8422C154.705 27.9642 155.686 27.9792 156.265 27.8733C157.263 27.6907 158.263 27.125 159.182 26.2233L159.727 25.6886L159.784 22.3078C159.815 20.4483 159.839 18.9238 159.836 18.9198C159.833 18.9158 159.292 19.0753 158.635 19.2743ZM98.2357 41.8487L96.9673 41.9165L96.9488 42.1993L96.9303 42.4822L97.4214 42.5229C98.0586 42.5757 98.4567 42.6981 98.6787 42.9094C98.9876 43.2033 99.0401 43.5263 99.0401 45.1306C99.0401 46.4782 99.0332 46.5677 98.9318 46.5255C98.2015 46.2215 97.1052 46.0303 96.4723 46.0967C95.3824 46.211 94.5386 46.5991 93.8064 47.3229C93.2606 47.8623 92.9495 48.3552 92.7183 49.0469C92.5923 49.4233 92.5748 49.5926 92.5779 50.3992C92.5811 51.2288 92.598 51.3706 92.7465 51.813C93.1088 52.8928 93.8046 53.7272 94.7143 54.1727C95.2692 54.4445 95.9058 54.6077 96.4105 54.6077C97.149 54.6077 98.1758 54.2376 98.7191 53.7757C98.8554 53.6597 98.9834 53.5649 99.0035 53.5649C99.0236 53.5649 99.0401 53.7275 99.0401 53.9262C99.0401 54.1412 99.0714 54.3126 99.1174 54.3495C99.1696 54.3913 99.6376 54.3845 100.556 54.3285C101.305 54.2829 102.008 54.2446 102.118 54.2433C102.318 54.2411 102.319 54.239 102.319 53.9337V53.6264L101.933 53.625C101.472 53.6234 101.08 53.4669 100.917 53.2193C100.81 53.0573 100.802 52.7384 100.773 47.4207L100.742 41.7935L100.123 41.7872C99.7826 41.7837 98.9334 41.8114 98.2357 41.8487ZM227.86 41.8547C227.162 41.8961 226.585 41.9337 226.576 41.9385C226.568 41.9433 226.561 42.0677 226.561 42.215V42.4827L227.047 42.523C227.92 42.5953 228.291 42.7722 228.549 43.2381C228.613 43.3542 228.638 43.7809 228.654 44.9829C228.673 46.5039 228.669 46.5721 228.561 46.5273C228.152 46.3575 227.482 46.1835 227.014 46.1255C224.94 45.8683 223.017 47.0582 222.378 48.9943C222.213 49.4955 222.199 49.6093 222.201 50.43C222.203 51.2674 222.214 51.3538 222.395 51.8598C222.651 52.5781 222.92 53.0152 223.41 53.5082C224.063 54.1637 225.122 54.6077 226.035 54.6077C226.774 54.6077 227.799 54.2406 228.334 53.7845C228.475 53.6637 228.608 53.5649 228.628 53.5649C228.648 53.5649 228.664 53.7275 228.664 53.9262C228.664 54.1411 228.696 54.3127 228.742 54.3496C228.794 54.3916 229.29 54.3832 230.273 54.3237C231.073 54.2752 231.791 54.2471 231.869 54.2611C232.004 54.2853 232.01 54.2707 231.993 53.9718L231.975 53.6571L231.511 53.6226C230.991 53.584 230.719 53.469 230.545 53.2146C230.433 53.0494 230.427 52.813 230.397 47.418L230.366 41.7935L229.747 41.7866C229.407 41.7828 228.558 41.8134 227.86 41.8547ZM139.559 42.132C138.863 42.4974 138.713 43.28 139.231 43.8491C139.512 44.1587 139.732 44.2423 140.18 44.2101C140.915 44.1573 141.403 43.5152 141.229 42.8288C141.155 42.5379 140.868 42.2142 140.574 42.0918C140.293 41.9741 139.824 41.9926 139.559 42.132ZM179.051 42.0744C178.418 42.3262 178.119 43.0386 178.408 43.6025C178.594 43.9652 178.927 44.1791 179.353 44.2098C179.806 44.2423 180.024 44.1598 180.306 43.8494C180.834 43.2693 180.708 42.4855 180.034 42.147C179.744 42.0014 179.314 41.9696 179.051 42.0744ZM201.588 42.1263C201.235 42.2853 200.996 42.6151 200.959 42.9914C200.92 43.3929 200.97 43.561 201.208 43.8301C201.45 44.1039 201.715 44.2216 202.09 44.2216C202.245 44.2216 202.462 44.1842 202.572 44.1385C202.844 44.0256 203.153 43.6619 203.236 43.3566C203.479 42.4605 202.487 41.7204 201.588 42.1263ZM73.5483 43.1072V43.4066L73.8479 43.4461C74.6976 43.5581 75.2605 43.7895 75.3812 44.0765C75.5006 44.3604 75.5063 52.9605 75.3873 53.1942C75.218 53.5265 74.9339 53.6365 74.0279 53.7204L73.6102 53.7591V54.0616V54.364H76.4873H79.3644V54.0654V53.7668L78.823 53.6915C78.0925 53.5898 77.7616 53.4582 77.5861 53.1995L77.444 52.99L77.4606 48.4843L77.4773 43.9785L77.6359 43.8208C77.8201 43.6379 78.2787 43.5037 78.9158 43.4461L79.3644 43.4055V43.1066V42.8078H76.4564H73.5483V43.1072ZM165.987 43.0863C165.987 43.2561 166.017 43.3737 166.064 43.3874C166.107 43.3998 166.335 43.4546 166.572 43.5091C167.149 43.642 167.517 43.8274 167.628 44.0404C167.706 44.1898 167.719 44.8646 167.719 48.6474C167.719 53.5019 167.732 53.3371 167.356 53.5301C167.211 53.6046 166.359 53.7493 166.066 53.7493C166.012 53.7493 165.987 53.8484 165.987 54.0566V54.364H171.028H176.07L176.098 54.2257C176.114 54.1497 176.172 53.4512 176.226 52.6736C176.281 51.896 176.34 51.1838 176.359 51.0908C176.391 50.9218 176.391 50.9217 176.028 50.9217H175.665L175.492 51.2752C175.227 51.8159 174.441 52.9621 174.163 53.2113C173.751 53.5809 172.929 53.72 171.433 53.6733C170.335 53.639 170.045 53.5598 169.851 53.2404C169.735 53.0498 169.729 52.8782 169.712 48.6746C169.698 45.2404 169.712 44.2549 169.774 44.0644C169.879 43.7446 170.206 43.5799 170.941 43.4767L171.494 43.3989V43.1034V42.8078H168.74H165.987V43.0863ZM124.284 45.0803V46.308L123.465 46.3251L122.645 46.3423L122.626 46.7572L122.608 47.1721H123.415H124.222V49.9967C124.222 51.8519 124.246 52.933 124.292 53.147C124.485 54.0519 125.012 54.4626 126.066 54.5295C126.732 54.5718 127.318 54.4843 128.103 54.2254L128.708 54.0259L128.727 53.6951C128.746 53.3753 128.741 53.3657 128.604 53.4053C128.31 53.4897 127.101 53.5188 126.839 53.4478C126.496 53.3548 126.241 53.1336 126.106 52.8121C126.008 52.5789 125.993 52.2607 125.968 49.8627L125.941 47.1746L127.232 47.158L128.523 47.1414V46.7418V46.3423L127.239 46.3257L125.955 46.309V45.0809V43.8527H125.12H124.284V45.0803ZM207.009 45.0821V46.3115H206.204H205.4V46.7418V47.1721H206.202H207.004L207.022 50.2347L207.04 53.2972L207.227 53.6616C207.576 54.3424 208.231 54.6016 209.42 54.5297C209.867 54.5026 210.2 54.4355 210.74 54.2637L211.464 54.0339V53.7087V53.3836L211.263 53.4278C211.152 53.4522 210.713 53.4723 210.288 53.4724C209.578 53.4727 209.495 53.4605 209.275 53.3245C209.119 53.2283 208.989 53.0776 208.904 52.8943C208.777 52.6222 208.771 52.5147 208.754 49.8921L208.735 47.1721H210.007H211.278V46.7418V46.3115H210.01H208.741V45.0821V43.8527H207.875H207.009V45.0821ZM86.4337 46.1575C85.8346 46.2654 85.3145 46.5219 84.7164 47.0043L84.2215 47.4037L84.2038 46.8633C84.1929 46.5337 84.1567 46.2993 84.111 46.2625C84.0616 46.2228 83.6012 46.2303 82.7674 46.2845C82.0698 46.3298 81.3947 46.3682 81.267 46.3699L81.035 46.373V46.6717V46.9705L81.3683 47.0046C81.7898 47.0479 82.0343 47.1734 82.2538 47.4592L82.4271 47.6849L82.4464 50.3636C82.4591 52.1386 82.4433 53.1179 82.3995 53.2662C82.3182 53.5415 82.1164 53.6797 81.7316 53.7237C81.1498 53.7901 81.1587 53.7843 81.1587 54.0886V54.364H83.3552H85.5517V54.094C85.5517 53.8106 85.4923 53.7493 85.2174 53.7493C84.9524 53.7493 84.5006 53.5528 84.3461 53.3703L84.1905 53.1867V50.7088V48.231L84.4844 47.9207C85.0612 47.3114 86.1618 46.9688 86.901 47.1683C87.2192 47.2542 87.6131 47.591 87.7991 47.9363C87.9303 48.1798 87.9343 48.2523 87.9519 50.7288C87.968 52.9884 87.9588 53.2882 87.8698 53.4232C87.7463 53.6104 87.4268 53.7491 87.116 53.7502C86.6678 53.7518 86.6036 53.7949 86.6036 54.0946V54.364H88.831H91.0584V54.0902C91.0584 53.8216 91.054 53.8156 90.8264 53.7777C90.3772 53.7029 90.0068 53.5539 89.8837 53.3982C89.7639 53.247 89.759 53.1518 89.7579 50.9288C89.7565 48.3948 89.7178 47.9387 89.4572 47.3843C89.1284 46.6851 88.6592 46.3247 87.8584 46.1561C87.3542 46.05 87.029 46.0503 86.4337 46.1575ZM117.447 46.1041C116.781 46.2344 116.598 46.2875 116.303 46.4354C115.264 46.956 114.744 48.0017 115.033 48.9897C115.306 49.9228 116.046 50.4407 117.88 50.9817C118.929 51.2911 119.475 51.552 119.731 51.8668C119.908 52.0834 119.922 52.137 119.922 52.5762C119.922 52.9889 119.9 53.0842 119.756 53.3007C119.332 53.9376 118.024 54.1028 117.053 53.6419C116.839 53.5404 116.537 53.3096 116.271 53.0443C115.924 52.6987 115.788 52.504 115.59 52.0725L115.344 51.533L115.034 51.5501L114.725 51.5671L114.742 52.4277C114.751 52.901 114.775 53.5454 114.796 53.8597L114.833 54.4312L115.176 54.4129C115.517 54.3949 115.52 54.3931 115.602 54.1467L115.685 53.8986L116.164 54.1289C116.844 54.456 117.328 54.5648 118.097 54.5633C119.215 54.5611 120.031 54.2782 120.681 53.6667C121.256 53.1266 121.479 52.4707 121.365 51.6483C121.227 50.6451 120.48 50.0814 118.437 49.4383C117.375 49.1041 116.8 48.8396 116.608 48.5979C116.302 48.2115 116.314 47.6113 116.634 47.249C117.323 46.4695 118.976 46.6377 119.732 47.5642C119.975 47.8623 120.168 48.2299 120.229 48.509C120.272 48.7053 120.278 48.7088 120.616 48.7088H120.96L120.92 47.9866C120.898 47.5893 120.863 46.9946 120.842 46.665L120.803 46.0656H120.47C120.152 46.0656 120.132 46.0754 120.037 46.2733L119.937 46.4811L119.59 46.3587C118.944 46.1313 117.926 46.0104 117.447 46.1041ZM147.394 46.1043C146.055 46.311 144.939 47.1382 144.362 48.352C144.017 49.0778 143.929 49.4942 143.937 50.3685C143.948 51.7153 144.304 52.6336 145.128 53.4444C145.914 54.2168 146.814 54.5548 148.105 54.562C149.183 54.568 149.935 54.3413 150.709 53.7767C151.056 53.5237 151.56 52.9898 151.743 52.6823C151.887 52.4395 151.88 52.4279 151.468 52.2219L151.212 52.0934L150.899 52.5191C150.33 53.2944 149.67 53.6264 148.7 53.6264C146.962 53.6264 145.942 52.5712 145.777 50.6035L145.737 50.1226H148.684H151.632V49.5178C151.632 47.787 150.793 46.6286 149.24 46.2169C148.876 46.1205 147.738 46.0511 147.394 46.1043ZM156.056 46.0999C155.988 46.1156 155.78 46.1591 155.593 46.1968C154.788 46.3593 154.12 46.8512 153.784 47.5282C153.603 47.894 153.581 47.9939 153.581 48.4617C153.581 49.1049 153.729 49.4489 154.201 49.9099C154.611 50.3091 155.205 50.5945 156.352 50.9431C157.765 51.3726 158.225 51.6123 158.44 52.0309C158.583 52.3104 158.601 52.7997 158.478 53.0915C158.386 53.3111 158.013 53.6647 157.78 53.7525C157.18 53.9793 156.29 53.9387 155.691 53.6572C155.02 53.3418 154.274 52.4837 154.046 51.7639L153.972 51.5304L153.653 51.5488L153.334 51.5671L153.352 52.7043C153.362 53.3298 153.386 53.9742 153.405 54.1364L153.439 54.4312L153.784 54.413C154.126 54.3949 154.129 54.3932 154.211 54.1467L154.294 53.8986L154.773 54.1289C155.036 54.2556 155.433 54.4058 155.654 54.4627C156.136 54.5867 157.131 54.5999 157.665 54.4894C158.585 54.2988 159.446 53.7009 159.784 53.0184C159.937 52.7086 159.954 52.6081 159.954 52.0282C159.954 51.4618 159.935 51.346 159.8 51.0833C159.451 50.4045 158.714 49.9672 156.984 49.4139C156.406 49.2288 155.794 49.0014 155.625 48.9085C154.947 48.536 154.772 47.782 155.239 47.2527C155.789 46.6305 157.032 46.5835 157.87 47.1532C158.265 47.422 158.648 47.9326 158.79 48.3808L158.894 48.7088H159.231H159.568L159.53 48.171C159.509 47.8752 159.474 47.2805 159.452 46.8494L159.412 46.0656H159.056C158.717 46.0656 158.697 46.0746 158.622 46.2554C158.534 46.4657 158.588 46.4656 157.82 46.2555C157.375 46.1339 156.316 46.0404 156.056 46.0999ZM188.719 46.1269C188.01 46.2303 187.521 46.4673 186.826 47.0447L186.312 47.4721L186.295 46.8975C186.284 46.5402 186.248 46.3003 186.202 46.263C186.153 46.2239 185.686 46.2317 184.858 46.2853C184.161 46.3305 183.484 46.3687 183.354 46.3702L183.119 46.373L183.138 46.6599L183.157 46.9467L183.546 47.0254C184.058 47.1288 184.325 47.3 184.485 47.6292C184.613 47.8913 184.615 47.9569 184.598 50.5927C184.583 52.8487 184.565 53.3107 184.488 53.4256C184.379 53.5895 184.005 53.749 183.728 53.7502C183.316 53.7519 183.249 53.7998 183.249 54.0946V54.364H185.446H187.642V54.0886C187.642 53.8373 187.627 53.8101 187.472 53.779C186.951 53.6745 186.65 53.5487 186.502 53.3738L186.343 53.1867V50.7276V48.2685L186.564 48.0004C187.117 47.33 188.222 46.9554 189.008 47.1722C189.333 47.2619 189.707 47.6119 189.877 47.9839L190.025 48.3093V50.7739C190.025 52.7612 190.008 53.2695 189.939 53.3985C189.845 53.5715 189.475 53.7488 189.204 53.7502C188.825 53.752 188.756 53.8047 188.756 54.0946V54.364H190.922H193.087V54.0886C193.087 53.7917 193.108 53.8071 192.603 53.7232C192.239 53.6628 191.964 53.4953 191.873 53.2797C191.806 53.1194 191.788 52.5754 191.788 50.6728V48.2685L192.009 48.0004C192.446 47.4702 193.245 47.1094 193.974 47.112C194.426 47.1136 194.765 47.2514 195.049 47.5488C195.467 47.9865 195.467 47.9911 195.489 50.6451C195.503 52.2771 195.487 53.116 195.44 53.2732C195.356 53.5573 195.182 53.6766 194.785 53.7221C194.19 53.7905 194.201 53.7837 194.201 54.0886V54.364H196.398H198.594V54.094C198.594 53.8118 198.535 53.7497 198.264 53.7489C198.003 53.7483 197.657 53.6165 197.462 53.4433L197.264 53.2678L197.232 50.5734C197.2 47.9698 197.195 47.8675 197.062 47.538C196.663 46.5505 195.915 46.0966 194.696 46.1025C193.709 46.1073 192.989 46.4057 192.079 47.1857C191.881 47.355 191.712 47.4834 191.703 47.4711C191.693 47.4588 191.623 47.3458 191.547 47.22C191.226 46.6897 190.515 46.2453 189.803 46.1306C189.363 46.0597 189.185 46.0591 188.719 46.1269ZM216.151 46.1249C215.287 46.2819 214.378 46.7718 213.862 47.3578C212.923 48.4245 212.565 49.8782 212.875 51.3658C213.159 52.725 213.878 53.6613 215.048 54.194C215.608 54.4492 216.211 54.5641 217.001 54.5661C218.078 54.5689 218.933 54.2792 219.719 53.6452C220.084 53.3505 220.683 52.6402 220.683 52.501C220.683 52.3905 220.046 52.051 220.015 52.1448C219.972 52.2701 219.428 52.9212 219.218 53.0961C218.507 53.6908 217.163 53.8033 216.179 53.3503C215.304 52.9474 214.736 51.944 214.638 50.6297L214.601 50.1226H217.549H220.497L220.496 49.5848C220.493 47.8254 219.636 46.6184 218.109 46.2196C217.669 46.1047 216.558 46.0509 216.151 46.1249ZM134.896 46.2094C134.304 46.401 133.476 46.9221 133.19 47.2829L133.07 47.4346V46.9081C133.07 46.2542 133.02 46.1864 132.56 46.2241C132.033 46.2674 130.282 46.373 130.091 46.373C129.922 46.373 129.915 46.3844 129.915 46.6717V46.9705L130.248 47.0046C130.689 47.0499 130.931 47.1825 131.137 47.492L131.307 47.7471V50.4896C131.307 53.0426 131.299 53.2441 131.194 53.4037C131.063 53.6017 130.751 53.7489 130.458 53.7502C130.043 53.7519 129.977 53.7993 129.977 54.0946V54.364H132.359H134.741V54.0886C134.741 53.7792 134.753 53.7859 134.096 53.7207C133.66 53.6774 133.231 53.5018 133.138 53.3289C133.092 53.245 133.07 52.3789 133.07 50.6839V48.1638L133.37 47.858C133.688 47.534 134.256 47.2118 134.676 47.1182L134.929 47.0617L134.893 47.4396C134.851 47.8843 134.974 48.1421 135.311 48.3167C135.598 48.4657 136.205 48.4642 136.431 48.3139C136.695 48.138 136.845 47.7917 136.845 47.3565C136.845 46.8822 136.683 46.5541 136.337 46.3269C136.121 46.185 136.005 46.1556 135.612 46.1436C135.353 46.1357 135.032 46.1651 134.896 46.2094ZM104.701 46.3045L103.278 46.4037V46.6749V46.9462L103.668 47.0251C103.882 47.0685 104.151 47.1613 104.265 47.2312C104.663 47.4757 104.67 47.5282 104.671 49.9782C104.671 51.2229 104.7 52.3557 104.737 52.5814C104.872 53.4147 105.344 54.0768 106.018 54.3816C106.426 54.5658 107.647 54.6084 108.176 54.4568C108.693 54.3084 109.312 53.9702 109.727 53.6093L110.084 53.2978L110.102 53.7947C110.113 54.0886 110.151 54.3163 110.195 54.3523C110.245 54.3926 110.699 54.3847 111.538 54.329C112.236 54.2827 112.897 54.2439 113.008 54.243C113.208 54.2411 113.209 54.2391 113.209 53.9337V53.6264H112.909C112.519 53.6264 112.115 53.4165 111.963 53.1341C111.855 52.9345 111.848 52.7183 111.848 49.624C111.848 47.0595 111.831 46.313 111.77 46.2656C111.719 46.2252 111.148 46.2368 110.069 46.3003L108.445 46.3959V46.6918V46.9877L108.77 46.9892C109.223 46.9913 109.625 47.0942 109.799 47.2527C110.106 47.534 110.115 47.6166 110.115 50.1265C110.115 52.8212 110.159 52.6144 109.482 53.11C108.828 53.5877 107.856 53.7658 107.3 53.5096C106.974 53.3594 106.681 53.046 106.547 52.7041C106.451 52.4571 106.437 52.1046 106.417 49.3862C106.395 46.3938 106.38 46.1749 106.194 46.1969C106.156 46.2014 105.484 46.2498 104.701 46.3045ZM139.567 46.2839C138.903 46.3268 138.228 46.3644 138.067 46.3675L137.773 46.373V46.6803C137.773 46.9757 137.779 46.9877 137.945 46.9877C138.04 46.9877 138.284 47.0306 138.487 47.083C138.925 47.1962 139.23 47.4583 139.323 47.8004C139.363 47.9471 139.38 49.0079 139.368 50.6609C139.353 52.8565 139.335 53.3108 139.259 53.4256C139.149 53.5895 138.776 53.749 138.498 53.7502C138.082 53.7519 138.012 53.8014 138.032 54.08L138.051 54.3333L140.232 54.3494L142.413 54.3656V54.0948C142.413 53.8164 142.353 53.7493 142.101 53.7493C142.037 53.7493 141.83 53.6918 141.641 53.6216C141.083 53.4142 141.114 53.6398 141.114 49.7384C141.114 46.2248 141.11 46.1756 140.869 46.1972C140.817 46.2019 140.231 46.2409 139.567 46.2839ZM178.918 46.2847C178.255 46.3275 177.58 46.3649 177.418 46.3678L177.124 46.373V46.6515C177.124 46.8221 177.154 46.9382 177.201 46.9511C177.244 46.9627 177.46 47.0051 177.681 47.0455C177.902 47.0858 178.183 47.1836 178.305 47.2629C178.736 47.5416 178.733 47.5207 178.732 50.5314C178.732 53.0926 178.726 53.2366 178.612 53.4228C178.485 53.6292 178.198 53.7483 177.825 53.7489C177.489 53.7495 177.433 53.7984 177.433 54.094V54.364H179.602H181.771L181.752 54.072C181.735 53.7976 181.722 53.7789 181.548 53.7617C181.212 53.7284 180.795 53.5635 180.644 53.4043L180.496 53.2477L180.479 49.7995C180.467 47.4094 180.441 46.3263 180.394 46.2699C180.357 46.2252 180.281 46.1926 180.226 46.1976C180.17 46.2026 179.582 46.2417 178.918 46.2847ZM201.564 46.2839C200.9 46.3268 200.225 46.3644 200.063 46.3675L199.77 46.373V46.6803C199.77 46.9757 199.776 46.9877 199.942 46.9877C200.203 46.9877 200.811 47.1589 200.979 47.28C201.062 47.339 201.185 47.4997 201.254 47.6372C201.373 47.8759 201.378 48.0044 201.378 50.5017C201.378 52.2075 201.355 53.1821 201.312 53.3058C201.226 53.5506 201.019 53.6817 200.652 53.7237C200.07 53.7901 200.079 53.7843 200.079 54.0886V54.364H202.245H204.41V54.0886C204.41 53.8373 204.395 53.8101 204.24 53.779C203.719 53.6745 203.417 53.5487 203.269 53.3738L203.111 53.1867V49.7614C203.111 46.2239 203.107 46.1756 202.866 46.1972C202.814 46.2019 202.228 46.2409 201.564 46.2839ZM96.4243 46.8252C95.7823 47.0051 95.1919 47.5659 94.8607 48.3101C94.4144 49.3124 94.3427 50.8345 94.6909 51.9103C95.0564 53.0397 96.0874 53.7506 97.2454 53.6717C97.8091 53.6333 98.119 53.5091 98.6534 53.1075L99.0401 52.8168V50.4368V48.0568L98.8651 47.7826C98.6249 47.4063 98.1631 47.0169 97.8147 46.8968C97.4103 46.7575 96.7813 46.7251 96.4243 46.8252ZM147.456 46.7995C146.924 46.9287 146.383 47.3912 146.096 47.9631C145.937 48.2795 145.758 48.956 145.755 49.2467L145.754 49.385H147.803H149.852L149.81 48.9701C149.679 47.6957 149.278 47.0138 148.534 46.8019C148.294 46.7336 147.732 46.7323 147.456 46.7995ZM216.29 46.7993C215.746 46.9643 215.264 47.3652 214.974 47.8936C214.797 48.2174 214.622 48.8567 214.62 49.1852L214.619 49.385H216.66H218.7L218.667 49.093C218.591 48.4193 218.501 47.9878 218.381 47.7098C218.214 47.3236 217.744 46.9025 217.378 46.8111C217.069 46.7337 216.525 46.7278 216.29 46.7993ZM226.049 46.8291C225.184 47.06 224.517 47.891 224.243 49.0776C223.933 50.42 224.104 51.7745 224.69 52.6299C225.187 53.3544 225.796 53.6583 226.746 53.6551C227.429 53.6529 227.664 53.5689 228.278 53.1075L228.664 52.8168V50.4317V48.0467L228.42 47.6862C227.909 46.9314 226.955 46.5868 226.049 46.8291Z" fill="#D1D1D1"/>
<path fill-rule="evenodd" clip-rule="evenodd" d="M29.0724 0.289627C28.9333 0.303025 28.4457 0.349302 27.9887 0.392321C26.361 0.545711 24.085 0.987846 22.5701 1.4449C21.608 1.73517 19.1432 2.6206 18.3148 2.97351C12.3114 5.53109 6.90822 10.437 3.54598 16.3834C2.03709 19.052 0.903819 22.3391 0.359363 25.6259C0.0742754 27.347 -0.000717318 28.3672 5.15588e-06 30.5144C0.000799877 32.8008 0.0846796 33.8344 0.429516 35.8051C1.9504 44.4965 7.26751 51.9642 15.3235 56.7232C16.1672 57.2216 18.9453 58.6147 19.3162 58.7253C19.4916 58.7777 19.4923 58.776 19.3704 58.6057C17.7203 56.3017 16.7347 54.0713 15.7132 50.3302C14.8531 47.1798 14.4983 44.3299 14.5717 41.1605C14.626 38.8142 14.8712 36.9017 15.3495 35.092C16.2367 31.7357 18.2945 28.4078 20.8369 26.2175C23.5165 23.9091 26.4413 22.7091 29.7226 22.572C33.2719 22.4236 36.6419 23.5567 38.6276 25.5659C39.507 26.4557 40.0052 27.2536 40.4411 28.4696C40.9718 29.9504 41.108 31.9444 40.7836 33.4837C40.0114 37.1474 36.9992 39.9877 32.9738 40.8481C32.4962 40.9502 32.0353 40.9794 30.9004 40.9794H29.4412L29.6069 41.1604C29.698 41.26 31.4281 43.1339 33.4515 45.3247C35.475 47.5154 38.3083 50.5853 39.7478 52.1465C41.1874 53.7077 42.471 55.0658 42.6004 55.1644C42.9706 55.4466 43.5071 55.6922 44.2099 55.901C45.0834 56.1605 46.5742 56.227 47.518 56.0485C48.7602 55.8136 49.7643 55.3576 50.8954 54.5149C54.3205 51.9629 57.2014 48.7178 59.3041 45.0431C60.9159 42.2263 62.1304 38.8452 62.7004 35.5878C63.0569 33.5505 63.1309 32.6012 63.1298 30.0799C63.1287 27.5016 63.0646 26.7789 62.6583 24.7633C61.0686 16.8758 55.6495 9.14364 48.7959 4.98387C47.7632 4.35713 45.0555 3.00451 43.9802 2.57838C40.8682 1.34489 37.5866 0.593509 34.1012 0.316133C33.2568 0.248998 29.6885 0.230168 29.0724 0.289627ZM24.3491 34.2441C23.6213 37.559 22.4012 40.8572 20.4861 44.6868C19.6551 46.3486 19.3698 47.461 19.3752 49.0182C19.3853 51.9451 20.7958 54.8568 23.8192 58.1919L24.5505 58.9986L25.1211 58.3957C27.2734 56.1224 28.7964 53.4178 29.2613 51.0434C29.4339 50.1622 29.4325 48.4763 29.2583 47.4973C29.0195 46.1546 28.6354 45.1269 27.0662 41.6312C25.3117 37.7228 24.9216 36.5521 24.5322 34.0269L24.4763 33.6647L24.3491 34.2441Z" fill="#ADADAD"/>
</g>
</svg>
