<svg width="138" height="66" viewBox="0 0 138 66" fill="none" xmlns="http://www.w3.org/2000/svg">
<g clip-path="url(#clip0_3722_6016)">
<path fill-rule="evenodd" clip-rule="evenodd" d="M56.8613 0.0275955C56.7567 0.0374173 56.3658 0.0713867 55.9926 0.103131C53.2672 0.334731 49.4888 1.19922 46.0307 2.38239C38.83 4.84605 31.8262 8.87571 25.3441 14.2845C22.4937 16.6629 19.7146 19.443 17.7976 21.8337C15.0888 25.2119 13.4161 28.3914 12.7914 31.3499C12.6647 31.9495 12.6462 32.1645 12.6435 33.0664C12.6408 33.9659 12.6562 34.1597 12.7638 34.5858C13.2197 36.3894 14.5559 37.6371 16.5968 38.1649C17.5586 38.4136 18.3024 38.4813 19.6976 38.4469C21.3753 38.4055 22.4359 38.2493 23.8782 37.8312C24.8433 37.5515 25.6301 37.2255 27.0761 36.5064C27.7899 36.1514 28.4312 35.861 28.5013 35.861C28.6722 35.861 28.6666 35.9879 28.4795 36.3579C28.1232 37.0623 27.2447 38.0916 26.5321 38.6397C26.3529 38.7775 25.5236 39.3037 24.6893 39.8091C12.944 46.9232 7.33214 50.9264 3.71529 54.7706C1.77214 56.836 0.531977 58.9837 0.208661 60.8432C0.104092 61.4447 0.102029 62.4694 0.204372 62.9522C0.39885 63.8695 1.00264 64.6313 1.86227 65.0439C2.61043 65.4031 3.36858 65.556 4.73981 65.6241C8.52361 65.812 13.2552 63.4683 18.6932 58.7127C19.722 57.813 22.4619 55.0858 23.5243 53.9039C26.9813 50.0584 29.9605 46.162 33.5033 40.8533C34.29 39.6744 35.0418 38.5836 35.174 38.4293C35.487 38.0638 36.2437 37.4655 37.4831 36.6037C38.033 36.2212 39.0623 35.5009 39.7704 35.0029C42.026 33.4163 43.2097 32.7137 43.6266 32.7137C43.9637 32.7137 43.962 32.794 43.5964 34.1832C43.2354 35.555 43.2308 36.3417 43.5796 37.082C44.0311 38.0404 44.9616 38.7609 46.1384 39.0631C46.4768 39.1501 46.741 39.1745 47.3349 39.174C48.9963 39.1724 50.4546 38.8159 52.1106 38.0067C54.4152 36.8806 56.1336 35.4375 59.6087 31.7098C62.2769 28.8476 63.3196 27.9638 64.4043 27.6452C64.8151 27.5245 65.3116 27.5288 65.3769 27.6535C65.4111 27.7189 65.3602 28.0278 65.2139 28.6439C64.6632 30.9626 64.4469 32.3404 64.4472 33.5276C64.4482 37.054 66.4798 38.9486 70.2717 38.9597C71.7981 38.9641 72.8889 38.7 74.3499 37.9723C77.5686 36.3692 80.7413 32.681 83.1436 27.7502C84.0287 25.9334 84.7404 24.0662 85.1235 22.556C85.309 21.8242 85.4738 20.8298 85.4738 20.441C85.4738 19.9484 85.5124 19.9073 85.975 19.9073C86.1889 19.9073 86.8905 19.9575 87.5341 20.0188C88.7853 20.138 89.0454 20.2078 89.4208 20.5252C89.8711 20.9058 90.0262 21.6815 89.8224 22.5333C89.5855 23.5236 88.8407 25.1772 87.7547 27.1245C86.4372 29.4866 85.0371 31.7311 81.8726 36.5535C81.4954 37.1283 81.1496 37.6704 81.1042 37.7581C80.9219 38.1105 81.0718 38.4685 81.4449 38.572C81.5728 38.6075 82.8624 38.6278 84.9851 38.6277L88.3241 38.6274L88.5987 38.4997C88.7509 38.4288 88.9636 38.2663 89.0763 38.1347C89.1881 38.0042 90.5039 36.0168 92.0005 33.7183C95.2083 28.7915 94.9613 29.1555 95.1651 29.0548C95.3792 28.949 95.4225 28.9976 95.5737 29.5121C95.8942 30.6027 96.4426 31.1412 97.5114 31.4143C98.4773 31.6612 99.4604 31.6032 100.635 31.2298L101.219 31.0443V31.1741C101.219 31.2456 101.135 31.5788 101.034 31.9146C100.758 32.8244 100.67 33.3131 100.637 34.1245C100.539 36.5592 101.276 38.3118 102.688 38.9989C103.471 39.3798 104.264 39.4685 105.462 39.3091C108.654 38.8844 112.41 36.7611 117.118 32.7213C117.575 32.3291 117.959 32.0082 117.971 32.0082C118.013 32.0082 117.88 32.3105 117.556 32.9501C116.538 34.9652 114.302 38.1962 111.188 42.1557C109.527 44.2676 107.108 47.1902 103.174 51.8418C98.568 57.2869 97.6292 58.4514 96.6906 59.8837C95.8047 61.2356 95.5335 62.0429 95.6335 63.0298C95.7687 64.3621 96.6673 65.4453 98.0155 65.9008C98.4049 66.0323 99.1611 66.033 99.6443 65.9023C101.06 65.519 102.965 64.0868 104.89 61.957C109.044 57.3627 113.222 50.8033 122.204 34.7757C124.903 29.9598 126.046 28.1518 128.139 25.388C129.203 23.9829 129.676 23.4285 130.755 22.3221C132.698 20.3298 133.589 19.1703 133.905 18.2251C134.288 17.0823 133.575 15.886 132.433 15.7518C131.411 15.6318 129.12 16.8816 126.872 18.7853C125.47 19.9729 124.627 20.8289 121.493 24.2479C118.039 28.0172 116.05 29.8103 113.997 31.0078C112.736 31.7435 111.676 32.0781 110.583 32.0854C109.95 32.0895 109.92 32.0842 109.566 31.9101C109.136 31.6987 108.919 31.4275 108.793 30.9432C108.625 30.2988 108.713 29.9407 109.143 29.5094C109.461 29.1909 109.609 29.1174 110.72 28.7251C112.9 27.9553 115.608 26.1704 117.717 24.1131C119.423 22.45 120.453 20.9836 120.94 19.5275C121.099 19.0525 121.113 18.9544 121.115 18.2794C121.117 17.6583 121.099 17.5 121.001 17.2392C120.756 16.5942 120.316 16.1508 119.741 15.9696C119.343 15.8444 118.189 15.8854 117.398 16.0529C114.833 16.5963 112.046 18.1544 109.336 20.5608C108.552 21.2569 107.036 22.8001 106.299 23.6515C105.126 25.009 104.549 25.5106 104.074 25.5876C103.912 25.6139 103.849 25.5958 103.736 25.4904C103.081 24.8799 102.824 22.6925 103.194 20.8841C103.354 20.1048 103.616 19.4018 104.131 18.3729C104.594 17.449 104.711 17.0729 104.663 16.6729C104.595 16.1165 104.288 15.7877 103.729 15.6717C102.665 15.4509 101.574 16.1018 98.9906 18.5001C97.7158 19.6833 97.5345 19.8299 97.4273 19.7643C97.3775 19.7338 97.0925 19.2204 96.7939 18.6233C96.2019 17.4396 95.9334 17.0391 95.5056 16.7011C94.9708 16.2786 94.4036 16.0667 93.3876 15.9099C92.7218 15.8071 90.978 15.7875 87.0754 15.8389C85.2014 15.8635 85.1119 15.8602 84.9045 15.7561C84.699 15.653 84.6659 15.5979 84.2452 14.6601C81.9658 9.57816 78.8883 5.80419 75.253 3.63308C72.1428 1.77561 68.0186 1.12167 65.4625 2.08074C64.0276 2.61915 63.041 3.79381 62.7562 5.30263C62.6481 5.87571 62.6464 6.90733 62.7524 7.61645C63.2729 11.0986 65.8313 14.0324 70.1402 16.0886C70.8942 16.4484 72.1858 16.9775 72.8234 17.1879C73.0175 17.2519 73.2079 17.3243 73.2466 17.3488C73.3988 17.4453 72.1004 19.0563 70.9223 20.2327C69.4655 21.6873 68.0894 22.6447 66.8703 23.0517C66.2391 23.2624 66.0231 23.2681 65.9357 23.0766C65.8818 22.9584 65.8973 22.8426 66.0313 22.3576C66.2748 21.4768 66.3684 20.9688 66.408 20.3143C66.5751 17.5469 65.5611 15.8689 63.4575 15.4315C62.8922 15.314 61.7322 15.3149 60.9824 15.4335C57.5674 15.9737 53.6641 18.706 46.3982 25.6424C44.8805 27.0912 44.2092 27.638 43.3306 28.1408C42.8337 28.4251 42.1286 28.697 42.0617 28.6301C42.0212 28.5897 41.9552 28.685 43.4999 26.5547C46.7007 22.1404 48.5079 19.742 49.4491 18.6592C50.5496 17.3932 50.7254 17.0579 50.5414 16.5764C50.4266 16.2761 50.1591 16.0416 49.7488 15.8817C48.7784 15.5035 46.6076 16.0202 44.8786 17.0409C44.0815 17.5115 43.5526 17.9604 42.3107 19.2206C38.7941 22.7891 35.154 26.2139 32.7295 28.2352C30.3143 30.2487 28.5666 31.4691 26.9729 32.2551C25.9457 32.7617 25.3524 32.9429 24.6925 32.9515C24.2599 32.9572 24.1684 32.9404 23.8942 32.8059C23.3133 32.5208 23.0331 32.0196 22.9951 31.1974C22.966 30.5708 23.0678 30.1236 23.482 29.0576C23.8124 28.2075 24.8039 26.2355 25.3953 25.2523C29.174 18.9709 34.3717 13.9508 40.5648 10.6013C42.7296 9.43056 45.3189 8.40784 47.4231 7.89255C49.9457 7.27475 51.7703 7.22271 55.0322 7.67544C55.6007 7.75434 56.1349 7.80193 56.237 7.78283C56.3417 7.76318 56.476 7.68228 56.5502 7.59426C56.6215 7.5095 57.5148 5.96042 58.5351 4.15195C60.5098 0.652123 60.5239 0.621355 60.2681 0.38829C60.1072 0.241668 59.8788 0.173078 59.223 0.0745341C58.7353 0.00127733 57.4189 -0.0249323 56.8613 0.0275955ZM70.1581 6.06428C68.9516 6.4501 68.5405 7.7214 69.1387 9.21638C69.7327 10.7005 71.553 12.3529 74.0561 13.6802C76.3215 14.8815 79.0734 15.8375 80.2661 15.8375C80.6029 15.8375 80.6369 15.7699 80.5078 15.3568C80.1036 14.0632 79.2164 12.2695 78.2762 10.8452C76.72 8.48767 74.8627 6.89783 72.9306 6.26951C71.996 5.96557 70.7543 5.87365 70.1581 6.06428ZM135.449 8.42152C135.108 8.53336 134.51 8.86502 134.093 9.17373C133.551 9.57523 132.524 10.6296 132.12 11.1997C131.262 12.4106 131.056 13.2364 131.438 13.9381C131.866 14.7243 133.154 15.4678 133.946 15.3862C134.555 15.3234 135.563 14.716 136.349 13.9382C137.35 12.9478 137.868 11.8484 137.871 10.7035C137.875 9.7034 137.383 8.8323 136.625 8.49754C136.317 8.36118 135.746 8.32422 135.449 8.42152ZM78.5107 19.185C78.4487 19.2012 78.4156 19.2627 78.4156 19.3617C78.4156 19.4757 78.5249 19.6336 78.8542 19.9953C79.374 20.5663 79.5846 20.9578 79.5296 21.251C79.4095 21.8905 78.7914 22.5415 77.4655 23.4249C76.965 23.7584 76.5939 24.0611 76.1896 24.4653C74.4523 26.2027 72.6852 28.7969 72.1419 30.4074C72.0472 30.6883 71.9864 31.0044 71.9696 31.3028C71.9461 31.7217 71.9554 31.781 72.0714 31.949C72.2887 32.2637 72.4485 32.347 72.8896 32.3753C74.0719 32.4511 75.3324 31.8394 76.602 30.5737C77.6992 29.4799 78.6331 28.1102 79.5635 26.2305C80.5953 24.1459 81.5104 21.4266 81.5104 20.4451C81.5104 19.8311 81.3288 19.7136 79.8369 19.3618C78.981 19.16 78.7331 19.1269 78.5107 19.185ZM61.1988 20.629C59.7378 21.2438 56.5331 23.9226 54.3972 26.3146C52.867 28.0283 51.9187 29.4453 51.4584 30.7059C51.2554 31.2618 51.2091 32.1033 51.3659 32.3881C51.5907 32.7968 52.2059 32.9679 52.7556 32.7748C54.2862 32.2371 57.671 29.0677 58.5401 27.3583C58.7875 26.8716 58.7728 26.6169 58.4765 26.2572C58.0812 25.7773 58.0173 25.6721 57.9802 25.44C57.8527 24.6432 58.2428 24.2113 60.4175 22.7419C61.3957 22.0809 61.8083 21.7233 62.0214 21.352C62.2135 21.0172 62.2368 20.7002 62.0756 20.6139C61.8452 20.4907 61.5141 20.4964 61.1988 20.629ZM115.959 20.6132C115.14 20.7956 112.941 22.6111 111.753 24.0857C111.419 24.5011 111.046 25.1614 111.046 25.3378C111.046 25.8467 112.261 25.2427 113.656 24.0399C114.994 22.8867 116.11 21.4938 116.232 20.8238C116.272 20.5995 116.216 20.556 115.959 20.6132ZM18.4359 48.6933C16.6868 49.5683 12.7863 52.6295 10.4302 54.9761C8.33559 57.0622 7.44236 58.4633 7.6143 59.393C7.68157 59.7567 7.77908 59.9223 8.00809 60.0615C8.88292 60.5931 10.5154 59.7249 12.7861 57.52C15.0866 55.2864 17.4799 52.1803 18.56 50.0269C19.0104 49.1287 19.1986 48.4503 18.9973 48.4503C18.9556 48.4503 18.7029 48.5597 18.4359 48.6933Z" fill="#D1D1D1"/>
</g>
<defs>
<clipPath id="clip0_3722_6016">
<rect width="138" height="66" fill="white"/>
</clipPath>
</defs>
</svg>
