<svg width="226" height="48" viewBox="0 0 226 48" fill="none" xmlns="http://www.w3.org/2000/svg">
<g clip-path="url(#clip0_3722_6199)">
<path fill-rule="evenodd" clip-rule="evenodd" d="M23.6457 25.8559C23.6457 33.8238 18.8481 37.1979 10.1824 37.1979C6.65744 37.1976 3.52434 36.7579 0.881401 35.6325C0.29359 35.3888 0 35.0954 0 34.6066C0 34.2147 0.29359 33.2382 0.636638 32.4069C0.929913 31.7209 1.27201 31.5266 1.85983 31.5266C2.20319 31.526 2.93748 31.7719 3.37818 31.9178C5.5316 32.7488 7.68596 33.1894 10.7214 33.1894C15.4214 33.1891 18.7495 31.9666 18.7495 27.1275C18.7495 25.2703 18.3088 23.6565 14.001 21.8968L10.1336 20.3334C6.21674 18.7684 4.3566 16.1793 4.3566 12.3668C4.35692 4.74142 9.20368 1.41797 17.526 1.41797C20.1702 1.41797 22.9114 1.71078 25.1631 2.44391C25.7512 2.63922 25.9957 2.93266 25.9957 3.51923C25.9957 3.81204 25.7997 4.74205 25.5065 5.67049C25.3105 6.2558 24.9186 6.45206 24.4779 6.45206C24.1358 6.45143 23.4009 6.35487 22.8626 6.20768C20.4631 5.57174 18.2111 5.32799 16.4001 5.32799C11.7981 5.32736 9.20368 7.13644 9.20368 11.3399C9.20368 13.539 9.88914 15.1527 13.5118 16.6196L17.0367 18.0365C21.6384 19.5993 23.6454 22.0447 23.6457 25.8559Z" fill="#D1D1D1"/>
<path fill-rule="evenodd" clip-rule="evenodd" d="M35.4472 37.1972C32.5586 37.1972 28.7888 36.5122 28.7888 32.6015C28.7888 31.5262 28.9848 30.1096 29.278 28.644L32.5586 13.393C32.706 12.7564 32.9504 12.317 33.783 12.317L36.1324 12.3167C36.6707 12.3167 36.9653 12.5624 36.9653 13.002C36.9656 13.197 36.9168 13.6864 36.8667 13.9305L33.7332 28.349C33.5373 29.2778 33.3911 30.304 33.3911 31.0865C33.3911 32.9925 35.2025 33.4325 37.3074 33.4325C39.7553 33.4318 41.6161 33.0412 42.7908 32.5528C43.0844 32.4065 43.6233 32.1128 43.9166 31.7718C44.1126 31.4778 44.3573 30.9406 44.5035 30.2065L48.0776 13.4414C48.225 12.7561 48.5681 12.3167 49.3509 12.3167L51.6029 12.3164C52.1419 12.3164 52.484 12.562 52.484 13.0505C52.484 13.2455 52.4351 13.5392 52.3866 13.7349L47.7843 35.4859C47.2951 37.8312 46.8056 39.7375 45.8754 41.546C43.4277 46.2879 38.1888 47.9991 29.2784 47.9991C28.3484 47.9991 28.0063 47.6079 28.0063 46.9225C28.0067 46.385 28.0063 45.9941 28.0552 45.5541C28.104 44.8222 28.3973 44.1372 29.2299 44.1372C37.6022 44.1369 40.2448 42.6228 41.6164 40.4716C42.3019 39.3966 42.7423 38.1259 43.0358 36.7087L43.2806 35.5831C40.9303 36.7569 38.2376 37.1972 35.4475 37.1972H35.4472Z" fill="#D1D1D1"/>
<path fill-rule="evenodd" clip-rule="evenodd" d="M58.8499 36.6572H56.5002C55.9124 36.6572 55.6191 36.3656 55.6191 35.9256C55.6191 35.6797 55.7165 35.1919 55.7663 34.9972L59.634 16.7158C60.0258 15.0055 60.8083 14.2724 61.886 13.7836C64.9702 12.3661 69.0824 11.7305 72.8033 11.7305C75.9367 11.7298 79.3146 12.6589 79.3146 16.0317C79.3146 17.058 79.1675 18.6714 78.8254 20.1868L75.5449 35.5337C75.3977 36.2169 75.1042 36.6575 74.3702 36.6575L72.0199 36.6572C71.4333 36.6572 71.1388 36.3656 71.1388 35.9256C71.1388 35.6797 71.2374 35.1919 71.2862 34.9487L74.3705 20.6265C74.5167 19.8927 74.7614 18.6718 74.7614 17.9386C74.7614 16.1296 73.2932 15.5433 70.9429 15.5433C68.2019 15.5427 66.39 16.1789 65.313 16.6189C65.0197 16.7649 64.579 16.9605 64.236 17.2543C63.9912 17.4983 63.7953 17.9871 63.6491 18.6714L60.0268 35.5337C59.8797 36.2169 59.5861 36.6575 58.8512 36.6572H58.8499Z" fill="#D1D1D1"/>
<path fill-rule="evenodd" clip-rule="evenodd" d="M100.907 22.1919C101.2 21.2144 101.348 20.041 101.348 18.7222C101.348 16.5722 100.369 15.3497 97.0399 15.3497C94.5923 15.3491 92.8783 16.0825 91.605 17.3538C90.43 18.575 89.7934 20.0897 89.2065 22.1922L100.907 22.1919ZM88.2269 28.4485C88.2269 32.262 90.3812 33.4826 94.2001 33.4826C96.5992 33.482 98.0183 33.1908 99.6835 32.7504C100.123 32.6529 100.76 32.4567 101.103 32.4567C101.495 32.4567 101.69 32.7017 101.788 33.0426C101.984 33.6301 102.229 34.4111 102.229 34.8511C102.229 35.3414 101.886 35.7308 101.2 35.9764C98.8024 36.9045 95.864 37.1989 93.0742 37.1989C86.7104 37.1986 83.772 34.0708 83.772 28.8398C83.772 24.1457 85.1435 18.5263 88.7662 14.9585C91.1643 12.6119 94.0045 11.7813 97.7739 11.7813C103.649 11.7809 105.46 14.4213 105.46 18.2338C105.46 19.846 105.314 21.7035 104.774 23.9035C104.578 24.6857 104.432 25.0773 104.04 25.3695C103.796 25.5654 103.355 25.6635 102.866 25.6635H88.4716C88.3255 26.6401 88.2269 27.5692 88.2269 28.4492V28.4485Z" fill="#D1D1D1"/>
<path fill-rule="evenodd" clip-rule="evenodd" d="M118.533 33.4823C120.393 33.4823 121.47 33.3367 123.037 32.9942C123.527 32.8961 124.016 32.702 124.359 32.702C124.849 32.7014 124.996 32.9457 125.093 33.3854C125.241 33.9226 125.485 34.8514 125.485 35.342C125.485 35.8789 124.996 36.1223 124.407 36.3189C122.205 37.0014 119.904 37.1989 117.407 37.1989C112.071 37.1986 108.594 34.5105 108.594 28.8885C108.595 24.3913 110.015 18.4294 113.686 14.8613C115.841 12.7578 118.533 11.7813 122.744 11.7813C124.946 11.7809 126.758 11.9769 128.178 12.4169C128.766 12.6119 128.912 12.9547 128.912 13.3453C128.912 13.6878 128.52 15.0082 128.275 15.5941C128.079 16.0341 127.737 16.181 127.394 16.181C127.003 16.1807 126.415 16.0338 125.975 15.9366C125.044 15.7407 123.87 15.5941 122.156 15.5941C119.17 15.5938 117.603 16.5722 116.33 17.891C114.127 20.286 113.197 24.686 113.197 27.9601C113.197 31.4795 114.763 33.4829 118.533 33.4823Z" fill="#D1D1D1"/>
<path fill-rule="evenodd" clip-rule="evenodd" d="M133.369 36.6583H131.02C130.383 36.6583 130.088 36.3668 130.088 35.9268C130.088 35.6808 130.187 35.2418 130.235 35.0471L137.432 1.22283C137.58 0.440318 137.971 0.000314513 138.707 0.000314513L140.908 0C141.544 0 141.838 0.294384 141.838 0.782822C141.838 0.929385 141.838 1.12438 141.789 1.41845L139.097 13.9307C141.153 12.3673 144.53 11.7804 147.516 11.7804C150.454 11.7801 153.882 12.5629 153.882 15.9357C153.882 17.0114 153.737 18.477 153.394 19.8454L150.063 35.5349C149.918 36.218 149.672 36.6586 148.84 36.6586L146.538 36.6583C145.902 36.6583 145.657 36.3668 145.657 35.9268C145.657 35.7296 145.706 35.3412 145.754 35.0471L148.889 20.6276C149.037 19.8939 149.231 18.5745 149.231 17.8901C149.231 16.0813 147.762 15.5932 145.46 15.5932C142.868 15.5929 140.812 16.1801 139.831 16.7173C139.44 16.8635 139.05 17.011 138.756 17.3526C138.462 17.6454 138.217 18.0854 138.02 19.0626L134.544 35.5346C134.398 36.2177 134.153 36.6583 133.37 36.658L133.369 36.6583Z" fill="#D1D1D1"/>
<path fill-rule="evenodd" clip-rule="evenodd" d="M161.423 36.6589H159.024C158.437 36.6589 158.191 36.3673 158.191 35.9273C158.192 35.6333 158.288 35.1936 158.34 34.9505L162.159 17.06C162.501 15.4966 162.94 14.8122 163.921 14.0297C165.39 12.8563 168.867 11.7813 172.782 11.7813C173.809 11.7809 174.838 11.83 175.426 11.9769C175.817 12.1234 175.962 12.4169 175.962 12.9053C175.962 13.2475 175.817 14.4697 175.523 15.1053C175.378 15.5447 174.984 15.741 174.497 15.741C174.054 15.7403 172.879 15.6922 172.292 15.6922C170.578 15.6922 168.618 15.9853 167.741 16.4738C167.347 16.6688 166.86 17.0119 166.662 17.3535C166.465 17.6463 166.32 18.136 166.172 18.8204L162.598 35.5358C162.453 36.2189 162.16 36.6595 161.423 36.6592L161.423 36.6589Z" fill="#D1D1D1"/>
<path fill-rule="evenodd" clip-rule="evenodd" d="M205.538 36.6572H203.188C202.6 36.6572 202.306 36.3656 202.306 35.9256C202.306 35.6797 202.403 35.1919 202.455 34.9972L206.322 16.7158C206.713 15.0055 207.497 14.2724 208.572 13.7836C211.658 12.3661 215.77 11.7305 219.489 11.7305C222.623 11.7298 226 12.6589 226 16.0317C226 17.058 225.855 18.6714 225.512 20.1868L222.233 35.5337C222.084 36.2169 221.79 36.6575 221.058 36.6575L218.708 36.6572C218.12 36.6572 217.826 36.3656 217.826 35.9256C217.826 35.6797 217.923 35.1919 217.972 34.9487L221.058 20.6265C221.203 19.8927 221.448 18.6718 221.448 17.9386C221.449 16.1296 219.98 15.5433 217.63 15.5433C214.889 15.5427 213.078 16.1789 212 16.6189C211.706 16.7649 211.264 16.9605 210.922 17.2543C210.676 17.4983 210.483 17.9871 210.334 18.6714L206.713 35.5337C206.564 36.2169 206.273 36.6575 205.538 36.6572Z" fill="#D1D1D1"/>
<path fill-rule="evenodd" clip-rule="evenodd" d="M194.472 22.3689C194.057 22.685 193.953 22.8684 193.919 23.086C193.532 25.7455 192.744 29.1687 191.603 30.9771C190.332 33.0306 188.179 33.6656 185.777 33.6656C184.042 33.665 182.756 33.4319 181.885 32.7702C181.588 32.5425 181.194 32.488 180.893 32.7158L178.602 34.4629C178.136 34.8186 178.167 35.5212 178.647 35.8565C180.351 37.0406 182.729 37.3816 185.435 37.3816C189.499 37.3812 192.73 36.354 194.786 33.5193C197.095 30.3924 198.256 24.724 198.567 21.0266C198.629 20.2916 197.797 19.8352 197.209 20.2824L194.472 22.3692V22.3689Z" fill="#D1D1D1"/>
<path fill-rule="evenodd" clip-rule="evenodd" d="M180.123 28.2937C180.461 28.0305 180.537 27.9012 180.551 27.7446C180.779 24.9725 181.681 20.1362 183.478 17.9274C184.702 16.3636 186.561 15.7274 188.714 15.7274C190.857 15.727 192.485 16.0044 193.39 17.1524C193.673 17.5088 194.188 17.5707 194.548 17.2952L196.953 15.4616C197.354 15.1575 197.395 14.5772 197.063 14.202C195.36 12.2834 192.456 11.9648 189.156 11.9648C185.776 11.9642 182.583 12.7414 180.392 15.2389C177.306 18.758 176.324 24.3164 176.145 29.5955C176.121 30.3163 176.936 30.7482 177.51 30.3075L180.123 28.294V28.2937Z" fill="#D1D1D1"/>
<path fill-rule="evenodd" clip-rule="evenodd" d="M190.079 24.6355C190.079 25.929 189.028 26.9776 187.736 26.9776C186.44 26.9776 185.389 25.929 185.389 24.6355C185.389 23.3412 186.44 22.293 187.736 22.293C189.028 22.2923 190.079 23.3416 190.079 24.6355Z" fill="#D1D1D1"/>
</g>
<defs>
<clipPath id="clip0_3722_6199">
<rect width="226" height="48" fill="white"/>
</clipPath>
</defs>
</svg>
