<svg width="335" height="48" viewBox="0 0 335 48" fill="none" xmlns="http://www.w3.org/2000/svg">
<g clip-path="url(#clip0_3722_6146)">
<path d="M314.938 43.8923C314 43.8923 313.01 43.6321 311.864 43.112L310.509 46.9598C312.072 47.74 313.584 48 315.251 48C319.524 48 321.921 45.8681 323.64 41.0321L335 9.7255H329.998L322.546 31.2546L314.938 9.7255H309.675L319.993 37.5474L319.263 39.4718C318.065 42.592 317.179 43.8923 314.938 43.8923ZM296.857 13.0013C300.348 13.0013 302.901 15.3933 303.318 20.9579H290.083C290.656 15.3417 293.313 13.0013 296.857 13.0013ZM307.852 31.307L304.1 29.1227C302.38 32.243 300.14 33.699 297.17 33.699C293.209 33.699 290.291 30.9946 289.979 24.5982H308.164V22.8306C308.164 13.9374 303.631 9.20541 296.909 9.20541C289.874 9.20541 284.976 14.1459 284.976 23.3506C284.976 32.7114 289.874 37.4433 297.065 37.4433C302.329 37.4433 305.455 35.2589 307.852 31.307ZM280.912 33.023C279.14 33.023 278.359 32.2947 278.359 30.4745V0.469048H273.357V31.0988C273.357 34.8432 275.388 37.0276 279.818 37.0276C280.756 37.0276 281.746 36.9233 282.684 36.6633V32.8672C282.059 32.9714 281.485 33.023 280.912 33.023ZM245.74 36.8716H250.794V16.4858C252.931 14.1974 255.223 13.0532 257.621 13.0532C260.07 13.0532 261.841 14.5616 261.841 17.526V36.8716H266.896V17.7336C266.896 12.1174 263.769 9.15287 258.923 9.15287C256.057 9.15287 253.296 10.1412 250.794 12.5331V9.7255H245.74V36.8716ZM222.708 29.7986C222.708 27.2509 224.167 25.4307 228.857 24.234L233.755 23.0381V30.8912C231.722 32.6071 229.429 33.8031 227.085 33.8031C224.115 33.8031 222.708 31.9313 222.708 29.7986ZM226.199 37.3918C228.908 37.3918 231.774 36.039 234.067 34.1146C234.797 36.0916 236.517 37.0276 239.278 37.0276C239.956 37.0276 240.633 36.8716 241.258 36.715V33.1272C240.946 33.1788 240.633 33.1788 240.32 33.1788C239.174 33.1788 238.653 32.6588 238.653 31.5146V17.786C238.653 12.5856 235.318 9.15287 229.273 9.15287C224.688 9.15287 220.519 11.3373 217.758 14.77L220.936 17.4735C223.333 14.6658 226.095 13.1573 228.7 13.1573C232.713 13.1573 233.755 15.4459 233.755 18.1502V19.3462L228.335 20.5937C220.415 22.4139 217.758 25.7425 217.758 29.9545C217.758 33.855 220.415 37.3918 226.199 37.3918ZM212.547 33.1788C210.462 33.1788 209.525 32.3471 209.525 30.4229V13.5733H214.631V9.7255H209.525V2.23647H204.522V9.7255H200.041V13.5733H204.522V31.2029C204.522 34.9989 206.659 37.0276 211.505 37.0276C212.495 37.0276 213.485 36.8716 214.631 36.6633V33.0746C213.798 33.1788 213.381 33.1788 212.547 33.1788ZM185.92 37.3393C192.695 37.3393 198.374 33.6471 198.374 27.1467C198.374 20.5937 193.944 18.5136 186.337 16.0176C181.752 14.51 178.208 13.2613 178.208 9.67296C178.208 5.87674 181.178 4.26493 184.826 4.26493C188.682 4.26493 191.809 6.44936 193.476 10.0371L197.592 7.9052C195.143 2.49651 190.245 0.000499725 184.826 0.000499725C178.417 0.000499725 173.049 3.64077 173.049 10.0371C173.049 16.0701 177.426 18.4619 184.357 20.6463C189.359 22.2063 193.163 23.5065 193.163 27.5109C193.163 31.4112 189.828 33.0746 185.92 33.0746C181.491 33.0746 177.895 30.9429 176.02 27.1467L171.955 29.5386C174.508 34.5832 179.771 37.3393 185.92 37.3393ZM138.242 36.8716H143.297V16.4858C145.433 14.1974 147.726 13.0532 150.123 13.0532C152.572 13.0532 154.344 14.5616 154.344 17.526V36.8716H159.399V17.7336C159.399 12.1174 156.272 9.15287 151.425 9.15287C148.559 9.15287 145.798 10.1412 143.297 12.5331V9.7255H138.242V36.8716ZM115.21 29.7986C115.21 27.2509 116.67 25.4307 121.359 24.234L126.257 23.0381V30.8912C124.225 32.6071 121.932 33.8031 119.587 33.8031C116.617 33.8031 115.21 31.9313 115.21 29.7986ZM118.701 37.3918C121.411 37.3918 124.277 36.039 126.57 34.1146C127.299 36.0916 129.019 37.0276 131.781 37.0276C132.458 37.0276 133.135 36.8716 133.761 36.715V33.1272C133.448 33.1788 133.135 33.1788 132.823 33.1788C131.677 33.1788 131.156 32.6588 131.156 31.5146V17.786C131.156 12.5856 127.82 9.15287 121.776 9.15287C117.191 9.15287 113.022 11.3373 110.26 14.77L113.439 17.4735C115.835 14.6658 118.597 13.1573 121.202 13.1573C125.215 13.1573 126.257 15.4459 126.257 18.1502V19.3462L120.838 20.5937C112.918 22.4139 110.26 25.7425 110.26 29.9545C110.26 33.855 112.918 37.3918 118.701 37.3918ZM87.2284 23.3506C87.2284 15.8617 90.3548 13.0532 94.0024 13.0532C96.5561 13.0532 98.2227 13.9899 100.412 15.9134V30.787C98.2227 32.6588 96.5034 33.5431 94.0024 33.5948C90.3548 33.5948 87.2284 30.787 87.2284 23.3506ZM93.2727 37.3393C96.2429 37.3393 98.3797 36.195 100.412 34.4791V36.455C100.412 41.0836 98.7965 43.8923 93.5329 43.8923C90.5634 43.8923 87.9581 42.7994 85.7169 41.3436L83.6851 45.2439C85.8212 46.6482 89.8853 48 93.7935 48C100.985 48 105.518 43.8923 105.518 37.1833V9.7255H100.568V11.9615C98.536 10.2971 96.3991 9.20541 93.377 9.20541C87.4889 9.20541 82.2263 13.2098 82.2263 23.2981C82.2263 33.4389 87.4889 37.3393 93.2727 37.3393ZM67.3754 36.8716H72.3775V18.5661C74.9312 14.6132 77.2759 13.5214 79.6726 13.5214C80.2981 13.5214 80.8718 13.5733 81.2883 13.7299V9.10099C80.9235 8.99691 80.3507 8.89283 79.6726 8.89283C77.1716 8.89283 74.3054 10.7128 72.3775 14.0934V9.7255H67.3754V36.8716ZM43.1975 23.3506C43.1975 16.226 46.115 13.0013 50.1795 13.0013C54.2965 13.0013 57.1624 16.226 57.1624 23.3506C57.1624 30.4745 54.2965 33.6471 50.1795 33.6471C46.115 33.6471 43.1975 30.4745 43.1975 23.3506ZM50.1795 9.20541C42.9369 9.20541 38.1945 14.25 38.1945 23.3506C38.1945 32.4513 42.9369 37.4433 50.1795 37.4433C57.423 37.4433 62.1645 32.4513 62.1645 23.3506C62.1645 14.25 57.423 9.20541 50.1795 9.20541ZM0 36.8716H4.7934L4.74152 4.52498L14.3816 36.8716H18.1335L27.7736 4.62906V36.8716H32.8801V0.469048H24.4385L16.4142 27.7184L8.44094 0.469048H0V36.8716Z" fill="#D1D1D1"/>
</g>
<defs>
<clipPath id="clip0_3722_6146">
<rect width="335" height="48" fill="white"/>
</clipPath>
</defs>
</svg>
