<svg width="293" height="65" viewBox="0 0 293 65" fill="none" xmlns="http://www.w3.org/2000/svg">
<g clip-path="url(#clip0_3621_5425)">
<path d="M158.917 41.0446H158.68V41.2756H153.936C153.86 40.9525 153.88 40.6238 153.88 40.2963C153.88 34.1042 153.88 27.9126 153.88 21.7205V21.5079H153.677V21.2729H136.904V21.4811C136.875 21.5095 136.861 21.5235 136.839 21.5448H136.654V39.1004C136.654 39.5076 136.659 39.9144 136.653 40.3215C136.648 40.7163 136.691 41.1131 136.595 41.5154H136.455V41.3277H136.128V41.0518H135.646C135.642 40.9689 135.638 40.8929 135.634 40.8172C135.476 40.7976 135.321 40.7788 135.162 40.7587C135.141 40.6218 135.12 40.4829 135.097 40.3315C135.04 40.2911 134.93 40.3712 134.868 40.2567V40.0961C134.707 40.0749 134.552 40.0545 134.383 40.0321V39.5773C134.214 39.5556 134.059 39.5364 133.898 39.5156V39.0868H133.611V38.8041H133.365V38.3285H133.126V38.0859H132.877C132.877 38.0214 132.873 37.9634 132.877 37.9061C132.891 37.7292 132.862 37.5558 132.82 37.3692C132.692 37.3508 132.546 37.3296 132.387 37.3068C132.413 36.9629 132.318 36.6201 132.348 36.271C132.352 36.2254 132.348 36.1793 132.348 36.1265H132.172C132.151 36.1053 132.136 36.0913 132.108 36.0628V35.8815H131.93C131.862 35.8426 131.859 35.793 131.86 35.7369C131.862 35.3634 131.861 34.9895 131.861 34.6159V34.1223H131.622V0.771372H131.859V0.535156H136.363C136.366 0.589206 136.371 0.652464 136.376 0.722127H136.588C136.614 0.748151 136.633 0.766968 136.66 0.792992V1.00719H136.851V16.0521C137.031 16.069 137.205 16.0998 137.38 16.0998C142.573 16.1022 147.766 16.1022 152.959 16.1014C153.264 16.1014 153.57 16.1202 153.878 16.0429V0.768169C153.97 0.768169 154.074 0.797796 154.139 0.760963C154.233 0.706913 154.321 0.739743 154.41 0.730135C154.497 0.720526 154.586 0.728133 154.674 0.728133H157.964C158.12 0.728133 158.276 0.722127 158.431 0.729734C158.574 0.736941 158.717 0.758961 158.862 0.774575C158.88 0.890681 158.906 1.00919 158.915 1.1289C158.924 1.24821 158.917 1.36912 158.917 1.48923V41.0446H158.917Z" fill="#EAEAEA"/>
<path d="M174.443 5.74582C173.856 5.65214 173.285 5.69698 172.716 5.69578C170.272 5.69057 167.828 5.69378 165.384 5.69378H165.177V5.45556H164.686V5.24457C164.686 3.99022 164.687 2.73587 164.685 1.48152C164.685 1.39304 164.708 1.30296 164.65 1.21528C164.625 1.17765 164.627 1.10078 164.65 1.05994C164.702 0.968655 164.674 0.870566 164.694 0.767671C165.024 0.797699 165.345 0.725633 165.672 0.725633C173.194 0.730437 180.716 0.729236 188.238 0.729236H188.446V0.539062H188.692V0.710419C188.933 0.758063 189.168 0.78809 189.421 0.763268C189.418 0.942231 189.473 1.10718 189.472 1.28374C189.466 2.60495 189.469 3.92576 189.469 5.24697V5.45035H188.984V5.69257H179.715C179.737 5.8351 179.692 5.96442 179.681 6.09734C179.669 6.23667 179.678 6.3772 179.678 6.51733V41.2803C179.601 41.2835 179.524 41.2871 179.439 41.2907V41.5177H179.193V41.3392C179.032 41.3179 178.877 41.2975 178.708 41.2747V41.0493H178.229C178.208 40.8908 178.187 40.7386 178.164 40.5713H177.692V40.0988C177.531 40.0776 177.377 40.0568 177.205 40.034C177.204 39.9691 177.201 39.8918 177.2 39.8146C177.2 39.7353 177.2 39.6564 177.2 39.5703H176.727C176.704 39.407 176.682 39.2493 176.659 39.0851H176.435V38.6175C176.27 38.5955 176.11 38.5742 175.943 38.5518V37.8508H175.724C175.699 37.8248 175.681 37.8055 175.654 37.7775V37.6058H175.461C175.455 37.3527 175.375 37.1113 175.427 36.8483C175.349 36.8447 175.284 36.8415 175.221 36.8382C175.2 36.6809 175.179 36.5288 175.158 36.3686H174.951C174.941 36.3574 174.935 36.353 174.932 36.3474C174.929 36.3422 174.926 36.3358 174.926 36.3302C174.926 35.9366 174.926 35.5427 174.925 35.1491C174.925 35.1435 174.92 35.1379 174.914 35.1255H174.748C174.722 35.0995 174.703 35.0806 174.683 35.061V34.1274C174.646 34.1246 174.608 34.121 174.571 34.1198C174.531 34.1186 174.491 34.1198 174.445 34.1198V5.74582H174.443Z" fill="#EAEAEA"/>
<path d="M200.238 0.760695V35.8344H200.473V36.3204H200.687C204.465 36.3204 208.243 36.3188 212.021 36.3224C212.597 36.3228 213.174 36.282 213.762 36.3745V36.5955H214V41.0419H213.724V41.2777H195.488C195.484 41.2101 195.48 41.134 195.475 41.0507H195.246V8.29879H195.44V8.11862C195.44 7.84517 195.451 7.57092 195.437 7.29787C195.425 7.07327 195.492 6.85747 195.483 6.63367C195.473 6.40706 195.481 6.18005 195.481 5.93903C195.557 5.93543 195.635 5.93142 195.719 5.92742V5.45579H195.966V4.51373C195.987 4.49251 196.001 4.47849 196.023 4.45728H196.206C196.209 4.38801 196.213 4.32475 196.215 4.2675C196.236 4.24748 196.25 4.23347 196.271 4.21225H196.449V3.4964H196.735V3.25377H196.93C196.952 3.07361 196.972 2.90826 196.993 2.7357H197.223V2.49308H197.469V2.25046H197.708V1.78243C197.874 1.76041 198.034 1.73919 198.191 1.71837C198.211 1.57904 198.231 1.44012 198.252 1.29558C198.405 1.27597 198.559 1.25595 198.729 1.23393V0.768703H199.212V0.533288H199.436C199.465 0.504862 199.479 0.490849 199.501 0.469629V0.294669H199.698C199.702 0.211794 199.706 0.135724 199.71 0.0628575C199.728 0.0452414 199.742 0.0312285 199.774 0C199.899 0.0168154 200.039 0.0352322 200.186 0.0548501C200.206 0.205388 200.226 0.357527 200.249 0.52528H200.473V0.761096H200.238V0.760695Z" fill="#EAEAEA"/>
<path d="M116.862 11.6608H117.108V11.8562H117.292L117.357 11.9198V12.3742H117.839V12.8571H118.086V13.0997H118.322C118.343 13.2718 118.363 13.4372 118.385 13.6178H118.614V13.854H118.83C118.843 13.866 118.849 13.8696 118.853 13.8748C118.856 13.8796 118.86 13.886 118.86 13.8916C118.86 14.1174 118.86 14.3432 118.86 14.5762H119.098V14.8589H119.338C119.345 14.9418 119.33 15.0307 119.365 15.0915C119.411 15.1728 119.358 15.2493 119.407 15.3377C119.451 15.3401 119.515 15.3437 119.586 15.3477V15.799L119.644 15.8562H119.822C119.844 16.0196 119.865 16.1769 119.887 16.3411H120.079C120.079 16.4055 120.086 16.4648 120.078 16.5212C120.051 16.6934 120.126 16.8551 120.121 17.0253C120.115 17.1918 120.119 17.3588 120.119 17.5389C120.183 17.5426 120.247 17.5458 120.306 17.5494C120.325 17.5682 120.34 17.5822 120.361 17.6034V17.818H120.584C120.618 17.9994 120.631 24.5133 120.6 25.226H120.368V25.7088H120.119C120.119 25.9402 120.151 26.17 120.112 26.3882C120.051 26.7314 120.106 27.0729 120.071 27.428C120.016 27.4316 119.952 27.4356 119.888 27.4392C119.868 27.6078 119.847 27.7731 119.825 27.9533H119.638C119.622 28.1206 119.6 28.274 119.592 28.4281C119.585 28.5866 119.591 28.746 119.591 28.9117H119.412C119.386 28.9378 119.367 28.9566 119.348 28.9754C119.348 29.2821 119.348 29.5892 119.348 29.9099C119.271 29.9135 119.194 29.9175 119.117 29.9211C119.097 30.0768 119.078 30.229 119.056 30.3955H118.86V30.5869C118.86 30.727 118.866 30.8675 118.858 31.0073C118.85 31.1346 118.825 31.2607 118.807 31.3944H118.64C118.614 31.4204 118.595 31.4393 118.576 31.4581C118.576 31.5113 118.576 31.5646 118.576 31.6318C118.512 31.6354 118.448 31.6394 118.39 31.643C118.285 31.7147 118.355 31.8196 118.327 31.9033C118.182 31.9733 118.048 31.8444 117.906 31.8825C117.843 31.6767 117.842 31.4701 117.844 31.2619C117.846 30.7082 117.844 30.1545 117.844 29.6008V29.4382H117.608V28.4429C117.524 28.4389 117.447 28.4353 117.357 28.4309V27.2522C117.357 27.1189 117.363 26.9848 117.355 26.8519C117.347 26.731 117.322 26.6112 117.303 26.4755H117.114V26.2593C117.052 26.1564 116.96 26.2093 116.869 26.1853C116.869 26.1332 116.867 26.0752 116.869 26.0171C116.881 25.7677 116.809 25.5242 116.825 25.2728C116.841 25.027 116.828 24.7792 116.828 24.5185C116.765 24.5145 116.702 24.5105 116.642 24.5069C116.538 24.4357 116.608 24.3308 116.575 24.2327H116.4C116.307 23.8291 116.353 23.4335 116.338 23.034H116.1V22.5111H115.861V22.0363C115.777 22.0323 115.699 22.0283 115.615 22.0242V21.5738L115.55 21.5102H115.378C115.356 21.3436 115.335 21.1915 115.314 21.0321H115.141C115.093 20.7947 115.062 20.5633 115.087 20.3143C115.005 20.3103 114.927 20.3067 114.843 20.3027V20.0312H114.596V19.5548H114.359C114.354 19.4723 114.349 19.3962 114.344 19.313H114.106C114.106 19.2553 114.1 19.2037 114.107 19.154C114.133 18.963 114.052 18.7829 114.065 18.5963C113.913 18.5747 113.772 18.5543 113.63 18.5339C113.61 18.3861 113.589 18.234 113.567 18.0734H113.343C113.338 17.991 113.334 17.9145 113.329 17.8316H113.096V17.3576C112.927 17.3352 112.773 17.3151 112.614 17.2939C112.594 17.147 112.574 16.9952 112.551 16.8279H112.321V16.5917H111.836C111.834 16.508 111.832 16.4311 111.831 16.3539C111.831 16.2746 111.831 16.1957 111.831 16.1096H111.349V15.867H111.12C111.063 15.7773 111.155 15.6572 111.033 15.582H110.577V15.3465H110.331V15.1103H109.849C109.845 15.0279 109.84 14.9514 109.835 14.8685H109.602V14.6335C109.337 14.6239 109.087 14.6123 108.832 14.5658V14.3889C108.762 14.3849 108.698 14.3813 108.638 14.3781C108.619 14.3596 108.605 14.3456 108.584 14.3244V14.1094H107.859C107.854 14.0269 107.85 13.9505 107.845 13.8676H107.083V13.625H106.615C106.593 13.6037 106.579 13.5897 106.558 13.5685V13.398C106.534 13.3916 106.516 13.3819 106.498 13.3819C105.212 13.3811 103.926 13.3811 102.639 13.3815C102.62 13.3815 102.601 13.3843 102.575 13.3864V13.6178H102.044V13.8604H101.31V14.0958H100.828V14.3384H100.582V14.5706C100.413 14.5927 100.258 14.6127 100.1 14.6331C100.08 14.7688 100.06 14.9077 100.038 15.0567C99.8926 15.0755 99.7383 15.0955 99.568 15.1175V15.58H99.0781V16.1028H98.7982V16.2974C98.7279 16.3014 98.6637 16.3054 98.6052 16.3086C98.5004 16.3803 98.5707 16.4856 98.5378 16.5833H98.357C98.3444 16.6738 98.333 16.7498 98.3228 16.8259C98.3127 16.902 98.3033 16.978 98.2928 17.0613H98.062V17.5842H97.8231V18.2996C97.7395 18.3036 97.6619 18.3068 97.577 18.3109V18.5427H97.3308V19.2393C97.2682 19.3402 97.1796 19.2982 97.1045 19.3066L97.0439 19.2469V17.9293C97.1183 17.6643 97.0695 17.3932 97.0882 17.1114C97.1475 17.1078 97.2117 17.1041 97.2771 17.1001C97.2942 16.9372 97.3182 16.7779 97.3263 16.6177C97.3348 16.452 97.3283 16.2854 97.3283 16.118C97.4035 16.0716 97.5156 16.1569 97.5741 16.0156V15.3469H97.813V14.8241H98.0592C98.0592 14.7528 98.0669 14.6867 98.0576 14.6231C98.0324 14.4513 98.1165 14.29 98.099 14.1058H98.2908C98.3131 13.9393 98.3334 13.7875 98.3549 13.6278H98.5239C98.5845 13.5389 98.4935 13.4188 98.6105 13.3427H98.8242V13.1077C98.9083 13.1041 98.9859 13.1005 99.0704 13.0969V12.3842H99.5603V11.913C99.7216 11.8918 99.8756 11.8714 100.039 11.8497C100.059 11.7028 100.081 11.5451 100.104 11.3809H100.571V10.9045C100.656 10.9029 100.735 10.9005 100.814 10.8997C100.894 10.8989 100.974 10.8997 101.061 10.8997V10.6631H101.308V10.4417C101.329 10.4204 101.343 10.4064 101.365 10.3852H101.59V10.1826H101.774C101.795 10.1614 101.809 10.1474 101.831 10.1262V9.95241C101.997 9.93039 102.156 9.90957 102.323 9.88755V9.66655H102.8C102.822 9.5032 102.843 9.34586 102.865 9.18171H103.826V8.89905H104.065V8.72209C104.083 8.71128 104.094 8.69886 104.105 8.69846C104.587 8.68405 105.068 8.67084 105.55 8.65723C105.555 8.65723 105.561 8.65042 105.573 8.64201V8.42501H106.055C106.06 8.34254 106.064 8.26607 106.069 8.18359H110.324V8.4134H110.793C110.819 8.43943 110.838 8.45824 110.857 8.47706C110.857 8.53031 110.857 8.58356 110.857 8.63721C110.868 8.64401 110.879 8.65723 110.889 8.65683C111.385 8.63401 111.878 8.72729 112.375 8.69806C112.434 8.69446 112.494 8.69766 112.561 8.69766V8.87503C112.582 8.89625 112.596 8.91026 112.618 8.93148H112.842C112.845 9.00074 112.848 9.064 112.851 9.11885C113.17 9.19972 113.49 9.1729 113.815 9.1785V9.41112C113.899 9.41512 113.976 9.41872 114.061 9.42233V9.65414H114.592V9.88875C114.676 9.89636 114.765 9.88235 114.828 9.91638C114.91 9.96082 114.988 9.91037 115.077 9.95681C115.079 10.0017 115.083 10.0649 115.085 10.1218C115.105 10.1418 115.12 10.1562 115.142 10.1774H115.359V10.3656C115.525 10.3872 115.684 10.4084 115.851 10.4304V10.6514H116.089C116.094 10.7339 116.098 10.8104 116.103 10.8933H116.336V11.1359H116.583V11.3785H116.862V11.6612V11.6608Z" fill="#F2F2F2"/>
<path d="M107.374 23.9951C107.351 23.8081 107.332 23.6423 107.31 23.4698H107.119C107.139 23.3076 107.062 23.1643 107.076 23.005C107.09 22.8464 107.079 22.6855 107.079 22.5113H106.612C106.599 22.4921 106.592 22.4865 106.592 22.4817C106.601 22.2395 106.588 21.9988 106.534 21.753H106.355C106.351 21.6837 106.347 21.6201 106.344 21.5504H106.129L106.064 21.4864V21.0303C105.987 21.0287 105.908 21.0267 105.83 21.0259C105.75 21.0251 105.67 21.0259 105.582 21.0259V20.5591C105.416 20.5367 105.256 20.5151 105.09 20.4927V20.3309C105.028 20.2296 104.937 20.2789 104.86 20.262C104.814 20.1932 104.894 20.0847 104.771 20.0246H104.567V19.8481C104.324 19.7708 104.079 19.7836 103.83 19.7864V19.5514H103.592V19.3088H102.817V19.0261H102.578V18.8375C102.412 18.8159 102.252 18.7947 102.088 18.7731V18.5897C102.283 18.5873 102.473 18.5281 102.673 18.5409C102.875 18.5541 103.079 18.5437 103.281 18.5437C103.301 18.5633 103.32 18.5821 103.347 18.6081V18.7839C103.569 18.7839 103.785 18.7787 104 18.7855C104.218 18.7923 104.436 18.8159 104.654 18.8227C104.876 18.8295 105.098 18.8243 105.328 18.8243V19.0609H105.574V19.2972H106.584C106.588 19.3796 106.593 19.4557 106.597 19.539H107.075V19.7816H107.565V20.0242H107.785C107.887 20.0851 107.839 20.1748 107.855 20.2536C108.008 20.2741 108.162 20.2945 108.332 20.3169C108.336 20.3673 108.34 20.4306 108.345 20.5003H108.578V20.7829H108.865V21.0255H109.301C109.323 21.1845 109.344 21.3366 109.366 21.5036H109.84V21.9744C110.001 21.9956 110.155 22.0161 110.325 22.0389V22.5045H110.817C110.817 22.569 110.825 22.6282 110.816 22.6847C110.788 22.8632 110.875 23.0318 110.857 23.2228H111.098V23.4486C111.175 23.4998 111.285 23.4205 111.346 23.541V23.9835H111.585V24.2661H111.833C111.833 24.3306 111.841 24.3898 111.832 24.4463C111.802 24.6252 111.895 24.793 111.87 24.9836C111.937 24.9872 112.001 24.9904 112.065 24.9936C112.086 25.1505 112.107 25.3027 112.129 25.4628H112.302C112.352 25.7178 112.38 25.9677 112.355 26.2279H112.567C112.534 26.3913 112.621 26.5338 112.608 26.6923C112.595 26.8513 112.605 27.0122 112.605 27.1864H112.844V27.469H113.088V32.629H112.853C112.852 32.7126 112.849 32.7899 112.849 32.8672C112.848 32.9464 112.849 33.0253 112.849 33.1114H112.605C112.605 33.169 112.6 33.2203 112.606 33.2707C112.626 33.4741 112.568 33.6699 112.554 33.8769H112.371C112.35 34.0491 112.33 34.2144 112.307 34.395H112.126C112.104 34.5611 112.084 34.7133 112.063 34.873H111.884C111.862 35.0308 111.841 35.1829 111.818 35.3514C111.757 35.355 111.68 35.3591 111.596 35.3639V35.8339H111.349V36.2955C111.323 36.3215 111.304 36.3403 111.285 36.3592C111.15 36.3592 111.014 36.3592 110.863 36.3592C110.862 36.4356 110.859 36.5133 110.858 36.591C110.857 36.6698 110.858 36.7491 110.858 36.8348H110.578V37.0774H110.394C110.372 37.0986 110.358 37.1127 110.336 37.1339V37.7877C110.236 37.8001 110.142 37.8113 110.021 37.8265C109.989 37.8193 109.927 37.8053 109.848 37.7877V38.0767H109.602V38.3194H109.362V38.554C109.279 38.5584 109.201 38.5628 109.117 38.5672V38.7766L109.045 38.8474C108.976 38.8214 108.895 38.7485 108.823 38.8815V39.0805H108.59V39.3151C108.506 39.3195 108.429 39.3235 108.344 39.3279V39.5589H107.814V39.8015H107.568V40.0437C107.495 40.0437 107.428 40.0517 107.363 40.0421C107.189 40.0169 107.026 40.1014 106.839 40.0822V40.282H106.599V40.5354C106.587 40.5482 106.584 40.5538 106.578 40.5574C106.573 40.5606 106.567 40.5638 106.56 40.5638C106.331 40.5638 106.102 40.5638 105.866 40.5638V40.7388C105.839 40.7648 105.82 40.7836 105.8 40.8032H105.585C105.58 40.8657 105.575 40.9281 105.569 41.0074C105.41 40.9722 105.266 41.0603 105.104 41.0471C104.944 41.0338 104.781 41.0442 104.604 41.0442V41.2829H104.081V41.5219C103.962 41.5275 103.849 41.5203 103.737 41.5255C103.432 41.5399 103.128 41.5575 102.816 41.5743V41.7649C102.751 41.7649 102.692 41.7629 102.633 41.7649C102.199 41.7809 101.765 41.7973 101.316 41.8146C101.313 41.8682 101.31 41.9315 101.306 41.9995H97.3319V41.8049C97.1024 41.8049 96.8866 41.8101 96.6713 41.8033C96.4532 41.7965 96.2358 41.7729 96.0177 41.7661C95.7954 41.7593 95.5728 41.7645 95.3433 41.7645V41.5643C95.2848 41.5643 95.2328 41.5663 95.1812 41.5643C94.8212 41.5475 94.4617 41.5295 94.0859 41.5111C94.0822 41.4634 94.0774 41.4006 94.0729 41.3409C94.04 41.2825 93.9876 41.2833 93.9319 41.2837C93.648 41.2853 93.364 41.2845 93.0658 41.2845V41.0458H92.0546V40.8088C91.9697 40.8072 91.8913 40.8048 91.8125 40.804C91.732 40.8032 91.652 40.804 91.5647 40.804V40.5638H91.1791C91.0097 40.5638 90.8407 40.5662 90.6713 40.5622C90.6295 40.5614 90.588 40.5402 90.5441 40.5278V40.3416C90.4706 40.2924 90.3723 40.368 90.3028 40.2571V40.0734C89.9583 40.0589 89.6276 40.0453 89.2941 40.0313C89.2522 39.8003 89.3099 39.5701 89.3351 39.3227C89.3875 39.3227 89.4468 39.3203 89.5057 39.3231C89.9278 39.3443 90.3455 39.243 90.7818 39.2914C90.7855 39.2194 90.7883 39.1561 90.792 39.0825C91.0731 39.0825 91.3497 39.0708 91.6252 39.0861C91.8669 39.0997 92.1001 39.0352 92.3398 39.0412C92.5758 39.0472 92.8123 39.0424 93.0556 39.0424V38.8619C93.3006 38.8098 93.5411 38.7886 93.7918 38.8042V38.6012C94.0034 38.6228 94.198 38.5444 94.4056 38.5588C94.6144 38.5728 94.8253 38.562 95.0349 38.562H95.2925V38.3254H95.8231V38.0815H96.22C96.3622 38.0815 96.5048 38.0879 96.6465 38.0795C96.7757 38.0719 96.9037 38.0483 97.0398 38.0303V37.8557C97.2145 37.8345 97.3823 37.8141 97.5655 37.7921C97.5692 37.7396 97.5736 37.6768 97.5785 37.6127C97.7341 37.5919 97.8885 37.5715 98.0579 37.5491V37.3553C98.3995 37.3961 98.7201 37.2948 99.0471 37.3204C99.0524 37.3208 99.0585 37.3152 99.0711 37.3088V36.8436H100.089V36.601H100.295V36.3656H101.062V36.1229H101.282C101.383 36.0617 101.342 35.974 101.352 35.8971C101.587 35.8335 101.83 35.8307 102.08 35.8427V35.6065H102.318C102.323 35.524 102.327 35.4475 102.331 35.3643H102.798C102.82 35.2005 102.841 35.0428 102.863 34.879H103.282C103.322 34.8235 103.343 34.7309 103.345 34.6012H103.584V34.4054H103.823V34.1231H104.301C104.323 33.9594 104.344 33.8016 104.364 33.6503C104.512 33.6291 104.652 33.609 104.795 33.5886C104.816 33.4501 104.836 33.3112 104.857 33.1634C105.004 33.1446 105.158 33.1246 105.328 33.1026V32.6794H105.568V32.4051C105.652 32.4003 105.729 32.3959 105.813 32.3915V32.1617H106.06V31.7001C106.086 31.6741 106.105 31.6553 106.124 31.6364C106.192 31.6364 106.259 31.6364 106.341 31.6364C106.345 31.5744 106.348 31.5111 106.353 31.4411H106.526L106.591 31.3766V30.6832C106.668 30.6792 106.745 30.6748 106.83 30.67V30.3997H107.076V29.4364H107.322V28.9796C107.384 28.8787 107.475 28.926 107.567 28.9076V28.6785C107.567 28.4583 107.561 28.2377 107.569 28.0179C107.579 27.7501 107.602 27.4822 107.62 27.1992C107.67 27.1956 107.734 27.1912 107.804 27.1864V25.7154C107.746 25.713 107.682 25.7102 107.608 25.707C107.608 25.5297 107.604 25.3575 107.609 25.1853C107.614 25.022 107.554 24.8671 107.564 24.7013C107.578 24.4695 107.568 24.2361 107.568 23.9963H107.375L107.374 23.9951Z" fill="#F2F2F2"/>
<path d="M89.3189 34.3529V34.1583C88.9175 34.182 88.5283 34.0899 88.1335 34.1191C88.0335 34.1267 87.9328 34.1203 87.8255 34.1203V33.8885H87.3583C87.3376 33.8633 87.3205 33.8429 87.2925 33.8084V33.6447H86.5876C86.5612 33.6186 86.5421 33.5998 86.5157 33.5738V33.3996H86.2838V33.1642H85.5501V32.9276H85.3266C85.3059 32.9024 85.2888 32.882 85.2608 32.8479V32.6902C85.1393 32.6726 85.0252 32.6486 84.9098 32.6406C84.7891 32.6321 84.6673 32.6385 84.5385 32.6385V32.4067C84.4682 32.4019 84.4044 32.3971 84.3337 32.3923V32.1629H84.0469V31.9203H83.8007V31.6901C83.6394 31.6689 83.485 31.6484 83.3234 31.6272C83.3039 31.4839 83.2831 31.3322 83.2596 31.1628C83.2007 31.1612 83.1292 31.1584 83.0577 31.1576C82.9841 31.1568 82.9106 31.1576 82.8367 31.1576C82.8151 30.9987 82.7944 30.8465 82.7725 30.6884C82.6258 30.6688 82.4714 30.6483 82.3016 30.6259V30.2223C82.2728 30.1939 82.2586 30.1799 82.237 30.1587H82.053V29.9773C82.0241 29.9489 82.0099 29.9349 81.9884 29.9137H81.771V29.438H81.2811V28.7278C81.1198 28.7066 80.9654 28.6861 80.796 28.6637V27.9567H80.5567V27.7221C80.473 27.7177 80.3955 27.7136 80.3138 27.7092C80.3012 27.461 80.2334 27.2192 80.2724 26.9558H80.0623V26.7203H79.8255C79.8088 26.5558 79.7869 26.3972 79.7788 26.2375C79.7706 26.0794 79.7771 25.92 79.7771 25.7547H79.5963C79.5748 25.7334 79.5606 25.7194 79.5391 25.6982V24.9964H79.2937V23.993H79.0467V23.4818C79.0467 23.0214 79.0479 22.5609 79.0463 22.1009C79.045 21.799 78.9898 21.5004 79.0032 21.1965C79.0166 20.8902 78.9845 20.5811 79.0105 20.2764C79.0828 19.4281 79.0272 18.5793 79.0475 17.7309C79.0475 17.7257 79.054 17.7205 79.0621 17.7081H79.2884V16.5847H79.5273V15.5886H79.7775C79.7775 15.3628 79.7828 15.1506 79.7759 14.9388C79.7698 14.7554 79.7909 14.576 79.832 14.3899H80.0063C80.0286 14.2129 80.0497 14.0424 80.0721 13.865H80.2646C80.2646 13.8005 80.2719 13.7413 80.2634 13.6844C80.2354 13.5059 80.3077 13.3361 80.3057 13.1603C80.304 12.987 80.3057 12.8136 80.3057 12.6263H80.5454V12.1434H80.7916V10.9067H81.2543C81.2791 10.8811 81.2973 10.8614 81.3242 10.8338V10.6641H81.5224V10.8987H81.7678C81.7678 11.1705 81.7645 11.4356 81.7698 11.7006C81.7714 11.7751 81.7515 11.8491 81.8019 11.9284C81.8328 11.9769 81.808 12.0693 81.7893 12.1366C81.7491 12.2799 81.7743 12.4229 81.7735 12.5658C81.8348 12.6106 81.8072 12.6759 81.8076 12.7316C81.81 13.2052 81.8088 13.6788 81.8088 14.1525V14.3366H81.9998C82.0221 14.5136 82.0436 14.6841 82.066 14.8619H82.2411C82.3366 15.3523 82.2829 15.8412 82.2959 16.3276C82.298 16.4073 82.2959 16.487 82.2959 16.5807H82.5397C82.5397 16.7136 82.5381 16.8325 82.5401 16.9514C82.5421 17.0667 82.5173 17.186 82.5962 17.2989H82.7688C82.7745 17.3225 82.783 17.3406 82.783 17.3586C82.7838 17.5456 82.7948 17.7329 82.781 17.9187C82.7599 18.2086 82.8497 18.4896 82.8208 18.7851H83.0138C83.0349 18.9576 83.0548 19.123 83.0772 19.3032H83.3099V20.0194H83.5029C83.5253 20.196 83.5464 20.3665 83.5687 20.5443H83.7503C83.7715 20.7024 83.7918 20.8546 83.8141 21.0223H84.0392V21.7242C84.0656 21.7502 84.0847 21.769 84.1042 21.7882H84.2801C84.2842 21.8639 84.2878 21.94 84.2923 22.0232H84.5312C84.5312 22.0809 84.5287 22.1321 84.5316 22.183C84.5478 22.4492 84.5653 22.7159 84.5828 22.9889H84.9569C84.9785 23.0101 84.9927 23.0242 85.0118 23.043C85.0317 23.1903 85.052 23.3425 85.0735 23.503H85.2957C85.2998 23.5855 85.3039 23.6619 85.3079 23.7452H85.5427V24.4591C85.7113 24.4811 85.8657 24.5011 86.0233 24.5215C86.0437 24.6693 86.0644 24.8214 86.0871 24.9888H86.2769V25.2246H86.5555C86.5596 25.307 86.5637 25.3835 86.5677 25.4668H86.8026V25.7094H87.0487V25.952H87.2876V26.1662C87.314 26.1923 87.3331 26.2111 87.3595 26.2371H87.7703C87.7918 26.3964 87.8121 26.5486 87.8332 26.7083H88.3057V26.951H88.5454V27.1796C88.7916 27.214 89.0297 27.2548 89.2738 27.2304C89.2958 27.3813 89.3161 27.5199 89.3376 27.6676C89.4843 27.6864 89.6386 27.7064 89.8089 27.7285V27.9515H90.2923V28.1865H90.5783V28.4295H91.5558V28.6613C91.7166 28.6825 91.871 28.7034 92.0412 28.7258C92.0445 28.7766 92.0482 28.8399 92.0526 28.9167C92.2606 28.8911 92.4556 28.9724 92.6632 28.958C92.8712 28.9432 93.0817 28.9548 93.3051 28.9548V29.143C93.4741 29.165 93.6285 29.185 93.7902 29.2062V29.3716C93.8166 29.3976 93.8357 29.4164 93.8548 29.4352C94.6673 29.4352 95.4794 29.4352 96.3061 29.4352C96.3098 29.36 96.3135 29.2835 96.3175 29.2002H96.7961V28.9548H96.9891C97.1313 28.9548 97.2739 28.9612 97.4156 28.9528C97.5448 28.9452 97.6732 28.9212 97.8093 28.9035V28.7278C97.9751 28.7058 98.1347 28.6841 98.3017 28.6617V28.4411H98.8245C98.8286 28.3586 98.8323 28.2822 98.8363 28.1989H99.0711V27.9563H99.5546V27.4862C99.7203 27.4646 99.8796 27.4434 100.036 27.423C100.056 27.2981 100.076 27.1724 100.097 27.0398H100.292C100.312 26.9317 100.332 26.8272 100.353 26.7147H100.571V26.4805C100.654 26.4757 100.732 26.4717 100.816 26.4669V26.2367H101.062V25.7707C101.153 25.715 101.275 25.8059 101.351 25.6858V25.476H101.55V25.2334H101.797C101.797 25.1689 101.804 25.1097 101.796 25.0528C101.768 24.8614 101.865 24.6797 101.833 24.4751H102.078V24.2325H102.324V23.4766H102.794C102.82 23.6315 102.829 25 102.805 25.4664H102.573V25.709H102.325V27.1928H102.088V27.407L102.016 27.4778H101.846C101.849 27.7189 101.811 27.9499 101.785 28.1893H101.607C101.586 28.3478 101.565 28.4996 101.542 28.6673C101.491 28.6709 101.427 28.6757 101.366 28.6801C101.263 28.7494 101.332 28.8543 101.301 28.9524H101.067V29.428H100.827C100.825 29.5117 100.823 29.5894 100.822 29.6666C100.821 29.7455 100.822 29.8248 100.822 29.9105H100.582V30.1931H100.35C100.307 30.2716 100.38 30.3777 100.259 30.4381H100.103C100.081 30.5975 100.06 30.7492 100.039 30.9094H99.6167C99.5948 31.0727 99.5733 31.2301 99.5509 31.3946H99.3267V31.6292C99.243 31.6336 99.1654 31.638 99.0813 31.6424V31.9127H98.8351V32.1069C98.6608 32.1277 98.493 32.1481 98.3094 32.1701V32.3935H98.0632V32.6361H97.5798V32.8708C97.4961 32.8752 97.4185 32.8796 97.334 32.884V33.105C97.2003 33.1238 97.0732 33.1482 96.9452 33.1574C96.8188 33.1662 96.6913 33.1594 96.5572 33.1594V33.3528H96.3183V33.5814C95.9088 33.6719 95.5074 33.6299 95.1016 33.6415V33.8685C95.0114 33.8901 94.9249 33.8777 94.84 33.8797C94.753 33.8817 94.6657 33.8801 94.5718 33.8801V34.1203H93.8414C93.7061 34.1203 93.57 34.1135 93.4355 34.1223C93.3136 34.1303 93.1926 34.1555 93.0642 34.174V34.3605C92.8696 34.3605 92.6815 34.3693 92.4942 34.3589C92.0717 34.3353 91.6512 34.4418 91.232 34.3962C90.6015 34.3277 89.971 34.3882 89.3197 34.3533L89.3189 34.3529Z" fill="#F2F2F2"/>
<path d="M104.309 4.452C104.167 4.452 104.032 4.42718 103.911 4.45721C103.632 4.52647 103.352 4.46561 103.06 4.50085V4.68982H102.881C102.779 4.75107 102.824 4.83956 102.81 4.92043C102.678 4.93764 102.544 4.96207 102.409 4.97047C102.268 4.97928 102.125 4.97248 101.983 4.97248H101.554V5.20589H101.072V5.45292C100.971 5.45292 100.884 5.44851 100.798 5.45412C100.715 5.45972 100.632 5.4365 100.548 5.48735C100.499 5.51617 100.401 5.51337 100.353 5.48254C100.267 5.42729 100.185 5.47734 100.121 5.45011C100.012 5.51377 100.068 5.60505 100.045 5.68112C99.9747 5.72116 99.8658 5.64709 99.8049 5.7676V5.92094C99.5632 5.95618 99.3288 5.99341 99.083 5.96899V6.15996C98.9172 6.18158 98.7576 6.2028 98.591 6.22442V6.44542H98.069C98.0641 6.5279 98.0596 6.60397 98.0547 6.68724H97.8215V6.92987H97.3316V7.16168C97.1626 7.1837 97.0082 7.20372 96.8502 7.22413C96.8303 7.36026 96.8096 7.49879 96.7884 7.64292C96.6418 7.66254 96.4874 7.68295 96.318 7.70538V7.93078H96.0718V8.1734H95.7923V8.40882H95.343V8.63022C95.3214 8.65144 95.3072 8.66545 95.2849 8.68747H95.1025C95.0976 8.75674 95.0935 8.81959 95.0895 8.88005C95.0728 8.89646 95.0582 8.91088 95.0366 8.9321H94.8628C94.8408 9.07703 94.8197 9.21596 94.7961 9.3701H94.5707V9.65276H94.2839V9.88857H94.0864C94.0823 9.97105 94.0783 10.0475 94.0746 10.118C94.0165 10.2137 93.9239 10.1592 93.8467 10.182C93.8073 10.2517 93.8817 10.3582 93.7594 10.4187H93.6038C93.5688 10.6569 93.5282 10.8875 93.5595 11.1301H93.3141C93.3101 11.213 93.3064 11.2891 93.3023 11.3727H93.0671V11.8956H92.8274V12.1298C92.7437 12.1346 92.6661 12.1386 92.5759 12.1438V12.34C92.5759 12.4733 92.5828 12.6075 92.5739 12.7404C92.565 12.8681 92.5398 12.9942 92.5191 13.1371H92.3334V13.3137C92.2717 13.4146 92.1807 13.3674 92.0884 13.3858C92.0884 13.4394 92.0913 13.4971 92.088 13.5547C92.0758 13.7761 92.0563 13.9971 92.0494 14.2189C92.0425 14.4387 92.0478 14.6593 92.0478 14.8795V15.5742C91.9852 15.5786 91.9215 15.583 91.863 15.587C91.8004 15.6202 91.8032 15.6727 91.8036 15.7275C91.8045 16.2476 91.8041 16.7673 91.8041 17.3013H92.0478C92.0478 17.6881 92.0433 18.0604 92.0502 18.4332C92.0527 18.5685 92.036 18.7018 92.075 18.8416C92.1108 18.9701 92.0827 19.1158 92.0827 19.2547C92.2375 19.2768 92.3785 19.2968 92.5353 19.3192C92.5353 19.368 92.5321 19.4265 92.5357 19.4845C92.5516 19.7388 92.5694 19.993 92.5873 20.2621H92.7539C92.7827 20.2905 92.7969 20.3045 92.8185 20.3257V20.4999H93.0574V21.0228H93.5473V21.5056H93.772C93.7935 21.5268 93.8077 21.5408 93.8292 21.562V21.7434H94.0133C94.0421 21.7718 94.0563 21.7858 94.0779 21.8071V22.0213H94.515C94.5369 22.1842 94.5581 22.342 94.5804 22.5065H95.2897V22.9817C95.3478 22.9841 95.3998 22.9934 95.4506 22.9873C95.6574 22.9637 95.8532 23.061 96.0665 23.0246V23.2212H96.3054V23.503H96.7957V23.7456H97.3202V24.2257H97.0517V23.9967C96.7567 23.9823 96.4679 23.9919 96.1799 23.9903C95.8898 23.9887 95.5997 23.9903 95.3027 23.9903V23.7536H94.8128V23.5174H93.5595C93.5546 23.435 93.5506 23.3585 93.5461 23.2812C93.3897 23.2604 93.2357 23.24 93.0659 23.2176V23.0242C92.8132 23.0518 92.5792 23.0086 92.3371 22.9781V22.7523H92.0502V22.5161H91.5684C91.564 22.4336 91.5599 22.3572 91.555 22.2739H91.321V22.0421C91.0708 22.0253 90.8347 22.0093 90.5971 21.9932C90.5747 21.8435 90.554 21.7046 90.5321 21.5584C90.3882 21.5392 90.2343 21.5188 90.064 21.496C90.0608 21.4319 90.0567 21.3555 90.0523 21.2722H89.8179V21.0296H89.5717V20.7869H89.3303C89.2402 20.6376 89.3121 20.4738 89.2763 20.3089H88.7998V19.7928H88.3175C88.3151 19.7356 88.3082 19.6847 88.3114 19.6343C88.3232 19.4449 88.2948 19.2595 88.2582 19.0674H88.0746V18.8331C87.9909 18.8283 87.9137 18.8239 87.8386 18.8199C87.8223 18.8039 87.8077 18.7895 87.7862 18.7683V18.3067H87.5916C87.5692 18.1401 87.5489 17.988 87.5278 17.8286H87.3608C87.3344 17.8026 87.3153 17.7838 87.2954 17.7642V17.0707C87.2186 17.0667 87.1414 17.0623 87.0569 17.0579V16.3473H86.8107V15.1037H86.5674V11.3851H86.8042C86.8103 11.062 86.8042 10.7454 86.8079 10.4219H87.0468V9.65876H87.2942C87.2942 9.51423 87.3011 9.3753 87.2926 9.23798C87.2816 9.06061 87.3133 8.88806 87.3498 8.69548C87.3807 8.69548 87.4262 8.70069 87.4701 8.69388C87.5062 8.68827 87.54 8.66786 87.5777 8.65264V8.42203H87.7654C87.7719 8.39881 87.7829 8.38039 87.7813 8.36318C87.7569 8.12696 87.8235 7.89715 87.8284 7.65653H88.0088C88.0596 7.58006 87.9698 7.46876 88.1213 7.41151H88.2594C88.2773 7.2914 88.3009 7.17849 88.3086 7.06479C88.3171 6.94628 88.3106 6.82657 88.3106 6.70006H88.5487V6.45743H88.7949V5.93456H89.0342V5.75839C89.0606 5.73397 89.0801 5.71596 89.1085 5.68913H89.2739C89.2954 5.52979 89.3157 5.37765 89.3368 5.2179H89.5233V4.97528H89.8101V4.69262H90.0494V4.45761C90.1331 4.4536 90.2107 4.45 90.2956 4.446V4.21418H90.5418V3.97797H91.0188C91.0407 3.81462 91.0618 3.65767 91.0842 3.49352H91.5579V3.26171C91.7269 3.23969 91.8812 3.21967 92.036 3.19966C92.0559 3.06233 92.0762 2.9238 92.0978 2.77607C92.2469 2.75685 92.4013 2.73683 92.5715 2.71481V2.49221H93.0614V2.24879C93.1963 2.24879 93.3178 2.25519 93.438 2.24678C93.5538 2.23878 93.6684 2.21636 93.7858 2.19954C93.8061 2.06141 93.8264 1.92289 93.8492 1.76795C94.0413 1.76795 94.2432 1.75754 94.4435 1.77075C94.658 1.78516 94.8636 1.7167 95.0907 1.72711V1.53093H95.2747C95.2962 1.50971 95.3105 1.4957 95.332 1.47448V1.30352C95.356 1.29712 95.3738 1.28871 95.3921 1.28831C95.4734 1.28671 95.555 1.29311 95.6359 1.28671C95.8333 1.27069 96.0287 1.23706 96.2286 1.24587C96.4297 1.25468 96.6316 1.24787 96.8404 1.24787V1.01486H97.566C97.5701 0.932383 97.5741 0.855913 97.5782 0.773438H102.566V1.00445H103.584V1.24787C103.969 1.24787 104.341 1.25588 104.712 1.24467C104.919 1.23866 105.118 1.2843 105.328 1.29391V1.48809C105.394 1.48809 105.454 1.4957 105.511 1.48689C105.692 1.45886 105.863 1.54494 106.056 1.52653C106.06 1.59058 106.065 1.65384 106.069 1.7171C106.355 1.73432 106.639 1.75634 106.923 1.76715C107.132 1.77515 107.341 1.76875 107.565 1.76875V1.94731C107.594 1.97574 107.608 1.98975 107.63 2.01097H107.847V2.19233C108.262 2.29443 108.678 2.22917 109.104 2.25399C109.108 2.32486 109.111 2.40133 109.116 2.4846H109.351V2.73403C109.603 2.71121 109.838 2.74524 110.08 2.78328V2.96544H110.324V3.2481H109.844V3.45069C109.771 3.45069 109.705 3.45149 109.639 3.45069C109.38 3.44788 109.125 3.50834 108.864 3.49392C108.601 3.47951 108.336 3.49072 108.058 3.49072V3.72854H106.6V3.94073C106.588 3.95435 106.584 3.95995 106.579 3.96395C106.574 3.96756 106.567 3.97116 106.562 3.97116C106.156 3.97116 105.751 3.97116 105.339 3.97116V4.21138C105.2 4.21138 105.066 4.21939 104.934 4.20938C104.727 4.19417 104.528 4.24741 104.322 4.26063C104.318 4.32629 104.314 4.38914 104.311 4.4516L104.309 4.452Z" fill="#F2F2F2"/>
</g>
<g clip-path="url(#clip1_3621_5425)">
<path d="M35.5463 61.4247H33.9611V64.4001H32.3213V56.2605H36.1257C37.0221 56.2605 37.7181 56.4923 38.2137 56.9559C38.7093 57.4119 38.9571 58.0389 38.9571 58.8369C38.9571 59.4449 38.8114 59.9579 38.5198 60.3759C38.2283 60.7939 37.8129 61.0903 37.2736 61.2651L39.132 64.4001H37.2189L35.5463 61.4247ZM35.8742 60.0681C36.3334 60.0681 36.6832 59.9617 36.9237 59.7489C37.1642 59.5361 37.2845 59.2321 37.2845 58.8369C37.2845 58.4493 37.1642 58.1491 36.9237 57.9363C36.6832 57.7235 36.3334 57.6171 35.8742 57.6171H33.9611V60.0681H35.8742ZM46.1991 62.4621L45.5541 64.4001H43.8159L46.7348 56.2605H48.8884L51.8073 64.4001H50.0363L49.3913 62.4621H46.1991ZM47.8061 57.7197H47.7624L46.6254 61.1625H48.9649L47.8061 57.7197ZM57.0869 56.2605H58.7267V64.4001H57.0869V56.2605ZM68.8879 58.6659C68.815 58.2403 68.6365 57.9173 68.3523 57.6969C68.0753 57.4765 67.7073 57.3663 67.2481 57.3663C66.8399 57.3663 66.5083 57.4651 66.2533 57.6627C66.0055 57.8527 65.8816 58.0959 65.8816 58.3923C65.8816 58.6507 65.9727 58.8483 66.1549 58.9851C66.3371 59.1143 66.6104 59.2207 66.9748 59.3043L68.2539 59.6235C68.7932 59.7679 69.2231 59.9123 69.5439 60.0567C69.8718 60.2011 70.1451 60.4405 70.3638 60.7749C70.5897 61.1017 70.7027 61.5539 70.7027 62.1315C70.7027 62.6711 70.5605 63.1271 70.2763 63.4995C69.9921 63.8643 69.6095 64.1379 69.1284 64.3203C68.6474 64.4951 68.1044 64.5825 67.4995 64.5825C66.5229 64.5825 65.7212 64.3507 65.0945 63.8871C64.475 63.4159 64.1106 62.7471 64.0013 61.8807L65.6192 61.7097C65.6775 62.2493 65.8779 62.6483 66.2205 62.9067C66.563 63.1575 66.9967 63.2829 67.5214 63.2829C67.9659 63.2829 68.3267 63.1879 68.6037 62.9979C68.8879 62.8003 69.03 62.5305 69.03 62.1885C69.03 61.9605 68.979 61.7819 68.877 61.6527C68.7749 61.5159 68.6365 61.4095 68.4616 61.3335C68.2867 61.2575 68.0462 61.1777 67.7401 61.0941L66.461 60.7635C66.0091 60.6419 65.6301 60.5089 65.324 60.3645C65.0179 60.2125 64.7628 59.9845 64.5588 59.6805C64.3547 59.3765 64.2527 58.9737 64.2527 58.4721C64.2527 57.9781 64.3839 57.5525 64.6462 57.1953C64.9086 56.8305 65.2694 56.5531 65.7285 56.3631C66.1949 56.1731 66.7161 56.0781 67.2918 56.0781C68.1664 56.0781 68.877 56.2909 69.4236 56.7165C69.9702 57.1421 70.3237 57.7539 70.484 58.5519L68.8879 58.6659ZM76.1729 56.2605H77.8128V64.4001H76.1729V56.2605ZM88.6189 64.4001L85.1862 58.5633H85.1425V64.4001H83.6448V56.2605H85.5033L88.8704 61.9947H88.9141V56.2605H90.4228V64.4001H88.6189ZM102.177 64.4001V63.4425C101.616 64.2025 100.811 64.5825 99.7612 64.5825C99.0178 64.5825 98.3544 64.4077 97.7716 64.0581C97.1881 63.7085 96.733 63.2145 96.405 62.5761C96.084 61.9301 95.924 61.1777 95.924 60.3189C95.924 59.4601 96.084 58.7115 96.405 58.0731C96.733 57.4347 97.1881 56.9445 97.7716 56.6025C98.3544 56.2529 99.0178 56.0781 99.7612 56.0781C100.636 56.0781 101.383 56.3061 102.002 56.7621C102.629 57.2181 103.063 57.8337 103.303 58.6089L101.663 58.8141C101.495 58.3809 101.251 58.0465 100.931 57.8109C100.61 57.5753 100.22 57.4575 99.7612 57.4575C99.1053 57.4575 98.5805 57.7045 98.187 58.1985C97.7934 58.6925 97.5966 59.3993 97.5966 60.3189C97.5966 61.2537 97.7934 61.9681 98.187 62.4621C98.5805 62.9561 99.1053 63.2031 99.7612 63.2031C100.315 63.2031 100.774 63.0359 101.139 62.7015C101.51 62.3671 101.736 61.9377 101.816 61.4133H99.9033V60.1251H103.336V64.4001H102.177ZM119.428 57.6969V64.4001H117.788V57.6969H115.263V56.2605H121.953V57.6969H119.428ZM134.049 64.4001H132.409V60.9801H128.966V64.4001H127.326V56.2605H128.966V59.5779H132.409V56.2605H134.049V64.4001ZM145.378 59.5665V60.8775H141.519V62.9979H145.564V64.4001H139.879V56.2605H145.564V57.6171H141.519V59.5665H145.378ZM162.344 58.6659C162.271 58.2403 162.093 57.9173 161.809 57.6969C161.531 57.4765 161.164 57.3663 160.705 57.3663C160.296 57.3663 159.965 57.4651 159.71 57.6627C159.462 57.8527 159.338 58.0959 159.338 58.3923C159.338 58.6507 159.429 58.8483 159.611 58.9851C159.793 59.1143 160.066 59.2207 160.431 59.3043L161.71 59.6235C162.249 59.7679 162.679 59.9123 163 60.0567C163.328 60.2011 163.602 60.4405 163.82 60.7749C164.046 61.1017 164.159 61.5539 164.159 62.1315C164.159 62.6711 164.017 63.1271 163.733 63.4995C163.449 63.8643 163.066 64.1379 162.585 64.3203C162.104 64.4951 161.561 64.5825 160.956 64.5825C159.979 64.5825 159.178 64.3507 158.551 63.8871C157.931 63.4159 157.567 62.7471 157.458 61.8807L159.076 61.7097C159.134 62.2493 159.334 62.6483 159.677 62.9067C160.019 63.1575 160.453 63.2829 160.978 63.2829C161.422 63.2829 161.783 63.1879 162.06 62.9979C162.344 62.8003 162.486 62.5305 162.486 62.1885C162.486 61.9605 162.435 61.7819 162.333 61.6527C162.231 61.5159 162.093 61.4095 161.918 61.3335C161.743 61.2575 161.503 61.1777 161.197 61.0941L159.917 60.7635C159.465 60.6419 159.087 60.5089 158.78 60.3645C158.474 60.2125 158.219 59.9845 158.015 59.6805C157.811 59.3765 157.709 58.9737 157.709 58.4721C157.709 57.9781 157.84 57.5525 158.103 57.1953C158.365 56.8305 158.726 56.5531 159.185 56.3631C159.651 56.1731 160.172 56.0781 160.748 56.0781C161.623 56.0781 162.333 56.2909 162.88 56.7165C163.427 57.1421 163.78 57.7539 163.94 58.5519L162.344 58.6659ZM173.186 57.6969V64.4001H171.546V57.6969H169.02V56.2605H175.711V57.6969H173.186ZM181.938 62.4621L181.293 64.4001H179.554L182.473 56.2605H184.627L187.546 64.4001H185.775L185.13 62.4621H181.938ZM183.545 57.7197H183.501L182.364 61.1625H184.704L183.545 57.7197ZM197.8 64.4001L194.367 58.5633H194.323V64.4001H192.826V56.2605H194.684L198.051 61.9947H198.095V56.2605H199.603V64.4001H197.8ZM208.526 56.2605C209.729 56.2605 210.676 56.6025 211.369 57.2865C212.068 57.9705 212.418 58.9851 212.418 60.3303C212.418 61.6755 212.068 62.6901 211.369 63.3741C210.676 64.0581 209.729 64.4001 208.526 64.4001H205.433V56.2605H208.526ZM208.286 63.0435C209.933 63.0435 210.757 62.1391 210.757 60.3303C210.757 58.5215 209.933 57.6171 208.286 57.6171H207.072V63.0435H208.286ZM219.278 62.4621L218.633 64.4001H216.895L219.814 56.2605H221.968L224.887 64.4001H223.116L222.471 62.4621H219.278ZM220.886 57.7197H220.842L219.705 61.1625H222.044L220.886 57.7197ZM233.391 61.4247H231.806V64.4001H230.166V56.2605H233.971C234.867 56.2605 235.563 56.4923 236.059 56.9559C236.554 57.4119 236.802 58.0389 236.802 58.8369C236.802 59.4449 236.656 59.9579 236.365 60.3759C236.073 60.7939 235.658 61.0903 235.119 61.2651L236.977 64.4001H235.064L233.391 61.4247ZM233.719 60.0681C234.178 60.0681 234.528 59.9617 234.769 59.7489C235.009 59.5361 235.13 59.2321 235.13 58.8369C235.13 58.4493 235.009 58.1491 234.769 57.9363C234.528 57.7235 234.178 57.6171 233.719 57.6171H231.806V60.0681H233.719ZM245.397 56.2605C246.6 56.2605 247.547 56.6025 248.24 57.2865C248.939 57.9705 249.289 58.9851 249.289 60.3303C249.289 61.6755 248.939 62.6901 248.24 63.3741C247.547 64.0581 246.6 64.4001 245.397 64.4001H242.303V56.2605H245.397ZM245.157 63.0435C246.804 63.0435 247.627 62.1391 247.627 60.3303C247.627 58.5215 246.804 57.6171 245.157 57.6171H243.943V63.0435H245.157ZM259.143 58.6659C259.07 58.2403 258.892 57.9173 258.608 57.6969C258.33 57.4765 257.963 57.3663 257.504 57.3663C257.095 57.3663 256.764 57.4651 256.509 57.6627C256.261 57.8527 256.137 58.0959 256.137 58.3923C256.137 58.6507 256.228 58.8483 256.41 58.9851C256.592 59.1143 256.866 59.2207 257.23 59.3043L258.509 59.6235C259.049 59.7679 259.478 59.9123 259.799 60.0567C260.127 60.2011 260.401 60.4405 260.619 60.7749C260.845 61.1017 260.958 61.5539 260.958 62.1315C260.958 62.6711 260.816 63.1271 260.532 63.4995C260.248 63.8643 259.865 64.1379 259.384 64.3203C258.903 64.4951 258.36 64.5825 257.755 64.5825C256.778 64.5825 255.977 64.3507 255.35 63.8871C254.73 63.4159 254.366 62.7471 254.257 61.8807L255.875 61.7097C255.933 62.2493 256.133 62.6483 256.476 62.9067C256.818 63.1575 257.252 63.2829 257.777 63.2829C258.221 63.2829 258.582 63.1879 258.859 62.9979C259.143 62.8003 259.286 62.5305 259.286 62.1885C259.286 61.9605 259.234 61.7819 259.133 61.6527C259.03 61.5159 258.892 61.4095 258.717 61.3335C258.542 61.2575 258.302 61.1777 257.996 61.0941L256.717 60.7635C256.264 60.6419 255.886 60.5089 255.58 60.3645C255.273 60.2125 255.018 59.9845 254.814 59.6805C254.61 59.3765 254.508 58.9737 254.508 58.4721C254.508 57.9781 254.639 57.5525 254.902 57.1953C255.164 56.8305 255.525 56.5531 255.984 56.3631C256.45 56.1731 256.971 56.0781 257.547 56.0781C258.422 56.0781 259.133 56.2909 259.679 56.7165C260.226 57.1421 260.579 57.7539 260.74 58.5519L259.143 58.6659Z" fill="#F9F9F9"/>
</g>
<defs>
<clipPath id="clip0_3621_5425">
<rect width="135" height="42" fill="white" transform="translate(79)"/>
</clipPath>
<clipPath id="clip1_3621_5425">
<rect width="229" height="9" fill="white" transform="translate(32 56)"/>
</clipPath>
</defs>
</svg>
