<svg width="249" height="56" viewBox="0 0 249 56" fill="none" xmlns="http://www.w3.org/2000/svg">
<rect width="249" height="56" fill="#0D0D0D"/>
<g clip-path="url(#clip0_3621_3841)">
<path d="M61 0H0V56H61V0Z" fill="white"/>
<path d="M61 56H0V0H61V56ZM13.3154 39.0508C12.712 39.0508 12.5515 39.0661 12.582 39.1123C13.2328 40.2199 14.7202 42.003 15.9082 43.1055C19.3636 46.3099 23.3462 48.1645 28.0723 48.7725C28.9812 48.8858 31.7597 48.9009 32.7207 48.7979C38.5418 48.1539 43.8052 45.2274 47.3691 40.6475C47.7669 40.1374 48.4492 39.1588 48.4492 39.0918C48.4491 39.0712 48.113 39.0508 47.7051 39.0508H46.9668L46.5166 39.6377C46.2738 39.9623 45.8197 40.5137 45.5098 40.8691C44.9728 41.4716 43.858 42.5785 43.6094 42.7441C43.5061 42.8111 43.418 42.8009 42.6797 42.6104C41.2541 42.2497 39.3737 41.8947 37.8604 41.7041C37.5045 41.663 37.1435 41.6112 37.0498 41.5957L36.8838 41.5703L37.0137 41.1992C37.1529 40.798 37.6001 39.1948 37.6016 39.1025C37.6016 39.0665 37.385 39.0502 36.9512 39.0605L36.3008 39.0762L36.1299 39.6943C36.0369 40.0343 35.8823 40.5547 35.7842 40.8535L35.6084 41.3945H35.2725C35.0916 41.3945 34.4205 41.3586 33.7803 41.3174C31.7402 41.1834 27.3913 41.2294 25.7227 41.3994L25.4326 41.4307L25.2158 40.7451C25.1023 40.3642 24.9427 39.829 24.8652 39.5508L24.7256 39.0508H24.0898C23.5116 39.0508 23.4492 39.0611 23.4492 39.1436C23.4496 39.2581 23.7542 40.3592 23.9658 41.0234C24.0536 41.3068 24.1207 41.5388 24.1104 41.5439C24.0938 41.5498 23.6732 41.6066 23.166 41.668C21.5132 41.8689 19.9115 42.1619 18.2949 42.5586L17.4531 42.7646L17.1582 42.5127C16.3473 41.812 14.9119 40.2203 14.2559 39.293L14.085 39.0508H13.3154ZM28.3047 42.5332C28.9865 42.4971 33.1139 42.5488 33.9609 42.6055C34.9627 42.6724 35.0713 42.6881 35.0713 42.7705C35.0693 42.9283 34.1096 44.7544 33.7227 45.3359C33.1391 46.2166 32.2824 47.0768 31.6885 47.3809C31.1618 47.6487 30.8204 47.7264 30.3506 47.6904C29.8702 47.6492 29.5754 47.5457 29.0898 47.2314C28.3461 46.7472 27.623 45.9024 26.8896 44.6455C26.5488 44.0582 25.8981 42.7238 25.9395 42.6826C25.9549 42.6672 26.9102 42.6105 28.3047 42.5332ZM24.5908 42.8369L24.8389 43.4033C25.4793 44.8715 26.2698 46.17 27.1064 47.123C27.2614 47.3034 27.3591 47.4482 27.3281 47.4482C27.2942 47.4476 26.9446 47.3801 26.5488 47.293C24.6274 46.8911 22.7059 46.1647 20.9395 45.1807C20.2584 44.805 18.9025 43.9363 18.8066 43.8213C18.7653 43.7698 18.9507 43.7128 19.6426 43.5635C20.7324 43.3317 21.7038 43.1671 22.9434 42.9971C23.465 42.9249 23.9613 42.858 24.0439 42.8477C24.1317 42.8323 24.2862 42.8269 24.3945 42.832L24.5908 42.8369ZM37.6279 42.9658C38.945 43.1358 40.6031 43.4355 41.9873 43.7549L42.2607 43.8164L41.8066 44.1309C40.2675 45.1869 38.1392 46.2376 36.4502 46.7734C35.5122 47.0716 33.7613 47.493 33.6973 47.4385C33.6869 47.423 33.8058 47.2684 33.9658 47.083C34.348 46.6452 34.7869 46.037 35.1484 45.4395C35.4841 44.8884 36.1241 43.6214 36.3154 43.1367L36.6201 42.8379C36.7183 42.8533 37.1734 42.9091 37.6279 42.9658ZM48.7588 18.2119C48.1906 18.1243 46.0985 18.0618 45.582 18.1133C44.043 18.273 42.7982 18.5978 41.6465 19.1387C38.8884 20.4421 37.1736 22.8636 36.75 26.0576C36.6622 26.7325 36.6462 28.3609 36.7236 29.0049C36.9199 30.6172 37.4108 31.9977 38.2061 33.2031C38.862 34.1923 40.0763 35.2792 41.2178 35.8975C42.9067 36.8144 45.2669 37.2735 47.5859 37.1396C52.0124 36.8769 55.1582 34.7025 56.3721 31.0654C56.7285 29.9939 56.8779 28.9734 56.8779 27.6133C56.883 24.7749 56.0466 22.5598 54.3164 20.834C52.896 19.4224 51.0624 18.5571 48.7588 18.2119ZM29.209 18.2422C28.3103 18.134 25.8821 18.0566 25.1797 18.1133C21.6831 18.4018 19.426 19.5716 18.4395 21.6064C18.0004 22.5132 17.8195 23.5542 17.9229 24.667C18.1088 26.7686 19.0231 28.1027 20.877 28.9785C22.039 29.5246 23.0983 29.7672 25.7734 30.1123C27.9995 30.3956 28.6975 30.555 29.1934 30.9053C29.5342 31.1422 29.6474 31.3589 29.6475 31.7607C29.6423 32.7911 28.542 33.2239 26.0938 33.1621C24.6737 33.1312 23.3259 32.8892 22.6699 32.5596L22.4678 32.4561V31.3232H18.0264V36.8301L20.4434 36.8506C22.504 36.866 23.0002 36.8868 23.8574 36.9795C26.3572 37.2628 28.852 37.2013 30.6133 36.8047C32.2093 36.4492 33.3669 35.8874 34.2656 35.0322C35.0971 34.244 35.5513 33.3783 35.7734 32.1729C35.9025 31.467 35.8507 30.1376 35.6699 29.4473C35.4271 28.5201 34.9001 27.6448 34.2598 27.1143C33.8259 26.7485 33.1288 26.3414 32.5762 26.125C31.4296 25.6768 30.515 25.4863 28.1494 25.1875C25.4125 24.8475 24.7978 24.6874 24.2969 24.1826C23.8165 23.7087 23.899 22.9405 24.4775 22.5645C25.0405 22.1885 25.6299 22.0752 26.9365 22.0752C28.2636 22.0804 29.4565 22.2709 30.3447 22.6211L30.6553 22.7451L30.6709 23.3535L30.6855 23.9561H35.123V18.3975L32.6328 18.376C30.4692 18.3605 30.0146 18.34 29.209 18.2422ZM4.7627 20.7207L4.77734 23.0029L6.26562 23.0186L7.74805 23.0283V32.3018H4.75195L4.7627 34.5791L4.77734 36.8613L10.7334 36.877L16.6836 36.8867V32.3018H13.6875V23.0283H16.6836V18.4434H4.75195L4.7627 20.7207ZM46.0781 22.4678C46.5068 22.4008 47.4003 22.4412 47.8291 22.5391C48.5935 22.7245 49.2806 23.1988 49.7041 23.8428C50.3136 24.7598 50.5664 25.8678 50.5664 27.6143C50.5612 29.7418 50.1995 30.973 49.3008 31.8643C48.6552 32.5132 48.0614 32.7502 46.9717 32.8018C44.8798 32.8996 43.6147 31.8434 43.124 29.5869C42.9691 28.8656 42.9272 27.0166 43.0459 26.1562C43.3558 23.9513 44.3582 22.7306 46.0781 22.4678ZM30.6807 6.42383C30.2878 6.3981 28.604 6.48594 27.9688 6.56836C25.4535 6.89293 23.3149 7.52657 21.125 8.6084C18.2533 10.0251 15.8261 11.9732 13.8428 14.4512C13.3779 15.0385 12.5508 16.1821 12.5508 16.249C12.5535 16.2644 12.8937 16.2793 13.3154 16.2793H14.0752L14.3848 15.8525C15.0717 14.9098 16.4096 13.4463 17.2412 12.7354L17.5146 12.5029L18.4805 12.7402C20.0454 13.1214 22.0909 13.4975 23.501 13.6572C23.8006 13.6881 24.0594 13.7345 24.0801 13.75C24.1056 13.7712 24.0535 14.008 23.9658 14.2754C23.744 14.9803 23.4499 16.071 23.4492 16.1865C23.4492 16.2689 23.5064 16.2793 24.0898 16.2793H24.7256L24.8652 15.7598C25.0408 15.1055 25.4128 13.9455 25.4541 13.9043C25.479 13.8843 25.8539 13.8997 26.29 13.9355C28.0048 14.0798 30.5722 14.136 32.3955 14.0742C33.3459 14.0382 34.4466 13.987 34.834 13.9561C35.2263 13.9252 35.5672 13.9205 35.5879 13.9463C35.6301 13.9959 35.882 14.7609 36.0469 15.3262C36.0985 15.5218 36.1872 15.8207 36.2285 15.9805L36.3164 16.2793H36.9561C37.441 16.2793 37.6012 16.2642 37.6016 16.2129C37.6016 16.1305 37.2923 15.0171 37.0908 14.3525C37.0031 14.0745 36.9307 13.8272 36.9307 13.8066C36.9331 13.7909 37.2525 13.7349 37.6436 13.6836C39.379 13.4724 41.1197 13.1579 42.7002 12.7715L43.583 12.5498L43.9443 12.8691C44.7862 13.6161 46.0676 15.0376 46.7236 15.9443L46.9609 16.2793H47.7051C48.2164 16.2793 48.4492 16.2639 48.4492 16.2227C48.4483 16.1906 48.3138 15.9751 48.1543 15.7441C45.2205 11.5506 41.1402 8.59836 36.3779 7.23828C34.8285 6.79527 33.0932 6.51151 31.6367 6.45996C31.2132 6.44966 30.7788 6.42898 30.6807 6.42383ZM29.7979 7.74316C30.5002 7.50638 31.2285 7.62436 31.9463 8.08789C32.6281 8.5361 33.2944 9.28922 33.9658 10.3711C34.2962 10.8965 35.0697 12.4437 35.0713 12.5752C35.0713 12.6731 34.8641 12.6885 32.6689 12.7812C30.8404 12.8585 27.483 12.7866 26.2021 12.6475C25.9804 12.6217 25.9391 12.6013 25.9648 12.5293C25.9803 12.4829 26.1872 12.0445 26.4248 11.5654C27.4681 9.43799 28.6048 8.15013 29.7979 7.74316ZM33.8574 8.09863C33.6302 7.84106 33.6246 7.84147 34.4561 8.0166C36.8783 8.52659 39.3164 9.55641 41.5166 11.0039C41.9195 11.2666 42.25 11.5045 42.25 11.5303C42.2411 11.6602 38.4005 12.3336 36.7754 12.4932L36.4395 12.5244L36.2588 12.0762C36.0212 11.4734 35.4683 10.3913 35.1016 9.79883C34.802 9.31972 34.2138 8.51076 33.8574 8.09863ZM27.2715 7.8877C27.3903 7.88254 27.3905 7.88778 27.2148 8.07324C26.4196 8.90783 25.4387 10.5096 24.8086 11.9775L24.5908 12.4932L24.3945 12.4775C23.4852 12.4053 20.8778 11.9776 19.6279 11.6943C19.2483 11.6125 18.9192 11.541 18.8945 11.54C18.7499 11.54 18.9352 11.38 19.5137 11.0039C21.8792 9.45841 24.1418 8.52649 26.9102 7.94434C27.039 7.91349 27.199 7.8929 27.2715 7.8877Z" fill="#0D0D0D"/>
</g>
<g clip-path="url(#clip1_3621_3841)">
<path d="M121.456 1.61344C121.519 1.61354 121.582 1.61364 121.645 1.61373C122.642 1.61583 123.631 1.64146 124.621 1.76271C124.657 1.76709 124.693 1.77147 124.73 1.77597C127.893 2.16351 130.906 3.07218 133.753 4.46655C133.798 4.48809 133.842 4.50962 133.887 4.53181C135.641 5.3909 137.286 6.48266 138.776 7.7277C138.912 7.84109 139.051 7.95085 139.19 8.0604C139.36 8.1951 139.517 8.33416 139.668 8.48801C139.745 8.56303 139.824 8.63117 139.907 8.69957C140.157 8.91125 140.388 9.13968 140.621 9.36814C140.698 9.44315 140.775 9.51792 140.851 9.59266C141.109 9.84403 141.358 10.0991 141.595 10.3699C141.66 10.4395 141.725 10.509 141.791 10.5783C142 10.8055 142.193 11.0435 142.384 11.2851C142.494 11.4234 142.606 11.5595 142.719 11.6953C143.688 12.8635 144.506 14.1417 145.238 15.4621C145.26 15.5005 145.281 15.5388 145.303 15.5783C147.001 18.6411 147.999 22.0489 148.329 25.5114C148.334 25.5676 148.34 25.6237 148.345 25.6816C148.678 29.3284 148.221 33.1504 146.945 36.5971C146.868 36.672 146.776 36.6476 146.674 36.6478C146.641 36.6476 146.609 36.6475 146.576 36.6473C146.542 36.6473 146.509 36.6473 146.474 36.6473C146.362 36.6473 146.25 36.6469 146.138 36.6466C146.06 36.6465 145.983 36.6465 145.905 36.6464C145.701 36.6462 145.496 36.6458 145.292 36.6453C145.084 36.6448 144.875 36.6446 144.667 36.6444C144.258 36.6439 143.849 36.6431 143.44 36.6422C143.513 36.397 143.588 36.1545 143.683 35.9162C143.711 35.8437 143.711 35.8437 143.74 35.7697C143.76 35.7193 143.78 35.6689 143.8 35.617C143.994 35.1147 144.152 34.6123 144.287 34.0924C144.313 33.9937 144.342 33.8963 144.372 33.7988C145.472 30.2617 145.425 26.227 144.53 22.6568C144.5 22.5357 144.472 22.4144 144.444 22.2929C144.157 21.0796 143.731 19.8867 143.209 18.7518C143.186 18.7017 143.163 18.6515 143.14 18.5999C142.519 17.2459 141.79 15.9471 140.903 14.7411C140.866 14.691 140.866 14.691 140.829 14.6398C140.443 14.1155 140.037 13.6119 139.611 13.1188C139.562 13.0614 139.513 13.0041 139.464 12.9467C139.224 12.6681 138.979 12.4013 138.709 12.1489C138.616 12.0567 138.53 11.9631 138.444 11.8648C138.279 11.6789 138.101 11.511 137.916 11.3444C137.884 11.3152 137.852 11.2859 137.818 11.2558C137.724 11.1706 137.63 11.0857 137.536 11.0008C137.488 10.9576 137.44 10.9145 137.393 10.8713C137.111 10.6178 136.821 10.3771 136.521 10.1446C136.491 10.1214 136.461 10.0981 136.43 10.0742C135.135 9.0709 133.746 8.14504 132.251 7.44827C132.17 7.41011 132.089 7.37155 132.007 7.33275C130.869 6.79014 129.683 6.32973 128.465 5.98451C128.387 5.96237 128.31 5.93975 128.232 5.91683C126.131 5.29554 123.923 5.03221 121.732 5.0383C121.674 5.03835 121.615 5.0384 121.555 5.03846C120.727 5.03992 119.912 5.06032 119.091 5.16869C118.948 5.18756 118.804 5.20419 118.661 5.22031C118.074 5.28788 117.495 5.38274 116.918 5.50302C116.841 5.51904 116.841 5.51904 116.763 5.53539C114.414 6.03196 112.153 6.86816 110.074 8.04812C109.966 8.10957 109.857 8.17017 109.748 8.23044C108.929 8.68579 108.161 9.22224 107.416 9.78409C107.389 9.80451 107.362 9.82492 107.334 9.84595C106.468 10.4937 105.672 11.2157 104.9 11.9669C104.849 12.0164 104.849 12.0164 104.797 12.067C104.584 12.2751 104.384 12.4904 104.188 12.7132C104.141 12.7654 104.093 12.8174 104.046 12.8694C103.672 13.2831 103.325 13.7121 102.989 14.1553C102.964 14.1878 102.939 14.2202 102.914 14.2537C100.881 16.9312 99.522 19.9634 98.7912 23.2131C98.7725 23.2956 98.7725 23.2956 98.7533 23.3797C97.8787 27.2803 98.2501 31.453 99.6721 35.6281C99.6821 35.6573 99.6922 35.6865 99.7025 35.7166C99.8098 36.0267 99.9239 36.3338 100.037 36.6422C98.7276 36.6422 97.4186 36.6422 96.0699 36.6422C95.528 35.001 95.528 35.001 95.3665 34.3496C95.3571 34.3123 95.3477 34.2751 95.3381 34.2367C95.0894 33.2469 94.9049 32.2502 94.7669 31.2402C94.7599 31.1894 94.7529 31.1387 94.7457 31.0865C94.6151 30.0655 94.5764 29.0437 94.5792 28.0156C94.5795 27.9206 94.5796 27.8257 94.5798 27.7307C94.5815 26.7744 94.608 25.8299 94.7323 24.8805C94.7403 24.8165 94.7483 24.7524 94.7563 24.6884C95.2255 20.96 96.5012 17.3482 99.2063 13.1188C99.2281 13.0881 99.2498 13.0573 99.2722 13.0256C99.6891 12.4379 100.13 11.8721 100.59 11.3163C100.623 11.2765 100.655 11.2367 100.689 11.1957C100.904 10.9358 101.127 10.6859 101.359 10.4402C101.451 10.3412 101.541 10.2408 101.631 10.139C101.78 9.97042 101.941 9.81491 102.104 9.65841C102.193 9.56987 102.276 9.47926 102.357 9.38415C102.538 9.1784 102.743 9.00098 102.949 8.81997C103.054 8.72675 103.155 8.63237 103.254 8.53357C103.419 8.37009 103.594 8.22063 103.773 8.07166C103.817 8.03449 103.861 7.99731 103.907 7.959C104.269 7.65576 104.64 7.36452 105.018 7.08026C105.046 7.05931 105.073 7.03836 105.102 7.01678C106.239 6.16063 107.449 5.409 108.708 4.73693C108.753 4.71294 108.798 4.68895 108.844 4.66423C109.997 4.051 111.205 3.53879 112.444 3.11463C112.523 3.08748 112.523 3.08748 112.603 3.05978C114.349 2.46375 116.137 2.05092 117.97 1.81341C118.004 1.80901 118.037 1.80462 118.072 1.80008C119.196 1.65455 120.322 1.61025 121.456 1.61344Z" fill="white"/>
<path d="M114.658 17.0859C114.803 17.1527 114.885 17.2124 114.987 17.3338C115.187 17.5648 115.406 17.7749 115.627 17.9872C115.869 18.2207 116.106 18.4546 116.328 18.7072C116.493 18.8884 116.672 19.0564 116.849 19.2265C117.084 19.4522 117.312 19.6789 117.526 19.9231C117.692 20.1045 117.871 20.2728 118.048 20.4432C118.468 20.8467 118.468 20.8467 118.646 21.0502C118.842 21.2729 119.057 21.4766 119.271 21.6825C119.513 21.916 119.75 22.1498 119.972 22.4024C120.137 22.5837 120.316 22.7516 120.493 22.9217C120.728 23.1475 120.956 23.3742 121.17 23.6184C121.336 23.7998 121.515 23.9681 121.692 24.1384C122.112 24.5419 122.112 24.5419 122.29 24.7454C122.486 24.9681 122.701 25.1718 122.914 25.3777C123.157 25.6112 123.394 25.845 123.615 26.0977C123.781 26.2789 123.96 26.4469 124.137 26.617C124.371 26.8427 124.599 27.0694 124.814 27.3136C124.979 27.495 125.159 27.6633 125.336 27.8337C125.756 28.2372 125.756 28.2372 125.934 28.4406C126.13 28.6634 126.344 28.8671 126.558 29.0729C126.801 29.3065 127.038 29.5403 127.259 29.7929C127.424 29.9741 127.604 30.1421 127.781 30.3122C128.2 30.7157 128.2 30.7157 128.379 30.9192C128.574 31.1419 128.789 31.3456 129.003 31.5515C129.245 31.785 129.482 32.0188 129.704 32.2714C129.869 32.4527 130.048 32.6206 130.225 32.7907C130.49 33.0453 130.746 33.3025 130.986 33.5793C131.039 33.6394 131.092 33.6995 131.145 33.7596C131.184 33.8042 131.223 33.8488 131.263 33.8948C131.179 33.9785 131.094 34.062 131.009 34.1455C130.986 34.1686 130.963 34.1918 130.939 34.2156C130.807 34.3446 130.673 34.4676 130.532 34.5862C130.32 34.7657 130.123 34.9587 129.925 35.1538C129.872 35.2064 129.872 35.2064 129.817 35.2602C129.73 35.3457 129.643 35.4313 129.556 35.5171C129.382 35.4383 129.288 35.3465 129.161 35.2045C128.888 34.9036 128.596 34.6211 128.302 34.3387C128.109 34.1515 127.924 33.9611 127.747 33.7592C127.597 33.5945 127.436 33.441 127.276 33.2864C127.225 33.2373 127.225 33.2373 127.174 33.1871C127.092 33.1075 127.01 33.0279 126.927 32.9484C126.773 33.0139 126.673 33.0963 126.556 33.2137C126.521 33.2486 126.486 33.2835 126.449 33.3194C126.413 33.3559 126.377 33.3924 126.339 33.4301C125.934 33.835 125.934 33.835 125.732 34.0041C125.495 34.2028 125.278 34.4212 125.059 34.6383C124.807 34.8882 124.556 35.1345 124.283 35.3627C124.192 35.4387 124.106 35.5188 124.019 35.5988C122.749 36.6936 121.07 37.1262 119.406 37.0446C117.769 36.9339 116.275 36.1281 115.195 34.9423C114.004 33.5906 113.592 31.9554 113.69 30.1995C113.809 28.9661 114.378 27.8613 115.166 26.9099C115.197 26.8722 115.228 26.8346 115.26 26.7958C115.382 26.6535 115.511 26.5276 115.656 26.4073C115.872 26.2243 116.072 26.0274 116.273 25.8283C116.5 25.6018 116.73 25.3812 116.977 25.175C117.086 25.0823 117.187 24.9834 117.287 24.882C117.476 24.9549 117.601 25.0867 117.74 25.2256C117.765 25.2501 117.789 25.2747 117.815 25.2999C117.968 25.4519 118.113 25.6079 118.253 25.771C118.337 25.861 118.423 25.9451 118.513 26.0294C118.557 26.0715 118.557 26.0715 118.603 26.1144C118.663 26.1709 118.724 26.227 118.785 26.2825C118.812 26.3085 118.84 26.3345 118.868 26.3614C118.894 26.3846 118.919 26.4077 118.945 26.4316C118.994 26.5043 118.994 26.5043 118.986 26.5964C118.925 26.7386 118.805 26.8249 118.688 26.924C118.447 27.1347 118.215 27.3522 117.988 27.5774C117.814 27.7495 117.641 27.9196 117.452 28.0759C116.769 28.6465 116.269 29.4991 116.18 30.3798C116.17 30.5629 116.167 30.7456 116.166 30.929C116.166 30.974 116.165 31.0189 116.165 31.0652C116.169 31.5065 116.229 31.9152 116.42 32.3175C116.434 32.3482 116.448 32.3789 116.463 32.4105C116.683 32.8744 116.967 33.2597 117.333 33.6244C117.362 33.6526 117.39 33.6809 117.419 33.71C118.13 34.3657 119.123 34.6494 120.082 34.6271C121.493 34.5664 122.44 33.7903 123.382 32.8529C123.587 32.6495 123.793 32.4535 124.016 32.2679C124.234 32.0773 124.438 31.8703 124.644 31.6669C124.691 31.6206 124.738 31.5743 124.786 31.528C124.9 31.4157 125.014 31.3034 125.128 31.1909C125.06 31.0353 124.97 30.9364 124.847 30.8185C124.809 30.782 124.771 30.7456 124.732 30.7081C124.693 30.6704 124.653 30.6327 124.612 30.5939C124.173 30.1739 124.173 30.1739 124 29.9763C123.798 29.7452 123.574 29.5344 123.353 29.3208C123.103 29.08 122.858 28.8395 122.629 28.5789C122.457 28.3896 122.269 28.2143 122.084 28.0365C121.842 27.8034 121.606 27.57 121.385 27.3179C121.212 27.1284 121.024 26.9528 120.839 26.7747C120.395 26.3472 120.395 26.3472 120.218 26.1452C120.015 25.9143 119.792 25.7037 119.57 25.4904C119.32 25.2495 119.075 25.009 118.847 24.7485C118.674 24.5592 118.487 24.3838 118.302 24.206C118.06 23.973 117.824 23.7396 117.602 23.4875C117.429 23.298 117.242 23.1223 117.057 22.9442C116.814 22.7112 116.578 22.4778 116.357 22.2257C116.184 22.0362 115.996 21.8605 115.811 21.6825C115.324 21.2133 115.324 21.2133 115.112 20.9619C115.031 20.8693 115.031 20.8693 114.933 20.803C114.755 20.668 114.669 20.5657 114.626 20.3463C114.611 20.1396 114.617 19.9333 114.622 19.7264C114.623 19.6501 114.623 19.5739 114.624 19.4976C114.625 19.2978 114.629 19.0981 114.633 18.8984C114.637 18.6942 114.638 18.49 114.64 18.2858C114.644 17.8858 114.65 17.4859 114.658 17.0859Z" fill="white"/>
<path d="M123.208 14.2911C123.28 14.3507 123.351 14.4107 123.422 14.4714C123.459 14.5012 123.496 14.5311 123.534 14.5619C124.489 15.3528 125.135 16.5714 125.258 17.7863C125.365 19.2043 125.079 20.6009 124.118 21.7101C124.086 21.7453 124.054 21.7805 124.021 21.8168C123.984 21.8585 123.947 21.9002 123.909 21.9432C123.716 22.1549 123.522 22.3523 123.299 22.5331C123.205 22.6155 123.118 22.7001 123.031 22.789C123.002 22.818 122.974 22.847 122.944 22.8769C122.886 22.9356 122.829 22.9949 122.772 23.0545C122.746 23.0815 122.719 23.1085 122.692 23.1363C122.668 23.161 122.644 23.1856 122.62 23.2111C122.545 23.2588 122.545 23.2588 122.458 23.257C122.322 23.1963 122.238 23.1094 122.132 23.0052C122.111 22.9841 122.089 22.963 122.067 22.9413C122.022 22.8965 121.976 22.8517 121.931 22.8066C121.863 22.7388 121.795 22.6715 121.726 22.6043C121.506 22.3876 121.291 22.1682 121.089 21.9358C120.995 21.8305 120.895 21.7336 120.793 21.6365C120.867 21.4526 121.002 21.3298 121.144 21.1944C121.182 21.1583 121.182 21.1583 121.22 21.1215C121.355 20.9924 121.491 20.867 121.634 20.7465C122.225 20.2481 122.71 19.6328 122.789 18.8479C122.825 18.2725 122.82 17.7414 122.545 17.2203C122.525 17.18 122.504 17.1398 122.483 17.0983C122.113 16.4414 121.554 16.0246 120.839 15.7782C120.791 15.7617 120.744 15.7452 120.695 15.7282C119.913 15.5533 119.135 15.6631 118.452 16.0599C118.072 16.3111 117.754 16.6263 117.433 16.9437C117.213 17.1563 116.976 17.3471 116.734 17.5357C116.588 17.3949 116.443 17.2539 116.298 17.1127C116.249 17.0648 116.2 17.017 116.15 16.9693C115.898 16.7243 115.647 16.4798 115.417 16.214C115.309 16.0922 115.191 15.9808 115.073 15.8684C115.141 15.7098 115.228 15.6242 115.362 15.5135C115.534 15.3661 115.697 15.2144 115.857 15.0539C116.527 14.3824 117.263 13.867 118.164 13.525C118.199 13.5112 118.234 13.4974 118.271 13.4831C118.372 13.4464 118.474 13.4171 118.579 13.3898C118.626 13.3773 118.674 13.3647 118.723 13.3518C120.265 13.0074 121.958 13.3353 123.208 14.2911Z" fill="#C0C0C0"/>
<path d="M126.696 19.7891C126.974 19.823 127.177 19.8577 127.431 19.9468C127.465 19.9586 127.499 19.9703 127.533 19.9825C129.079 20.5454 130.32 21.6986 131.023 23.1491C131.7 24.6086 131.816 26.2979 131.239 27.8122C130.873 28.7151 130.29 29.8229 129.418 30.334C128.87 29.7987 128.322 29.2633 127.757 28.7117C127.84 28.5498 127.889 28.4856 128.019 28.3681C128.689 27.7261 129.093 26.803 129.106 25.889C129.109 24.7763 128.769 23.8624 127.979 23.0449C127.6 22.6885 127.166 22.4518 126.696 22.2225C126.696 21.4195 126.696 20.6164 126.696 19.7891Z" fill="#C0C0C0"/>
<path d="M101.42 19.9688C101.763 20.0429 102.095 20.1396 102.429 20.2448C102.52 20.2731 102.61 20.3014 102.701 20.3297C102.748 20.3444 102.795 20.3591 102.844 20.3743C103.086 20.4497 103.329 20.5239 103.572 20.5981C103.62 20.6128 103.668 20.6275 103.718 20.6427C103.865 20.6875 104.012 20.7323 104.159 20.7771C104.261 20.8082 104.363 20.8393 104.465 20.8705C104.711 20.9455 104.957 21.0204 105.202 21.0953C105.193 21.1288 105.183 21.1622 105.173 21.1967C105.154 21.2629 105.154 21.2629 105.135 21.3305C105.123 21.3742 105.11 21.4178 105.097 21.4628C105.063 21.5868 105.063 21.5868 105.049 21.6989C105.035 21.7938 105.035 21.7938 104.972 21.9516C104.893 21.992 104.893 21.992 104.793 22.0209C104.756 22.0319 104.718 22.0428 104.68 22.0541C104.464 22.1114 104.247 22.1649 104.029 22.2163C103.663 22.3043 103.298 22.3962 102.935 22.4966C102.478 22.6224 102.018 22.7369 101.559 22.8528C101.818 22.9679 102.081 23.0533 102.354 23.1345C102.399 23.148 102.444 23.1615 102.49 23.1754C102.632 23.2182 102.774 23.2609 102.916 23.3035C103.058 23.3461 103.201 23.3888 103.343 23.4316C103.431 23.4581 103.519 23.4846 103.607 23.5109C103.85 23.5841 104.089 23.6644 104.326 23.7541C104.276 23.9845 104.223 24.2079 104.142 24.4301C103.744 24.3285 103.353 24.211 102.962 24.0893C102.898 24.0696 102.835 24.0499 102.771 24.0302C102.639 23.9892 102.507 23.9482 102.375 23.907C102.206 23.8546 102.038 23.8024 101.869 23.7502C101.738 23.7097 101.607 23.6691 101.476 23.6285C101.414 23.6092 101.352 23.5899 101.29 23.5707C100.977 23.4737 100.666 23.3751 100.359 23.2584C100.379 23.1634 100.398 23.0685 100.422 22.9745C100.453 22.8533 100.453 22.8533 100.471 22.7299C100.505 22.5804 100.544 22.4822 100.636 22.3571C100.879 22.2327 101.134 22.1793 101.4 22.1206C101.475 22.1024 101.55 22.084 101.625 22.0655C101.776 22.0283 101.927 21.9923 102.079 21.9573C102.335 21.898 102.59 21.8329 102.845 21.7675C102.997 21.7286 103.149 21.6907 103.301 21.653C103.476 21.609 103.648 21.5605 103.819 21.5009C103.67 21.4042 103.524 21.3537 103.357 21.2999C103.324 21.2894 103.292 21.279 103.259 21.2682C103.191 21.2461 103.123 21.2241 103.055 21.2021C102.953 21.1692 102.851 21.136 102.749 21.1027C102.386 20.9847 102.022 20.8739 101.653 20.7742C101.512 20.7348 101.374 20.6908 101.236 20.6447C101.259 20.3896 101.307 20.1996 101.42 19.9688Z" fill="white"/>
<path d="M142.009 22.8086C142.084 23.1821 142.158 23.5556 142.231 23.9291C142.269 24.1204 142.307 24.3116 142.346 24.5027C142.362 24.5867 142.379 24.6708 142.396 24.7548C142.403 24.7929 142.411 24.8311 142.419 24.8704C142.45 25.0283 142.471 25.1707 142.471 25.3322C142.398 25.3474 142.325 25.3624 142.252 25.3772C142.191 25.3898 142.191 25.3898 142.128 25.4026C142.009 25.4223 142.009 25.4223 141.825 25.4223C141.779 25.2234 141.734 25.0243 141.689 24.8252C141.677 24.7696 141.664 24.7139 141.651 24.6566C141.573 24.3108 141.521 23.9733 141.502 23.6197C141.463 23.6295 141.424 23.6393 141.384 23.6493C141.332 23.6619 141.279 23.6744 141.225 23.6873C141.174 23.6999 141.123 23.7124 141.07 23.7254C140.885 23.7581 140.721 23.7598 140.533 23.7549C140.545 23.8008 140.557 23.8467 140.569 23.894C140.658 24.2486 140.737 24.603 140.799 24.9632C140.805 24.9974 140.81 25.0315 140.816 25.0667C140.841 25.2181 140.856 25.3585 140.856 25.5124C140.631 25.5732 140.446 25.6078 140.211 25.6026C140.091 25.0635 139.982 24.5241 139.888 23.9803C139.63 23.9753 139.63 23.9753 139.38 24.0253C139.21 24.0769 139.05 24.0737 138.873 24.0704C138.901 24.2075 138.929 24.3445 138.957 24.4816C138.965 24.5226 138.973 24.5636 138.982 24.6058C139.031 24.8439 139.082 25.0811 139.135 25.3181C139.187 25.5482 139.221 25.7736 139.242 26.0081C139.135 26.0319 139.029 26.0553 138.922 26.0785C138.892 26.0854 138.861 26.0922 138.83 26.0992C138.752 26.1159 138.674 26.1298 138.596 26.1433C138.523 26.0717 138.527 25.9879 138.51 25.8893C138.503 25.8459 138.495 25.8026 138.487 25.7579C138.48 25.7113 138.472 25.6647 138.464 25.6166C138.413 25.3222 138.361 25.0291 138.294 24.7379C138.234 24.4746 138.188 24.2101 138.147 23.9436C138.14 23.9035 138.134 23.8633 138.127 23.8219C138.121 23.7846 138.116 23.7474 138.11 23.709C138.102 23.6587 138.102 23.6587 138.094 23.6075C138.092 23.5818 138.091 23.5561 138.089 23.5296C138.162 23.4582 138.247 23.4617 138.347 23.4451C138.418 23.4332 138.418 23.4332 138.491 23.421C138.57 23.4079 138.57 23.4079 138.651 23.3944C139.38 23.2708 140.105 23.1309 140.831 22.9904C140.898 22.9774 140.898 22.9774 140.967 22.9641C141.052 22.9478 141.136 22.9314 141.221 22.9148C141.772 22.8086 141.772 22.8086 142.009 22.8086Z" fill="white"/>
<path d="M138.688 27.6779C139.349 27.6677 140.005 27.6954 140.665 27.7332C140.831 27.7427 140.998 27.752 141.164 27.7611C141.272 27.7671 141.38 27.7731 141.487 27.7791C141.561 27.7832 141.561 27.7832 141.636 27.7874C141.961 27.8061 142.285 27.8304 142.609 27.8582C142.629 28.7013 142.569 29.5406 142.517 30.3818C142.288 30.3818 142.06 30.3818 141.825 30.3818C141.855 29.7572 141.886 29.1326 141.917 28.4891C141.613 28.4891 141.308 28.4891 140.995 28.4891C140.991 28.6065 140.991 28.6065 140.986 28.7264C140.982 28.8313 140.978 28.9362 140.975 29.0411C140.973 29.0925 140.971 29.1438 140.969 29.1967C140.956 29.5328 140.933 29.8665 140.902 30.2015C140.689 30.2015 140.476 30.2015 140.257 30.2015C140.253 29.8482 140.257 29.498 140.277 29.1453C140.279 29.1118 140.281 29.0782 140.282 29.0437C140.284 29.0113 140.286 28.9789 140.288 28.9455C140.29 28.9172 140.292 28.8889 140.293 28.8597C140.307 28.7206 140.329 28.5824 140.349 28.444C139.999 28.4291 139.649 28.4143 139.288 28.3989C139.258 29.0384 139.227 29.6779 139.196 30.3367C138.876 30.3144 138.876 30.3144 138.55 30.2916C138.545 29.7887 138.557 29.2891 138.587 28.787C138.593 28.6788 138.6 28.5706 138.606 28.4623C138.61 28.3926 138.614 28.3229 138.618 28.2532C138.619 28.2213 138.621 28.1894 138.623 28.1565C138.633 27.9934 138.651 27.8372 138.688 27.6779Z" fill="white"/>
<path d="M99.8977 26.0075C100.231 26.0044 100.564 26.002 100.897 26.0005C101.052 25.9998 101.207 25.9988 101.362 25.9973C101.54 25.9957 101.719 25.9949 101.898 25.9943C101.952 25.9936 102.007 25.9929 102.063 25.9922C102.645 25.9921 103.147 26.0882 103.578 26.4897C103.91 26.8438 103.972 27.2359 103.966 27.7043C103.939 28.1262 103.77 28.4992 103.454 28.792C103.06 29.0995 102.695 29.1367 102.204 29.1317C102.118 29.1316 102.118 29.1316 102.031 29.1314C101.911 29.1311 101.79 29.1305 101.67 29.1296C101.487 29.1282 101.303 29.1277 101.119 29.1275C101.002 29.1271 100.885 29.1266 100.768 29.1261C100.713 29.1259 100.659 29.1257 100.602 29.1255C100.551 29.1251 100.5 29.1246 100.447 29.1242C100.379 29.1237 100.379 29.1237 100.311 29.1232C100.157 29.1161 100.004 29.0931 99.8516 29.0719C99.8516 28.8488 99.8516 28.6257 99.8516 28.3959C99.9335 28.3968 100.015 28.3978 100.1 28.3988C100.371 28.4017 100.643 28.4037 100.915 28.4052C101.08 28.4062 101.244 28.4074 101.409 28.4095C101.568 28.4115 101.727 28.4125 101.886 28.413C101.976 28.4135 102.066 28.4149 102.155 28.4163C102.486 28.4164 102.709 28.3953 102.988 28.2156C103.232 27.9165 103.254 27.6412 103.219 27.2693C103.113 27.0469 102.974 26.9379 102.757 26.8187C102.569 26.7634 102.379 26.7593 102.184 26.7511C102.123 26.7484 102.123 26.7484 102.062 26.7456C101.341 26.7155 100.619 26.7011 99.8977 26.6835C99.8977 26.4604 99.8977 26.2373 99.8977 26.0075Z" fill="white"/>
<path d="M134.153 11.2159C134.598 11.4491 134.95 11.7451 135.137 12.2188C135.146 12.3483 135.146 12.3483 135.137 12.4441C134.884 12.5283 134.666 12.5449 134.399 12.5342C134.393 12.5081 134.387 12.482 134.38 12.455C134.301 12.1731 134.188 12.0188 133.938 11.8583C133.775 11.7694 133.665 11.7456 133.477 11.7681C133.315 11.8561 133.258 11.9173 133.191 12.0864C133.21 12.4784 133.513 12.8234 133.73 13.1422C133.9 13.4176 133.929 13.6589 133.892 13.9763C133.847 14.1093 133.786 14.2202 133.707 14.3368C133.681 14.3768 133.654 14.4167 133.626 14.4579C133.352 14.7333 133.041 14.8647 132.646 14.8776C132.094 14.8224 131.691 14.5335 131.341 14.1263C131.13 13.8435 131.078 13.6551 131.078 13.3003C131.306 13.2706 131.535 13.2408 131.77 13.2102C131.789 13.279 131.808 13.3478 131.828 13.4186C131.912 13.689 132.003 13.866 132.24 14.0382C132.432 14.1339 132.62 14.1554 132.831 14.1115C132.999 14.0009 133.051 13.9368 133.09 13.7425C133.037 13.4263 132.869 13.1706 132.687 12.9088C132.44 12.5521 132.351 12.2449 132.416 11.8132C132.541 11.5115 132.779 11.3019 133.061 11.1373C133.419 11.0207 133.815 11.0622 134.153 11.2159Z" fill="white"/>
<path d="M127.988 8.07422C128.335 8.18138 128.668 8.31079 129.003 8.44824C129.055 8.46899 129.107 8.49034 129.16 8.51172C129.821 8.78286 130.336 9.12251 130.617 9.78613C130.772 10.2384 130.698 10.8126 130.501 11.2373C130.206 11.7817 129.865 12.0704 129.279 12.3096C129.093 12.3585 128.912 12.3639 128.72 12.3662C128.664 12.3674 128.608 12.3689 128.55 12.3701C128.092 12.3505 127.66 12.1559 127.242 11.9863C127.151 11.9493 127.059 11.9131 126.967 11.877C126.908 11.8534 126.849 11.8293 126.791 11.8057C126.712 11.7741 126.712 11.7744 126.632 11.7422C126.512 11.6793 126.512 11.6791 126.466 11.5439C126.505 11.4312 126.548 11.3256 126.597 11.2168C126.618 11.167 126.618 11.1661 126.641 11.1152C126.689 11.0054 126.738 10.8957 126.786 10.7861C126.819 10.71 126.852 10.6337 126.886 10.5576C126.956 10.3978 127.026 10.2379 127.096 10.0781C127.204 9.83213 127.31 9.58572 127.416 9.33887C127.433 9.29937 127.449 9.25944 127.467 9.21875C127.533 9.06475 127.599 8.91089 127.665 8.75684C127.711 8.65051 127.756 8.54375 127.802 8.4375C127.815 8.4059 127.829 8.37435 127.843 8.3418C127.936 8.12448 127.937 8.12442 127.988 8.07422ZM128.403 8.93066C128.288 9.1029 128.205 9.2819 128.123 9.4707C128.097 9.53263 128.097 9.53321 128.071 9.59375C128.034 9.68022 127.997 9.76702 127.96 9.85352C127.902 9.98931 127.844 10.1251 127.785 10.2607C127.747 10.3496 127.708 10.4393 127.67 10.5283C127.651 10.5715 127.633 10.6133 127.615 10.6553C127.597 10.697 127.58 10.7378 127.562 10.7783C127.546 10.8174 127.53 10.8556 127.514 10.8936C127.453 11.0345 127.416 11.1688 127.389 11.3193C127.946 11.599 128.533 11.82 129.161 11.6318C129.508 11.4744 129.714 11.1739 129.874 10.8447C129.969 10.5503 130 10.1617 129.887 9.86816C129.532 9.33544 129.011 9.10482 128.403 8.93066Z" fill="white"/>
<path d="M102.062 31.0742C102.579 30.9647 103.143 31.0291 103.596 31.292C104.254 31.7367 104.517 32.3939 104.716 33.124C104.733 33.1826 104.75 33.2413 104.767 33.2998C104.897 33.766 104.896 33.7664 104.834 33.9834C104.782 33.9973 104.782 33.9976 104.729 34.0117C104.596 34.0477 104.462 34.0831 104.328 34.1191C104.267 34.1355 104.206 34.1516 104.146 34.168C103.824 34.2544 103.503 34.3411 103.183 34.4297C102.689 34.5659 102.196 34.6988 101.698 34.8164C101.509 34.8592 101.508 34.8594 101.328 34.9297C101.236 34.9315 101.144 34.9316 101.052 34.9297C100.939 34.5349 100.825 34.1401 100.717 33.7441C100.702 33.6913 100.688 33.6384 100.673 33.584C100.536 33.0585 100.505 32.4896 100.774 32C101.075 31.5323 101.518 31.2262 102.062 31.0742ZM103.242 31.8652C102.949 31.6976 102.538 31.7435 102.215 31.7949C101.864 31.8793 101.54 32.1277 101.352 32.4277C101.178 32.8076 101.253 33.3343 101.373 33.7217C101.39 33.77 101.406 33.8174 101.423 33.8643C101.452 33.9488 101.483 34.0338 101.513 34.1182C101.614 34.1182 101.614 34.1181 101.826 34.0586C102.276 33.9319 102.729 33.8177 103.183 33.7041C103.239 33.69 103.239 33.6896 103.294 33.6758C103.501 33.624 103.707 33.5721 103.914 33.5205C103.96 33.5091 104.005 33.4984 104.05 33.4873C104.051 33.4122 104.051 33.3368 104.05 33.2617C103.943 32.6877 103.723 32.2279 103.242 31.8652Z" fill="white"/>
<path d="M141.502 32.3633C141.591 32.377 141.591 32.377 141.701 32.4027C141.737 32.411 141.773 32.4192 141.81 32.4277C141.908 32.451 142.005 32.4746 142.102 32.4985C142.073 32.7432 142.015 32.9676 141.941 33.2026C141.929 33.2404 141.917 33.2783 141.905 33.3172C141.863 33.45 141.821 33.5826 141.779 33.7152C141.753 33.798 141.727 33.8808 141.701 33.9636C141.375 34.9967 141.375 34.9967 141.226 35.4276C141.152 35.4137 141.078 35.3995 141.004 35.3854C140.942 35.3736 140.942 35.3736 140.879 35.3616C140.764 35.3375 140.764 35.3375 140.626 35.2924C140.652 35.0126 140.718 34.7684 140.813 34.5038C140.826 34.4668 140.839 34.4297 140.853 34.3915C140.885 34.3012 140.917 34.211 140.949 34.1208C140.859 34.1057 140.859 34.1057 140.768 34.0903C140.402 34.0187 140.048 33.9049 139.692 33.7969C139.618 33.7746 139.544 33.7523 139.47 33.73C138.916 33.5632 138.364 33.3933 137.812 33.2195C137.84 32.9833 137.878 32.7703 137.951 32.5435C138.332 32.6064 138.693 32.7136 139.061 32.828C139.18 32.8647 139.299 32.9013 139.419 32.9378C139.476 32.9554 139.533 32.9729 139.592 32.991C140.118 33.1516 140.649 33.2978 141.18 33.4448C141.184 33.4191 141.189 33.3933 141.193 33.3668C141.356 32.5067 141.356 32.5067 141.502 32.3633Z" fill="white"/>
<path d="M136.844 13.6602C137.025 13.7192 137.094 13.8317 137.204 13.9756C137.25 14.0334 137.295 14.0911 137.341 14.1488C137.365 14.1794 137.389 14.2099 137.414 14.2414C137.544 14.4032 137.678 14.561 137.813 14.7192C138.059 15.0093 138.3 15.3028 138.537 15.6C138.633 15.7202 138.73 15.8396 138.827 15.9584C138.764 16.1031 138.693 16.186 138.568 16.2851C138.524 16.3203 138.524 16.3203 138.48 16.3562C138.457 16.3737 138.435 16.3911 138.412 16.4091C138.275 16.35 138.193 16.2926 138.1 16.1769C138.078 16.1493 138.056 16.1217 138.033 16.0933C138.011 16.0646 137.989 16.0359 137.965 16.0063C137.942 15.9777 137.92 15.9492 137.896 15.9198C137.797 15.7954 137.726 15.7038 137.674 15.5528C137.47 15.6178 137.328 15.728 137.17 15.8655C136.956 16.0468 136.739 16.2223 136.515 16.3922C136.323 16.5384 136.133 16.6858 135.945 16.8372C135.649 17.0751 135.347 17.3053 135.045 17.5357C134.881 17.3763 134.726 17.2186 134.584 17.04C134.584 17.0102 134.584 16.9805 134.584 16.9498C134.674 16.8749 134.764 16.8051 134.858 16.7358C135.117 16.5414 135.371 16.3424 135.622 16.1387C135.963 15.8624 136.31 15.5932 136.66 15.3275C136.703 15.2943 136.747 15.2611 136.792 15.2268C136.886 15.1551 136.98 15.0835 137.075 15.0121C137.002 14.7809 136.855 14.618 136.7 14.4347C136.674 14.4035 136.648 14.3722 136.621 14.3401C136.557 14.2634 136.493 14.187 136.429 14.1108C136.497 13.9718 136.56 13.8826 136.68 13.7813C136.707 13.7573 136.735 13.7333 136.763 13.7086C136.79 13.6926 136.817 13.6766 136.844 13.6602Z" fill="white"/>
<path fill-rule="evenodd" clip-rule="evenodd" d="M118.698 7.23438C119.025 7.23777 119.281 7.35273 119.515 7.5752C119.745 7.86421 119.801 8.22109 119.76 8.57812C119.701 8.84806 119.579 9.02242 119.362 9.19727C119.204 9.28739 119.203 9.28697 119.085 9.33203C119.191 9.51815 119.321 9.67678 119.463 9.83691C119.508 9.88871 119.554 9.94031 119.6 9.99219C119.622 10.0176 119.644 10.0431 119.667 10.0693C119.888 10.3239 120.102 10.5819 120.284 10.8643C120.135 11.0103 119.752 11.0107 119.548 11.0117C119.395 10.9926 119.333 10.9265 119.238 10.8115C119.19 10.7398 119.143 10.6671 119.098 10.5938C119.002 10.4461 118.891 10.3093 118.783 10.1699C118.696 10.0576 118.61 9.94454 118.524 9.83105C118.5 9.79911 118.476 9.76728 118.451 9.73438C118.393 9.6483 118.394 9.64785 118.348 9.5127C118.312 9.52383 118.312 9.52382 118.275 9.53516C118.129 9.56444 117.989 9.55897 117.84 9.55762C117.845 9.59233 117.851 9.62732 117.856 9.66309C117.882 9.82224 117.908 9.9814 117.933 10.1406C117.941 10.1953 117.95 10.2504 117.959 10.3066C118.005 10.6014 118.035 10.8816 118.024 11.1797C117.782 11.2588 117.589 11.2747 117.333 11.2705C117.327 11.2319 117.326 11.2317 117.32 11.1924C117.279 10.9187 117.238 10.6447 117.196 10.3711C117.16 10.131 117.123 9.89049 117.087 9.65039C117.058 9.4584 117.029 9.26619 117 9.07422C116.985 8.97786 116.971 8.88153 116.956 8.78516C116.935 8.6481 116.914 8.51106 116.894 8.37402C116.887 8.33257 116.881 8.29076 116.875 8.24805C116.869 8.20955 116.863 8.17053 116.857 8.13086C116.852 8.09737 116.847 8.0638 116.842 8.0293C116.827 7.93532 116.827 7.93513 116.801 7.84375C116.768 7.70941 116.777 7.57676 116.779 7.43945C118.02 7.24188 118.02 7.24248 118.59 7.2373C118.626 7.23649 118.661 7.23521 118.698 7.23438ZM118.901 7.98145C118.555 7.74711 118.554 7.74727 117.563 7.93652C117.556 8.13207 117.577 8.31145 117.612 8.50293C117.619 8.53816 117.626 8.57225 117.633 8.60645C117.656 8.72854 117.679 8.85066 117.702 8.97266C117.936 8.9611 118.166 8.94325 118.396 8.90234C118.649 8.84295 118.85 8.79322 118.993 8.56738C119.027 8.34223 119.032 8.17337 118.901 7.98145Z" fill="white"/>
<path d="M140.341 18.4951C140.371 18.5574 140.401 18.6195 140.432 18.6816C140.991 19.8266 140.991 19.8274 140.802 20.3896C140.684 20.6573 140.464 20.8175 140.211 20.9609C139.933 21.0652 139.605 21.1271 139.323 21.0068C139.146 20.9008 138.989 20.7722 138.827 20.6455C138.807 20.6758 138.786 20.7061 138.765 20.7373C138.686 20.8524 138.608 20.968 138.529 21.083C138.479 21.1562 138.43 21.2295 138.38 21.3027C138.283 21.4444 138.186 21.5864 138.089 21.7275C138.058 21.7723 138.028 21.8171 137.996 21.8633C137.967 21.9045 137.939 21.9459 137.909 21.9883C137.884 22.0249 137.858 22.0618 137.832 22.0996C137.8 22.1381 137.8 22.1384 137.767 22.1777H137.674C137.618 22.0768 137.564 21.9756 137.51 21.874C137.486 21.8312 137.486 21.8307 137.462 21.7871C137.349 21.5722 137.349 21.5719 137.361 21.46C137.406 21.3463 137.466 21.2645 137.542 21.168C137.572 21.1299 137.601 21.0919 137.632 21.0527C137.679 20.9936 137.678 20.993 137.726 20.9326C137.817 20.8163 137.908 20.7 137.998 20.583C138.06 20.5032 138.122 20.4235 138.186 20.3447C138.215 20.3061 138.246 20.2674 138.276 20.2275C138.304 20.1932 138.33 20.1585 138.358 20.123C138.43 19.9766 138.413 19.8982 138.366 19.7441C138.3 19.6396 138.299 19.6398 138.228 19.5645C138.186 19.5838 138.145 19.6031 138.103 19.623C137.95 19.6946 137.797 19.7651 137.644 19.8359C137.577 19.8667 137.511 19.8977 137.445 19.9287C137.35 19.9733 137.255 20.0176 137.16 20.0615C137.131 20.0755 137.101 20.0891 137.07 20.1035C136.859 20.1997 136.859 20.2006 136.705 20.1504C136.641 20.0408 136.641 20.0405 136.581 19.9053C136.551 19.8384 136.551 19.8377 136.521 19.7695C136.475 19.6543 136.475 19.6542 136.475 19.5645C137.542 19.0571 138.612 18.552 139.7 18.0889C139.851 18.0319 139.851 18.0318 139.98 17.9414H140.072C140.162 18.1255 140.252 18.3106 140.341 18.4951ZM139.842 18.8887C139.685 18.8376 139.685 18.8377 139.415 18.959C139.378 18.9762 139.342 18.993 139.306 19.0098C139.268 19.0261 139.232 19.0417 139.195 19.0576C139.16 19.0739 139.125 19.0897 139.091 19.1055C138.978 19.1566 138.931 19.1778 138.882 19.29C138.871 19.4142 138.87 19.4145 138.986 19.6455C139.004 19.6783 139.02 19.7103 139.037 19.7422C139.13 19.9316 139.219 20.0983 139.38 20.2402C139.558 20.356 139.634 20.3537 139.836 20.3164C140.005 20.2629 140.071 20.2087 140.165 20.0605C140.268 19.6419 140.061 19.2395 139.842 18.8887Z" fill="white"/>
<path d="M112.364 8.90039C113.604 8.37091 113.605 8.37092 114.087 8.5752C114.35 8.73571 114.512 8.91061 114.611 9.2002C114.647 9.54192 114.576 9.77053 114.381 10.0566C114.418 10.061 114.454 10.0658 114.492 10.0703C114.827 10.1165 115.064 10.1539 115.289 10.418C115.507 10.7223 115.542 10.9989 115.488 11.3633C115.404 11.6847 115.161 11.9011 114.889 12.084C114.352 12.3828 113.756 12.5877 113.182 12.8057C113.025 12.5094 112.89 12.2064 112.757 11.8994C112.723 11.8216 112.723 11.8215 112.688 11.7422C112.629 11.6046 112.568 11.4668 112.509 11.3291C112.425 11.1368 112.342 10.9442 112.259 10.752C112.213 10.6466 112.167 10.541 112.121 10.4355C112.029 10.2232 111.937 10.0107 111.842 9.7998C111.828 9.77024 111.815 9.74042 111.801 9.70996C111.768 9.63751 111.734 9.56542 111.701 9.49316C111.659 9.38092 111.66 9.38045 111.66 9.2002C111.835 9.12538 112.011 9.05074 112.187 8.97656C112.246 8.95142 112.305 8.92571 112.364 8.90039ZM114.52 10.5967C114.203 10.5421 113.922 10.6174 113.63 10.7334C113.6 10.7454 113.571 10.7569 113.542 10.7686C113.43 10.8108 113.334 10.8551 113.229 10.9121C113.18 11.0211 113.178 11.0767 113.211 11.1914C113.227 11.2274 113.242 11.2629 113.258 11.2979C113.275 11.337 113.293 11.3751 113.31 11.4131C113.328 11.4535 113.345 11.493 113.363 11.5322C113.425 11.6714 113.487 11.8106 113.551 11.9492H113.689C114.07 11.8197 114.462 11.6712 114.728 11.3662C114.804 11.2146 114.815 11.1236 114.796 10.957C114.723 10.8143 114.652 10.6916 114.52 10.5967ZM113.689 9.2002C113.431 9.15945 113.241 9.20355 113 9.29102C112.968 9.30328 112.937 9.31524 112.905 9.32715C112.792 9.36995 112.69 9.41541 112.582 9.4707C112.536 9.60551 112.536 9.60593 112.564 9.69531C112.581 9.7296 112.597 9.7636 112.612 9.79688C112.63 9.83402 112.646 9.87019 112.663 9.90625C112.691 9.96354 112.691 9.96349 112.718 10.0195C112.78 10.1521 112.842 10.2849 112.905 10.417C113.234 10.2994 113.633 10.2003 113.877 9.94336C113.985 9.78978 113.992 9.65549 113.966 9.4707C113.896 9.33477 113.822 9.28101 113.689 9.2002Z" fill="white"/>
<path d="M124.021 7.2168C124.063 7.34351 124.104 7.47089 124.146 7.59766C124.162 7.64875 124.163 7.64889 124.18 7.70117C124.267 7.96945 124.348 8.23962 124.429 8.50977C124.518 8.80709 124.61 9.10391 124.702 9.40039C124.749 9.55005 124.795 9.69994 124.842 9.84961C124.874 9.95241 124.905 10.0555 124.938 10.1582C124.984 10.3083 125.031 10.4591 125.077 10.6094C125.092 10.6552 125.106 10.7009 125.121 10.748C125.134 10.7905 125.147 10.8332 125.16 10.877C125.178 10.9328 125.178 10.9335 125.195 10.9902C125.22 11.0922 125.221 11.0925 125.221 11.2725C124.962 11.2427 124.703 11.2133 124.437 11.1826C124.399 11.0757 124.362 10.9685 124.324 10.8584C124.313 10.8252 124.301 10.792 124.289 10.7578C124.235 10.5997 124.191 10.445 124.159 10.2812C123.952 10.2555 123.746 10.2296 123.539 10.2041C123.469 10.1954 123.398 10.1865 123.328 10.1777C123.227 10.1651 123.126 10.1531 123.024 10.1406C122.978 10.1347 122.977 10.1349 122.93 10.1289C122.784 10.1111 122.646 10.1016 122.499 10.1016C122.271 10.5027 122.271 10.5028 122.038 10.9121C121.444 10.8773 121.443 10.8775 121.254 10.7773C121.827 9.77236 122.408 8.7714 123.001 7.77734C123.028 7.73191 123.055 7.68645 123.083 7.63965C123.108 7.5978 123.133 7.55581 123.159 7.5127C123.192 7.45792 123.192 7.4573 123.226 7.40137C123.273 7.32362 123.324 7.24731 123.375 7.17188C123.695 7.19418 123.695 7.19404 124.021 7.2168ZM123.56 8.07324C123.507 8.12457 123.506 8.12575 123.301 8.50977C123.259 8.589 123.258 8.58917 123.217 8.66699C123.188 8.71976 123.16 8.77105 123.133 8.82227C123.105 8.87353 123.079 8.92388 123.053 8.97363C122.958 9.15102 122.883 9.32337 122.822 9.51465C123.204 9.56131 123.205 9.56208 123.975 9.60547C123.975 9.40115 123.976 9.40075 123.865 8.96484C123.842 8.8763 123.819 8.78792 123.797 8.69922C123.789 8.66918 123.783 8.63951 123.775 8.61035C123.754 8.52526 123.753 8.52503 123.731 8.44141C123.691 8.28167 123.679 8.18989 123.56 8.07324Z" fill="white"/>
<path fill-rule="evenodd" clip-rule="evenodd" d="M105.477 13.6951C105.802 13.422 106.216 13.2995 106.627 13.5056C106.832 13.6616 107.01 13.8221 107.094 14.0662C107.098 14.1794 107.1 14.291 107.1 14.4041C107.1 14.4498 107.099 14.4502 107.1 14.4969C107.099 14.636 107.092 14.7447 107.047 14.8777H107.924C107.892 14.7773 107.86 14.6765 107.828 14.573C107.713 14.2062 107.714 14.2059 107.785 14.0662C107.89 13.9501 107.891 13.95 108.019 13.8299C108.082 13.7696 108.083 13.7693 108.147 13.7078C108.18 13.6774 108.213 13.6473 108.247 13.616C108.292 13.638 108.292 13.6383 108.339 13.6609C108.375 13.7774 108.375 13.7778 108.408 13.9314C108.42 13.9861 108.433 14.0411 108.445 14.0974C108.458 14.1549 108.471 14.2121 108.483 14.2713C108.503 14.358 108.502 14.3586 108.521 14.4471C108.553 14.5904 108.584 14.7342 108.615 14.8777C109.232 14.9 109.232 14.8999 109.861 14.9226C109.77 15.0267 109.678 15.1308 109.584 15.2381C109.563 15.2709 109.542 15.3039 109.52 15.3377C109.456 15.4352 109.408 15.4908 109.308 15.5535C109.09 15.5801 108.88 15.5719 108.662 15.5535C108.665 15.6055 108.665 15.6057 108.667 15.659C108.681 16.174 108.584 16.4261 108.22 16.8025C107.901 17.0959 107.569 17.2438 107.13 17.2351C106.82 17.2007 106.602 17.0435 106.401 16.8152C106.207 16.5567 106.164 16.3916 106.162 16.074C106.161 16.0241 106.161 15.9741 106.16 15.9226C106.171 15.7804 106.202 15.6816 106.264 15.5535C106.235 15.5551 106.206 15.5568 106.176 15.5584C105.836 15.5689 105.594 15.518 105.307 15.3396C105.075 15.1136 105.006 14.9492 104.995 14.6326C105.011 14.2116 105.165 13.9787 105.477 13.6951ZM106.863 15.5535C106.817 15.6434 106.816 15.6433 106.809 15.7537C106.808 15.7983 106.809 15.8422 106.809 15.8855C106.807 16.0159 106.806 16.0161 106.816 16.1385C106.888 16.3128 106.972 16.4041 107.14 16.4998C107.359 16.5351 107.538 16.5345 107.733 16.4265C107.783 16.3726 107.783 16.3719 107.831 16.3191C108.016 16.1194 108.016 16.1195 108.016 15.5535H106.863ZM106.31 14.1111C105.993 14.0124 105.795 14.1375 105.664 14.4265C105.634 14.6027 105.649 14.6738 105.744 14.8269C105.967 14.9696 106.188 14.9499 106.448 14.9226C106.494 14.8777 106.494 14.8769 106.505 14.7508C106.506 14.6971 106.508 14.6447 106.509 14.5926C106.514 14.4358 106.514 14.4356 106.494 14.2918C106.409 14.1855 106.409 14.185 106.31 14.1111Z" fill="white"/>
<path d="M114.899 38.9189C114.941 38.919 114.983 38.9189 115.025 38.9189C115.7 38.9192 116.374 38.9197 117.049 38.9199C119.724 38.9208 122.398 38.9208 125.073 38.9199C125.747 38.9197 126.422 38.9192 127.096 38.9189C127.137 38.9189 127.179 38.919 127.222 38.9189C128.501 38.9186 129.78 38.9179 131.06 38.918C131.1 38.918 131.14 38.918 131.182 38.918C132.063 38.918 132.945 38.9188 133.827 38.9189H138.644C138.701 38.9189 138.701 38.918 138.76 38.918C140.054 38.9175 141.348 38.918 142.643 38.9189H144.783C145.314 38.9185 145.845 38.9191 146.376 38.9199H148.282C148.982 38.9167 149.627 38.9835 150.264 39.2949C150.296 39.3105 150.33 39.3267 150.363 39.3428C150.618 39.4679 150.838 39.6125 151.051 39.7988C151.087 39.8277 151.124 39.857 151.161 39.8867C151.914 40.5022 152.394 41.4269 152.491 42.3799C152.507 42.6314 152.505 42.8829 152.504 43.1348C152.504 43.2176 152.504 43.3009 152.505 43.3838C152.506 43.6064 152.505 43.8292 152.505 44.0518C152.504 44.2861 152.506 44.5206 152.506 44.7549C152.506 45.1481 152.506 45.5413 152.505 45.9346V48.4668C152.505 48.6994 152.505 48.9324 152.506 49.165C152.506 49.3837 152.506 49.6026 152.505 49.8213C152.505 49.9009 152.504 49.9809 152.505 50.0605C152.51 51.2006 152.139 52.223 151.336 53.0625C150.791 53.5629 150.114 53.9111 149.39 54.085C149.359 54.0925 149.328 54.0996 149.296 54.1074C148.852 54.2016 148.405 54.1875 147.953 54.1865H146.881C146.596 54.1864 146.311 54.1872 146.026 54.1875C145.527 54.188 145.027 54.1876 144.527 54.1875C143.991 54.1874 143.455 54.1881 142.919 54.1885H142.402C140.963 54.1894 139.524 54.1894 138.085 54.1895H137.503C136.651 54.1895 135.799 54.1902 134.947 54.1904H133.777C131.556 54.191 129.334 54.1914 127.112 54.1914H124.983C122.335 54.1913 119.687 54.1921 117.038 54.1934C116.371 54.1937 115.703 54.194 115.036 54.1943C114.975 54.1944 114.975 54.1943 114.912 54.1943C113.646 54.1949 112.379 54.1952 111.112 54.1953H107.201C105.964 54.1953 104.726 54.1955 103.488 54.1963C102.241 54.1971 100.994 54.1979 99.7471 54.1973C99.5746 54.1972 99.4019 54.1964 99.2295 54.1963C99.1788 54.1963 99.1786 54.1963 99.127 54.1963C98.5925 54.1961 98.0578 54.1966 97.5234 54.1973H94.333C94.2415 54.1971 94.1501 54.1978 94.0586 54.1982C92.729 54.2049 91.671 53.8996 90.6885 52.9941C90.2782 52.58 89.9979 52.1021 89.7979 51.5605C89.7767 51.505 89.7765 51.505 89.7549 51.4482C89.6389 51.1287 89.606 50.8181 89.6064 50.4795C89.6063 50.4445 89.6066 50.4091 89.6064 50.373C89.606 50.2568 89.6055 50.1406 89.6055 50.0244C89.6053 49.9406 89.6047 49.8563 89.6045 49.7725C89.6039 49.5452 89.6037 49.318 89.6035 49.0908C89.6034 48.9486 89.6037 48.8063 89.6035 48.6641C89.6029 48.2185 89.6017 47.7728 89.6016 47.3271C89.6014 46.8139 89.6009 46.3003 89.5996 45.7871C89.5986 45.3897 89.5977 44.9921 89.5977 44.5947C89.5976 44.3577 89.5975 44.1208 89.5967 43.8838C89.5959 43.6606 89.5963 43.4371 89.5967 43.2139C89.5967 43.1325 89.5962 43.0511 89.5957 42.9697C89.5896 41.8116 89.9361 40.8566 90.7578 40.0107C91.6441 39.1868 92.6584 38.9141 93.8486 38.9199H94.9326C95.2206 38.9204 95.5089 38.9194 95.7969 38.9189H108.287C109.17 38.9188 110.052 38.918 110.935 38.918C110.975 38.918 111.015 38.918 111.057 38.918C112.337 38.9179 113.619 38.9186 114.899 38.9189ZM118.377 47.4141C117.818 47.0139 117.04 47.0004 116.413 47.2402C116.02 47.4138 115.703 47.6486 115.534 48.0479C115.434 48.4073 115.409 48.9318 115.576 49.2744C115.918 49.8007 116.421 50.0033 117.01 50.1855C117.39 50.3031 117.748 50.4242 118.071 50.6582C118.195 50.7848 118.249 50.9117 118.268 51.0879C118.274 51.4306 118.217 51.7042 117.979 51.9658C117.578 52.2631 117.168 52.2793 116.688 52.2363C116.423 52.1503 116.208 52.0603 116.03 51.8447C115.962 51.7532 115.921 51.7034 115.815 51.6553C115.719 51.6503 115.719 51.6503 115.62 51.7051C115.587 51.7315 115.555 51.7566 115.522 51.7822C115.464 51.8277 115.407 51.8742 115.35 51.9209C115.499 52.2309 115.776 52.448 116.088 52.5967C116.695 52.7997 117.274 52.8517 117.887 52.6416C118.316 52.4468 118.612 52.1781 118.777 51.7412C118.861 51.3779 118.876 50.8915 118.711 50.5518C118.422 50.1567 118.073 49.9433 117.602 49.8027C117.329 49.7248 117.058 49.6434 116.791 49.5479C116.479 49.4219 116.205 49.2772 116.068 48.9619C116.009 48.7261 115.987 48.4456 116.083 48.2178C116.267 47.9194 116.48 47.7398 116.825 47.6396C117.237 47.5976 117.621 47.5913 117.972 47.834C118.09 47.9421 118.198 48.028 118.348 48.0898C118.519 47.988 118.648 47.919 118.717 47.7295C118.611 47.617 118.497 47.5129 118.377 47.4141ZM111.961 47.6982C110.755 46.7856 109.134 46.9383 108.018 47.8984C107.623 48.294 107.304 48.9583 107.271 49.5078C107.238 50.4249 107.364 51.2843 108.029 51.9883C108.563 52.482 109.208 52.7552 109.943 52.7529C110.001 52.7518 110.058 52.7511 110.114 52.75C110.906 52.7492 111.457 52.629 112.167 52.2822V49.7129H110.322V50.209H111.613V52.0117C111.551 52.027 111.49 52.0418 111.43 52.0566C111.052 52.1835 110.712 52.2484 110.312 52.2539C110.261 52.2539 110.213 52.2539 110.164 52.2539C109.507 52.2548 108.96 52.1023 108.47 51.6514C107.999 51.1476 107.79 50.5016 107.818 49.8271C107.823 49.7732 107.827 49.7203 107.831 49.668C107.845 49.4807 107.87 49.3085 107.924 49.1279C108.14 48.5983 108.432 48.1568 108.957 47.8789C108.998 47.8592 109.038 47.8394 109.077 47.8203C109.244 47.7355 109.399 47.6776 109.584 47.6406C110.237 47.5901 110.822 47.641 111.377 48.0068C111.499 48.0915 111.617 48.1643 111.752 48.2266C111.772 48.2087 111.793 48.1912 111.812 48.1738C111.839 48.1497 111.865 48.126 111.891 48.1025C111.968 48.0328 111.969 48.0328 112.029 47.9561C112.029 47.7758 112.029 47.7753 111.961 47.6982ZM138.135 52.6426C139.02 52.6426 140.047 52.7681 140.941 52.5127C141.663 52.2615 142.195 51.9042 142.541 51.2139C142.564 51.1633 142.587 51.1145 142.609 51.0654C142.744 50.7782 142.796 50.5233 142.806 50.21C142.816 49.3909 142.716 48.6542 142.11 48.0342C141.239 47.2343 141.239 47.2344 138.135 47.2344V52.6426ZM98.4219 52.6426H98.9297C98.9758 52.5976 98.9759 52.5973 98.9814 52.4961C98.9813 52.4501 98.9806 52.405 98.9805 52.3604V52.041C98.9803 51.866 98.9801 51.6906 98.9795 51.5156C98.979 51.3633 98.9788 51.2109 98.9785 51.0586C98.9781 50.7622 98.9765 50.4653 98.9756 50.1689C98.9755 50.1368 98.9757 50.1054 98.9756 50.0742C99.0806 50.0724 99.186 50.0711 99.291 50.0723C99.3348 50.0729 99.3774 50.0736 99.4199 50.0742C99.5862 50.0711 99.7385 50.0714 99.8984 50.1191C100.092 50.3303 100.092 50.3306 100.227 50.584C100.291 50.7374 100.358 50.8814 100.444 51.0244C100.876 51.7074 100.877 51.7079 101.282 52.4062C101.352 52.5252 101.352 52.5261 101.42 52.6426H102.02C102.02 52.5526 102.019 52.5523 101.978 52.4785C101.894 52.3529 101.811 52.2266 101.731 52.0986C101.712 52.0666 101.692 52.035 101.673 52.0039C101.652 51.9699 101.632 51.9363 101.612 51.9033C101.365 51.4977 101.114 51.0932 100.863 50.6895C100.845 50.6603 100.827 50.6319 100.81 50.6035C100.712 50.4459 100.613 50.2875 100.515 50.1299C100.493 50.0956 100.473 50.0617 100.452 50.0283C100.807 50.0341 101.122 49.9212 101.395 49.6963C101.716 49.394 101.835 49.0892 101.85 48.6602C101.84 48.2716 101.75 47.9579 101.47 47.6738C100.938 47.2347 100.937 47.2344 98.4219 47.2344V52.6426ZM113.644 52.6426H114.151C114.197 52.5975 114.197 52.5971 114.203 52.5078V52.251C114.203 52.1996 114.202 52.1495 114.202 52.0996C114.202 51.9329 114.202 51.7663 114.202 51.5996C114.202 51.45 114.201 51.3 114.201 51.1504C114.201 50.8679 114.201 50.5852 114.2 50.3027C114.2 49.9786 114.199 49.6543 114.199 49.3301C114.199 48.6317 114.198 47.9328 114.197 47.2344H113.644V52.6426ZM129.003 52.6426H129.556V50.0742C129.869 50.0895 130.174 50.1043 130.479 50.1191C130.53 50.1946 130.581 50.271 130.629 50.3486C130.651 50.3854 130.673 50.4213 130.694 50.457C130.719 50.4984 130.744 50.5389 130.769 50.5791C130.795 50.6234 130.822 50.6669 130.848 50.71C130.999 50.9599 131.15 51.2106 131.3 51.4609C131.338 51.5252 131.376 51.5901 131.415 51.6543C131.506 51.8016 131.599 51.9469 131.678 52.1006C131.768 52.2829 131.853 52.4526 132.001 52.5977C132.21 52.6455 132.391 52.6342 132.601 52.5977C132.495 52.3777 132.369 52.1703 132.241 51.9619C132.197 51.8905 132.197 51.8904 132.153 51.8203C131.803 51.2507 131.447 50.6836 131.089 50.1182C131.07 50.0878 131.051 50.0578 131.032 50.0283C131.42 49.9853 131.742 49.9114 132.052 49.666C132.28 49.4355 132.408 49.1667 132.44 48.8477C132.464 48.4134 132.407 48.0635 132.103 47.7295C131.571 47.2346 131.57 47.2344 129.003 47.2344V52.6426ZM133.615 52.6426H137.121V52.1465H134.123V50.0732H136.798V49.623H134.123V47.7305H136.982V47.2344H133.615V52.6426ZM103.034 52.5977H106.54V52.1465H103.542V50.0732H106.217V49.623H103.542V47.7305H106.401V47.2344H103.034V52.5977ZM119.316 47.7305H121.208V52.5977H121.715V47.7305H123.606V47.2344H119.316V47.7305ZM124.437 52.5977H127.942V52.1465H124.944V50.0732H127.619V49.623H124.944V47.7305H127.804V47.2344H124.437V52.5977ZM138.688 47.7305C139.69 47.7305 140.754 47.616 141.58 48.2598C141.999 48.6409 142.274 49.0947 142.302 49.6621C142.314 50.309 142.247 50.9545 141.764 51.4463C141.738 51.4699 141.712 51.4927 141.687 51.5156C140.314 52.2092 140.314 52.2092 138.688 52.1465V47.7305ZM130.521 47.7139C130.879 47.7112 131.181 47.7179 131.493 47.9102C131.536 47.9362 131.579 47.9625 131.623 47.9893C131.813 48.1799 131.918 48.3858 131.932 48.6533C131.916 48.9444 131.794 49.1659 131.58 49.3662C131.176 49.6639 130.703 49.6396 130.219 49.6309C130 49.6281 129.781 49.6259 129.556 49.623V47.7295C129.798 47.7258 130.041 47.7226 130.291 47.7188C130.367 47.7171 130.443 47.7156 130.521 47.7139ZM99.8896 47.7148C100.332 47.7116 100.674 47.7563 101.049 47.998C101.262 48.2067 101.315 48.3932 101.334 48.6836C101.323 48.9194 101.24 49.1119 101.079 49.2881C100.758 49.5662 100.44 49.6296 100.024 49.6279C99.967 49.6278 99.9088 49.6271 99.8496 49.627C99.7772 49.6265 99.7045 49.6264 99.6299 49.626C99.2834 49.6246 99.2832 49.6245 98.9297 49.623V47.7305C99.1713 47.7268 99.4132 47.7236 99.6621 47.7197C99.7372 47.7181 99.8123 47.7165 99.8896 47.7148ZM143.024 47.3672V47.5479H143.485V48.8096H143.717V47.5479H144.178V47.3672H143.024ZM144.408 48.8096H144.639C144.654 48.4573 144.669 48.1153 144.685 47.7734C144.826 48.1257 144.964 48.4676 145.101 48.8096C145.163 48.7943 145.224 48.7794 145.284 48.7646C145.304 48.7306 145.324 48.6971 145.344 48.6641C145.361 48.6196 145.377 48.5764 145.394 48.5332C145.412 48.4852 145.43 48.4382 145.448 48.3916C145.467 48.3412 145.486 48.2921 145.504 48.2432C145.541 48.1465 145.578 48.0498 145.615 47.9531C145.644 47.8766 145.672 47.8018 145.7 47.7275C145.723 48.2737 145.723 48.2742 145.746 48.8096H145.931V47.3672H145.607C145.479 47.6835 145.357 47.999 145.261 48.3262C145.253 48.3526 145.246 48.3786 145.238 48.4043H145.146C145.146 48.1339 145.147 48.1333 144.731 47.3672H144.408V48.8096ZM121.121 40.5439C120.498 40.1222 119.704 40.0041 118.979 40.2578C118.597 40.4267 118.286 40.6984 118.115 41.0762C117.977 41.4727 117.961 41.9302 118.144 42.3164C118.422 42.8338 118.421 42.8341 119.668 43.2432C119.948 43.3334 120.212 43.4166 120.452 43.5879C120.644 43.7367 120.773 43.8912 120.807 44.1377C120.816 44.4315 120.751 44.6459 120.545 44.8691C120.295 45.0912 120.04 45.1735 119.707 45.1816C119.179 45.1819 118.86 45.0356 118.486 44.6719C118.44 44.6235 118.439 44.6235 118.394 44.5762C118.237 44.6986 118.085 44.8177 117.933 44.9365C117.948 44.9823 117.963 45.0268 117.979 45.0713C118.23 45.3354 118.53 45.5116 118.864 45.6562C119.354 45.8305 119.957 45.8069 120.432 45.6094C120.828 45.4302 121.175 45.1484 121.341 44.7451C121.488 44.3228 121.492 43.9042 121.3 43.4941C120.989 43.0194 120.465 42.8299 119.939 42.6602C119.841 42.6283 119.742 42.5964 119.644 42.5635C119.316 42.4485 118.902 42.2966 118.742 41.9707C118.684 41.7399 118.652 41.4132 118.763 41.1963C118.943 40.9403 119.15 40.7943 119.455 40.7002C119.865 40.6541 120.234 40.6792 120.57 40.9258C120.686 41.0179 120.795 41.0892 120.931 41.1504C120.961 41.1281 120.992 41.1066 121.021 41.085C121.08 41.0414 121.081 41.0417 121.139 40.999C121.255 40.9135 121.255 40.9127 121.346 40.835V40.7451C121.277 40.668 121.203 40.6068 121.121 40.5439ZM125.001 40.1504C124.5 40.1507 124.112 40.2214 123.652 40.4287C122.931 40.8215 122.495 41.3968 122.245 42.1611C122.047 42.8541 122.145 43.6734 122.493 44.3057C122.511 44.3358 122.528 44.3653 122.545 44.3945C122.776 44.8017 123.113 45.1132 123.498 45.3809C124.186 45.7825 125.063 45.854 125.837 45.6875C125.878 45.677 125.918 45.6665 125.958 45.6562C126.383 45.5485 126.706 45.4039 127.111 45.2061V42.5918H125.221V43.0879H126.512V44.8906C126.371 44.9366 126.234 44.9808 126.097 45.0254C125.781 45.134 125.48 45.1705 125.146 45.1768C125.075 45.1773 125.074 45.1772 125.004 45.1777C124.871 45.1796 124.739 45.1792 124.606 45.1738C124.17 45.1288 123.711 44.8991 123.425 44.5723C123.392 44.5273 123.36 44.4831 123.329 44.4395C122.909 43.9011 122.777 43.2545 122.85 42.5918C122.856 42.546 122.862 42.5015 122.868 42.457C122.912 42.1163 123.05 41.8448 123.237 41.5557C123.558 41.1095 124.023 40.8017 124.574 40.6992C125.17 40.6407 125.815 40.6978 126.302 41.0684C126.415 41.1631 126.499 41.2259 126.65 41.2402C126.796 41.1216 126.901 41.0072 126.973 40.835C126.953 40.8149 126.935 40.7949 126.916 40.7754C126.437 40.326 125.79 40.1472 125.141 40.1484C125.093 40.149 125.047 40.1498 125.001 40.1504ZM113.689 45.6104H117.195V45.0703H114.289V43.0869H116.918V42.5918H114.289V40.7891H117.103V40.293H113.689V45.6104Z" fill="white"/>
</g>
<g clip-path="url(#clip2_3621_3841)">
<path d="M194.101 36.8981C192.93 34.092 192.329 31.0861 192.333 28.0513C192.333 15.2711 202.789 4.90879 215.686 4.90879C228.582 4.90879 239.036 15.2737 239.036 28.0513C239.04 31.0859 238.44 34.0917 237.27 36.8981H240.716C241.729 34.0556 242.245 31.0642 242.241 28.0513C242.241 13.3883 230.252 1.50781 215.459 1.50781C200.666 1.50781 188.668 13.3883 188.668 28.0513C188.666 31.0643 189.182 34.0558 190.196 36.8981H194.101Z" fill="white"/>
<path d="M225.587 49.6316C225.674 49.5421 225.738 49.4329 225.772 49.3135C225.806 49.215 225.824 49.1119 225.826 49.0079C225.823 48.9038 225.805 48.8006 225.772 48.7016C225.736 48.5849 225.673 48.4781 225.587 48.3901C225.474 48.2839 225.34 48.2017 225.194 48.1488C224.986 48.0729 224.765 48.0388 224.543 48.0485H223.464V49.9726H224.543C224.765 49.982 224.986 49.9481 225.194 49.8729C225.34 49.8197 225.474 49.7376 225.587 49.6316Z" fill="white"/>
<path d="M230.752 41.7565C230.778 41.7139 230.791 41.6646 230.788 41.6149C230.792 41.5717 230.782 41.5285 230.758 41.4916C230.74 41.4609 230.714 41.4363 230.681 41.4208C230.65 41.3976 230.613 41.3833 230.574 41.3795C230.535 41.3697 230.495 41.3657 230.455 41.3677H230.114V41.868H230.513C230.56 41.8625 230.606 41.8505 230.65 41.8326C230.691 41.8179 230.727 41.7914 230.752 41.7565Z" fill="white"/>
<path d="M204.054 45.0119C204.289 44.8242 204.477 44.5857 204.603 44.3148C204.873 43.6704 204.873 42.9465 204.603 42.3021C204.479 42.029 204.291 41.789 204.054 41.6017C203.813 41.4108 203.535 41.2706 203.237 41.1899C202.909 41.1001 202.569 41.056 202.228 41.0587H201.179V45.5542H202.228C202.569 45.5559 202.909 45.5102 203.237 45.4185C203.535 45.34 203.813 45.2016 204.054 45.0119Z" fill="white"/>
<path d="M231.192 41.1671C231.092 41.0659 230.972 40.9857 230.84 40.9316C230.702 40.8736 230.554 40.8438 230.405 40.8438C230.255 40.8438 230.107 40.8736 229.969 40.9316C229.702 41.0446 229.49 41.2565 229.379 41.5218C229.32 41.6575 229.289 41.8037 229.289 41.9514C229.289 42.0991 229.32 42.2453 229.379 42.3809C229.49 42.6462 229.702 42.858 229.969 42.9712C230.107 43.0291 230.255 43.059 230.405 43.059C230.554 43.059 230.702 43.0291 230.84 42.9712C230.972 42.917 231.092 42.8369 231.192 42.7357C231.295 42.6358 231.377 42.5156 231.43 42.3829C231.49 42.2472 231.52 42.1011 231.52 41.9534C231.52 41.8056 231.49 41.6595 231.43 41.5238C231.377 41.3896 231.296 41.268 231.192 41.1671ZM230.84 42.6911L230.393 42.0353H230.115V42.6911H229.929V41.1992H230.508C230.675 41.1992 230.799 41.2346 230.871 41.3054C230.909 41.3477 230.938 41.397 230.957 41.4505C230.975 41.504 230.982 41.5606 230.978 41.6169C230.979 41.6769 230.969 41.7365 230.949 41.7933C230.93 41.8401 230.902 41.8823 230.865 41.9173C230.832 41.9515 230.791 41.9775 230.746 41.9934C230.7 42.0145 230.652 42.0303 230.603 42.0406L231.05 42.6964L230.84 42.6911Z" fill="white"/>
<path d="M195.118 49.6315C195.207 49.5423 195.273 49.4332 195.309 49.3135C195.338 49.214 195.355 49.1113 195.357 49.0079C195.354 48.9043 195.338 48.8014 195.309 48.7016C195.271 48.5845 195.206 48.4778 195.118 48.3901C195.008 48.2839 194.876 48.2017 194.731 48.1488C194.521 48.073 194.298 48.0389 194.075 48.0484H192.995V49.9725H194.075C194.298 49.9819 194.521 49.948 194.731 49.8729C194.876 49.8197 195.008 49.7376 195.118 49.6315Z" fill="white"/>
<path d="M242.36 39.168H187.639C187.118 39.1687 186.603 39.2706 186.122 39.468C185.642 39.6654 185.205 39.9543 184.838 40.3183C184.471 40.6822 184.18 41.114 183.982 41.589C183.784 42.064 183.683 42.5728 183.685 43.0864V50.6359C183.683 51.1495 183.784 51.6584 183.982 52.1334C184.18 52.6084 184.471 53.0403 184.838 53.4043C185.205 53.7683 185.642 54.0573 186.122 54.2548C186.603 54.4522 187.118 54.5542 187.639 54.555H242.36C243.411 54.5526 244.419 54.1383 245.16 53.4034C245.902 52.6684 246.317 51.673 246.315 50.6359V43.0864C246.316 42.5729 246.215 42.0643 246.017 41.5895C245.819 41.1147 245.528 40.683 245.16 40.3192C244.793 39.9553 244.357 39.6664 243.876 39.4689C243.396 39.2713 242.881 39.1691 242.36 39.168ZM216.879 40.5976H217.535L220.864 45.3345H220.876V40.5976H221.388V46.0112H220.732L217.404 41.2685H217.386V46.0112H216.879V40.5976ZM213.887 43.9927H215.796V44.4045H213.891L213.887 43.9927ZM206.037 43.9927H207.946V44.4045H206.041L206.037 43.9927ZM195.483 53.0014L193.944 50.43H192.996V53.0014H192.488V47.5878H193.92L194.218 47.5937C194.352 47.5991 194.486 47.6149 194.617 47.6409C194.768 47.6664 194.916 47.708 195.058 47.7649C195.206 47.8185 195.342 47.9003 195.457 48.0055C195.582 48.12 195.681 48.2584 195.749 48.4121C195.832 48.5992 195.873 48.802 195.869 49.0063C195.877 49.2298 195.829 49.4519 195.731 49.6536C195.648 49.8108 195.532 49.9491 195.392 50.0595C195.256 50.1638 195.102 50.2436 194.938 50.2949C194.784 50.3428 194.627 50.3782 194.467 50.4005L196.062 53.0014H195.483ZM200.529 53.0014H197.063V47.5878H200.404V48.0469H197.571V49.971H200.23V50.43H197.571V52.5424H200.529V53.0014ZM200.667 40.5976H202.361C202.832 40.5976 203.231 40.6507 203.565 40.7681C203.863 40.8632 204.141 41.0129 204.383 41.2095C204.592 41.3721 204.768 41.5724 204.901 41.7997C205.019 41.9963 205.113 42.2056 205.182 42.4234C205.237 42.5997 205.273 42.7813 205.289 42.9651C205.303 43.0782 205.311 43.1921 205.313 43.3061C205.313 43.3717 205.307 43.4825 205.289 43.6477C205.272 43.8293 205.237 44.0087 205.182 44.1829C205.113 44.4007 205.019 44.6099 204.901 44.8065C204.768 45.0351 204.592 45.2368 204.383 45.4014C204.138 45.5936 203.861 45.7429 203.565 45.8427C203.176 45.9637 202.769 46.0213 202.361 46.0132H200.667V40.5976ZM206.148 52.6486C205.838 52.8226 205.505 52.9514 205.158 53.0309C204.815 53.1019 204.465 53.1375 204.114 53.1372C203.721 53.1403 203.33 53.0704 202.963 52.9312C202.629 52.796 202.327 52.5952 202.074 52.341C201.822 52.0802 201.625 51.772 201.496 51.4347C201.217 50.6985 201.217 49.8881 201.496 49.1519C201.627 48.8172 201.823 48.5112 202.074 48.2515C202.326 47.997 202.629 47.7962 202.963 47.6612C203.328 47.5125 203.719 47.4385 204.114 47.4435C204.925 47.4435 205.581 47.6967 206.083 48.197L205.706 48.5794C205.621 48.4731 205.518 48.3815 205.403 48.3085C205.281 48.2201 205.149 48.147 205.009 48.0908C204.867 48.03 204.719 47.9847 204.568 47.9557C204.419 47.921 204.267 47.9031 204.114 47.9026C203.783 47.8995 203.454 47.9615 203.148 48.0849C202.874 48.2047 202.627 48.3768 202.42 48.5912C202.218 48.8126 202.06 49.0701 201.955 49.3499C201.74 49.9595 201.74 50.6231 201.955 51.2327C202.058 51.5117 202.216 51.7677 202.42 51.9862C202.625 52.2024 202.873 52.3748 203.148 52.4925C203.454 52.6187 203.783 52.6808 204.114 52.6748C204.39 52.6749 204.665 52.653 204.937 52.6093C205.185 52.566 205.423 52.4804 205.641 52.3561V50.5363H204.329V50.0772H206.148V52.6486ZM208.158 53.0014H207.646V47.5878H208.158V53.0014ZM212.65 52.2663C212.558 52.4492 212.429 52.6117 212.271 52.7439C212.113 52.8762 211.929 52.9754 211.731 53.0355C211.524 53.1042 211.306 53.1381 211.087 53.1359C210.746 53.1402 210.407 53.0781 210.09 52.9529C209.777 52.816 209.509 52.596 209.315 52.3174L209.798 52C209.92 52.2162 210.102 52.3936 210.323 52.5115C210.548 52.6267 210.8 52.6836 211.054 52.6768C211.216 52.6787 211.378 52.6527 211.531 52.6001C211.675 52.5556 211.809 52.4837 211.925 52.3882C212.039 52.2942 212.13 52.1762 212.192 52.0429C212.254 51.9096 212.285 51.7643 212.283 51.6177C212.288 51.4529 212.247 51.2898 212.164 51.1468C212.077 51.0266 211.968 50.9244 211.841 50.8465C211.697 50.7659 211.545 50.7 211.388 50.6497L210.875 50.4792C210.696 50.4202 210.523 50.3612 210.356 50.291C210.192 50.2185 210.039 50.1234 209.903 50.0084C209.767 49.8885 209.657 49.7422 209.581 49.5788C209.496 49.3735 209.455 49.1531 209.461 48.9315C209.458 48.7115 209.507 48.4938 209.605 48.2961C209.697 48.1142 209.829 47.9552 209.992 47.8311C210.157 47.6993 210.348 47.6032 210.553 47.5491C210.768 47.4821 210.992 47.4483 211.218 47.4488C211.502 47.4457 211.784 47.4997 212.047 47.6075C212.313 47.7183 212.543 47.8999 212.711 48.1321L212.27 48.4436C212.154 48.2759 211.998 48.1386 211.816 48.0436C211.628 47.9509 211.419 47.9046 211.208 47.9085C211.049 47.9088 210.89 47.9309 210.737 47.9741C210.596 48.0177 210.463 48.0842 210.343 48.1708C210.233 48.2559 210.143 48.3643 210.081 48.4882C210.009 48.6262 209.974 48.7803 209.98 48.9355C209.98 49.2063 210.046 49.4181 210.188 49.5591C210.333 49.7123 210.51 49.8312 210.708 49.9067C210.928 49.9919 211.153 50.0646 211.381 50.1244C211.617 50.1818 211.845 50.2665 212.061 50.3769C212.268 50.4831 212.446 50.6364 212.58 50.8242C212.717 51.0209 212.789 51.2832 212.789 51.619C212.791 51.8422 212.744 52.0631 212.65 52.2663ZM212.912 43.9376C212.913 44.2189 212.879 44.4992 212.811 44.7724C212.75 45.0276 212.637 45.2678 212.479 45.4787C212.314 45.6876 212.101 45.855 211.858 45.9673C211.564 46.0978 211.243 46.1602 210.92 46.1496C210.55 46.1496 210.234 46.0906 209.984 45.9673C209.74 45.8566 209.527 45.6889 209.363 45.4787C209.205 45.2678 209.092 45.0276 209.031 44.7724C208.964 44.5009 208.93 44.2224 208.93 43.9429V40.5983H209.437V43.8051C209.438 44.0141 209.456 44.2227 209.49 44.4288C209.525 44.6436 209.598 44.8507 209.705 45.0407C209.814 45.2292 209.967 45.3888 210.153 45.5056C210.343 45.6296 210.6 45.6879 210.922 45.6879C211.245 45.6879 211.495 45.6296 211.692 45.5056C211.877 45.3888 212.03 45.2292 212.139 45.0407C212.242 44.8494 212.313 44.6427 212.348 44.4288C212.382 44.2227 212.4 44.0141 212.402 43.8051V40.5983H212.91L212.912 43.9376ZM217.535 48.0449H215.668V52.9995H215.155V48.0469H213.288V47.5878H217.535V48.0449ZM221.842 52.9995H218.376V47.5878H221.717V48.0469H218.883V49.971H221.542V50.43H218.883V52.5424H221.842V52.9995ZM222.468 43.9907H224.371V44.4026H222.468V43.9907ZM225.945 52.9995L224.411 50.43H223.464V53.0014H222.948V47.5878H224.386L224.678 47.5937C224.814 47.5991 224.95 47.6149 225.084 47.6409C225.233 47.6664 225.379 47.708 225.519 47.7649C225.669 47.8183 225.807 47.9 225.925 48.0055C226.048 48.1216 226.147 48.2596 226.217 48.4121C226.298 48.5997 226.337 48.8024 226.331 49.0063C226.34 49.2295 226.294 49.4515 226.198 49.6536C226.111 49.8083 225.996 49.9459 225.858 50.0595C225.722 50.1627 225.568 50.2423 225.405 50.2949C225.251 50.3422 225.093 50.3775 224.933 50.4005L226.529 53.0014L225.945 52.9995ZM226.888 46.1496C226.546 46.155 226.207 46.0909 225.891 45.9614C225.577 45.8287 225.308 45.6103 225.115 45.3318L225.598 45.0138C225.721 45.2301 225.903 45.4078 226.123 45.526C226.348 45.6405 226.599 45.6971 226.852 45.6906C227.014 45.6924 227.176 45.6667 227.329 45.6145C227.471 45.5689 227.603 45.497 227.717 45.4027C227.829 45.3116 227.919 45.1969 227.98 45.0669C228.048 44.9316 228.082 44.7824 228.081 44.6314C228.088 44.4657 228.044 44.3017 227.956 44.1606C227.877 44.0367 227.768 43.9337 227.64 43.8609C227.495 43.7793 227.343 43.7104 227.186 43.655L226.667 43.4897C226.493 43.4332 226.322 43.3675 226.155 43.293C225.99 43.2245 225.837 43.1314 225.701 43.0169C225.567 42.8956 225.457 42.7497 225.379 42.5873C225.294 42.3819 225.254 42.1616 225.26 41.94C225.255 41.72 225.304 41.5021 225.403 41.3046C225.495 41.1226 225.627 40.9636 225.79 40.8396C225.956 40.7079 226.147 40.6099 226.351 40.5511C226.567 40.4891 226.791 40.4576 227.016 40.4573C227.301 40.4546 227.583 40.5086 227.845 40.616C228.112 40.7267 228.342 40.9084 228.51 41.1406L228.069 41.4528C227.952 41.281 227.792 41.1416 227.605 41.0478C227.419 40.954 227.21 40.909 227.001 40.917C226.842 40.9176 226.683 40.9397 226.53 40.9826C226.389 41.0242 226.258 41.0909 226.142 41.1793C226.032 41.2659 225.941 41.3742 225.876 41.4974C225.808 41.6367 225.775 41.7901 225.78 41.9446C225.78 42.2148 225.847 42.4266 225.989 42.5683C226.135 42.7192 226.312 42.8375 226.508 42.9152C226.73 43.0036 226.957 43.0763 227.188 43.1329C227.424 43.1962 227.652 43.2841 227.869 43.3953C228.075 43.5012 228.253 43.6546 228.387 43.8425C228.525 44.0393 228.596 44.2957 228.596 44.6367C228.599 44.8598 228.552 45.0809 228.459 45.284C228.368 45.4665 228.24 45.6287 228.083 45.7607C227.923 45.8925 227.739 45.9925 227.54 46.0552C227.33 46.1224 227.109 46.1543 226.888 46.1496ZM230.998 53.0047H227.535V47.5878H230.873V48.0469H228.039V49.971H230.694V50.43H228.039V52.5424H230.998V53.0047ZM231.607 42.4542C231.538 42.6064 231.443 42.7457 231.326 42.866C231.206 42.985 231.064 43.0808 230.909 43.1487C230.748 43.2149 230.575 43.249 230.401 43.249C230.227 43.249 230.055 43.2149 229.894 43.1487C229.738 43.0808 229.597 42.985 229.477 42.866C229.36 42.7448 229.265 42.6043 229.197 42.4509C229.13 42.2925 229.096 42.1225 229.096 41.9509C229.096 41.7792 229.13 41.6092 229.197 41.4508C229.266 41.2986 229.361 41.1593 229.477 41.039C229.596 40.9199 229.738 40.8258 229.895 40.7622C230.055 40.6926 230.227 40.6566 230.402 40.6566C230.577 40.6566 230.749 40.6926 230.909 40.7622C231.066 40.8258 231.208 40.9199 231.327 41.039C231.443 41.1594 231.538 41.2987 231.607 41.4508C231.674 41.6093 231.708 41.7792 231.708 41.9509C231.708 42.1225 231.674 42.2924 231.607 42.4509L231.607 42.4542ZM236.664 50.6392C236.618 51.0489 236.484 51.4442 236.271 51.7987C236.137 52.0257 235.964 52.227 235.758 52.3928C235.51 52.5841 235.232 52.7333 234.935 52.8342C234.545 52.9556 234.138 53.0132 233.73 53.0047H232.036V47.5878H233.73C234.201 47.5878 234.607 47.6409 234.935 47.759C235.234 47.8548 235.513 48.0045 235.758 48.2003C235.962 48.366 236.136 48.5658 236.271 48.7905C236.387 48.9877 236.481 49.1968 236.551 49.4142C236.605 49.5909 236.643 49.772 236.664 49.9552C236.676 50.1146 236.688 50.232 236.688 50.2969C236.688 50.3618 236.676 50.4713 236.664 50.6359V50.6392ZM238.039 47.8763H237.568V49.1414H237.383V47.8763H236.909V47.7117H238.039V47.8763ZM239.799 49.1414H239.608V47.8881H239.602L239.103 49.1414H238.99L238.489 47.8881H238.483V49.1414H238.292V47.7117H238.596L239.049 48.8528L239.502 47.7117H239.795L239.799 49.1414Z" fill="white"/>
<path d="M235.43 48.59C235.185 48.4022 234.905 48.2624 234.607 48.1782C234.279 48.0881 233.939 48.0439 233.599 48.047H232.549V52.5425H233.599C233.939 52.5444 234.279 52.4989 234.607 52.4074C234.906 52.3274 235.186 52.1894 235.43 52.0015C235.662 51.8112 235.847 51.5718 235.972 51.3011C236.107 50.9822 236.176 50.6402 236.176 50.2948C236.176 49.9494 236.107 49.6074 235.972 49.2885C235.849 49.0176 235.663 48.7786 235.43 48.59Z" fill="white"/>
<path d="M208.677 17.1016L225.17 34.0658L223.434 35.7256L220.833 33.0539L218.263 35.5138C217.675 36.0808 216.979 36.5268 216.215 36.8258C215.451 37.1247 214.634 37.2706 213.813 37.255H213.807C212.569 37.2265 211.368 36.838 210.354 36.1381C209.34 35.4382 208.559 34.4582 208.108 33.3213C207.656 32.1845 207.556 30.9414 207.819 29.7485C208.082 28.5555 208.697 27.4659 209.586 26.6166L211.31 24.9771L212.986 26.6953L211.262 28.3348C210.528 29.035 210.106 29.9934 210.086 31.0002C210.067 32.0071 210.453 32.9804 211.16 33.7071C211.51 34.0663 211.928 34.3537 212.39 34.5528C212.853 34.7518 213.351 34.8585 213.856 34.8668C214.36 34.875 214.862 34.7846 215.331 34.6007C215.8 34.4169 216.227 34.1433 216.589 33.7956L219.159 31.3357L208.677 20.5675V17.1016Z" fill="white"/>
<path d="M220.621 19.8164V22.2875C221.158 22.4842 221.6 22.7937 222.011 23.2115C222.715 23.941 223.099 24.9151 223.079 25.9221C223.058 26.9291 222.636 27.8875 221.903 28.589L221.683 28.795L223.371 30.5L223.579 30.3033C224.776 29.1622 225.464 27.5997 225.495 25.9584C225.525 24.3172 224.894 22.7311 223.741 21.5477C222.898 20.6787 221.812 20.0761 220.621 19.8164Z" fill="#C0C0C0"/>
<path d="M210.247 14.7144L209.055 15.8535L210.731 17.5717L211.924 16.4358C212.196 16.1751 212.517 15.9699 212.87 15.832C213.222 15.6941 213.599 15.6263 213.978 15.6324C214.357 15.6384 214.731 15.7184 215.079 15.8675C215.426 16.0166 215.741 16.2321 216.004 16.5014C216.534 17.0492 216.823 17.7813 216.808 18.5383C216.794 19.2953 216.477 20.016 215.927 20.5438L214.738 21.6639L216.414 23.3821L217.601 22.258C219.701 20.2474 219.758 16.9152 217.738 14.8383C217.255 14.3441 216.678 13.9488 216.039 13.675C215.401 13.4013 214.714 13.2544 214.018 13.2429C213.323 13.2314 212.631 13.3555 211.984 13.6079C211.337 13.8604 210.746 14.2364 210.247 14.7144Z" fill="#C0C0C0"/>
<path fill-rule="evenodd" clip-rule="evenodd" d="M197.988 33.1478C197.932 32.9483 197.853 32.7559 197.753 32.5739C197.661 32.4139 197.54 32.2722 197.395 32.1562C197.255 32.0455 197.089 31.9708 196.912 31.9385C196.704 31.9055 196.491 31.921 196.29 31.9837C196.087 32.0303 195.896 32.1185 195.729 32.2427C195.591 32.3484 195.48 32.4857 195.407 32.6428C195.339 32.8031 195.305 32.9753 195.306 33.1491C195.304 33.3458 195.33 33.5419 195.383 33.7314L195.55 34.3374L198.127 33.6429L197.988 33.1478ZM195.119 35.1657L194.72 33.6947C194.651 33.452 194.622 33.1996 194.636 32.9477C194.652 32.7044 194.714 32.4661 194.82 32.246C194.937 32.0217 195.1 31.8235 195.298 31.6637C195.535 31.4843 195.806 31.354 196.095 31.2807C196.366 31.2003 196.652 31.1821 196.931 31.2276C197.21 31.273 197.475 31.3809 197.706 31.543C198.108 31.8422 198.4 32.264 198.535 32.7431L198.917 34.138L195.119 35.1657Z" fill="white"/>
<path fill-rule="evenodd" clip-rule="evenodd" d="M196.467 26.1566C196.686 26.1555 196.904 26.2002 197.105 26.2878C197.288 26.3647 197.453 26.4789 197.588 26.6229C197.718 26.7698 197.819 26.9395 197.886 27.1232C197.956 27.3218 197.988 27.5311 197.982 27.741C197.98 27.9523 197.94 28.1616 197.863 28.3588C197.79 28.5401 197.683 28.706 197.546 28.8473C197.406 28.9862 197.237 29.0944 197.051 29.1647C196.846 29.2439 196.627 29.2801 196.407 29.271L193.92 29.2238L193.932 28.5352L196.401 28.5824C196.504 28.5824 196.606 28.5685 196.705 28.5411C196.816 28.5152 196.92 28.4661 197.009 28.3971C197.099 28.328 197.172 28.2407 197.224 28.141C197.281 28.0114 197.312 27.8718 197.314 27.7304C197.316 27.589 197.289 27.4486 197.236 27.3174C197.187 27.21 197.113 27.1153 197.021 27.0406C196.935 26.9756 196.839 26.9259 196.735 26.8937C196.636 26.8645 196.534 26.8486 196.431 26.8465L193.963 26.798L193.975 26.1094L196.467 26.1566Z" fill="white"/>
<path fill-rule="evenodd" clip-rule="evenodd" d="M194.402 23.3399L194.683 22.469L198.041 21.5574L198.047 21.5456L195.255 20.6747L195.471 20.0156L199.216 21.1921L198.953 22.0276L195.494 22.9457L195.488 22.9575L198.363 23.858L198.154 24.517L194.402 23.3399Z" fill="white"/>
<path fill-rule="evenodd" clip-rule="evenodd" d="M200.869 15.5432L200.834 15.7669C200.821 15.8405 200.817 15.9153 200.822 15.9898C200.823 16.0606 200.838 16.1304 200.864 16.1964C200.894 16.2686 200.941 16.333 201 16.3846C201.059 16.4419 201.131 16.4842 201.21 16.5079C201.282 16.5364 201.359 16.5485 201.437 16.5433C201.515 16.5333 201.592 16.5112 201.663 16.4777C201.738 16.4471 201.803 16.3986 201.854 16.3367C201.957 16.2378 202.022 16.107 202.039 15.9662C202.057 15.8297 202.063 15.6919 202.057 15.5544L200.869 15.5432ZM199.831 14.2251C199.746 14.3102 199.695 14.423 199.688 14.5425C199.681 14.5961 199.687 14.6508 199.707 14.7012C199.727 14.7517 199.76 14.7963 199.802 14.831C199.84 14.8676 199.885 14.8958 199.935 14.9137C199.991 14.9311 200.049 14.9428 200.108 14.9484C200.167 14.9543 200.233 14.9602 200.292 14.9602L200.472 14.9484L200.519 14.7517C200.531 14.6797 200.537 14.6069 200.537 14.534C200.539 14.4641 200.529 14.3944 200.507 14.328C200.484 14.263 200.445 14.2045 200.394 14.1575C200.357 14.1227 200.313 14.097 200.264 14.0827C200.215 14.0683 200.164 14.0656 200.114 14.0749C200.005 14.0889 199.905 14.1413 199.833 14.2224M202.601 14.9163L203.86 14.934L203.271 15.555H202.662C202.691 15.7714 202.677 15.9913 202.621 16.2023C202.549 16.4105 202.433 16.6011 202.28 16.7611C202.164 16.8841 202.029 16.9892 201.881 17.0726C201.746 17.1548 201.594 17.2082 201.436 17.2293C201.28 17.2519 201.122 17.2418 200.971 17.1998C200.806 17.1509 200.656 17.0618 200.535 16.9407C200.441 16.858 200.364 16.758 200.308 16.6463C200.256 16.5384 200.22 16.4235 200.201 16.3053C200.183 16.1844 200.183 16.0615 200.201 15.9406C200.218 15.8193 200.25 15.7006 200.296 15.5872L200.031 15.5695C199.948 15.5641 199.866 15.5525 199.786 15.5347C199.705 15.5161 199.627 15.4884 199.553 15.4521C199.472 15.4127 199.398 15.3611 199.332 15.2993C199.224 15.2011 199.138 15.0804 199.082 14.9458C199.034 14.8241 199.016 14.6933 199.028 14.5635C199.044 14.4306 199.082 14.3013 199.142 14.1811C199.271 13.9287 199.469 13.7169 199.714 13.5693C199.824 13.4976 199.948 13.4493 200.078 13.4276C200.203 13.4048 200.332 13.4109 200.454 13.4453C200.593 13.4885 200.719 13.5631 200.824 13.6631C200.91 13.7401 200.978 13.8345 201.023 13.9398C201.068 14.0386 201.097 14.1441 201.107 14.252C201.119 14.3634 201.119 14.4757 201.107 14.5871C201.092 14.6964 201.07 14.8047 201.04 14.911L201.965 14.9169L201.77 14.147L202.302 13.5824L202.601 14.9163Z" fill="white"/>
<path fill-rule="evenodd" clip-rule="evenodd" d="M207.58 11.958L208.17 11.7107C208.248 11.676 208.331 11.6347 208.421 11.5875C208.506 11.5395 208.583 11.4779 208.648 11.4051C208.71 11.3369 208.753 11.2537 208.773 11.1638C208.79 11.0574 208.774 10.9483 208.725 10.8516C208.648 10.6634 208.526 10.5579 208.373 10.5342C208.22 10.5106 208.009 10.5579 207.747 10.6654L207.132 10.9244L207.58 11.958ZM206.9 10.3841L207.484 10.1368C207.699 10.0424 207.837 9.93681 207.908 9.80893C207.94 9.7469 207.958 9.67859 207.96 9.60888C207.963 9.53917 207.95 9.46979 207.922 9.40569C207.894 9.34159 207.852 9.28437 207.799 9.2381C207.746 9.19183 207.684 9.15766 207.616 9.13804C207.472 9.10919 207.283 9.14395 207.037 9.25019L206.505 9.47381L206.9 10.3841ZM205.637 9.1892L207.033 8.59898C207.168 8.54082 207.311 8.4992 207.456 8.47503C207.595 8.45287 207.737 8.45688 207.874 8.48683C208.02 8.51795 208.156 8.58427 208.269 8.67983C208.383 8.7754 208.471 8.89723 208.525 9.03443C208.611 9.21465 208.626 9.42044 208.566 9.61088C208.503 9.79483 208.39 9.95789 208.238 10.0817L208.244 10.0935C208.358 10.0582 208.477 10.0462 208.596 10.0581C208.71 10.0646 208.821 10.0927 208.924 10.1408C209.024 10.19 209.114 10.2566 209.19 10.3375C209.277 10.4228 209.345 10.5248 209.389 10.6372C209.468 10.7928 209.502 10.9664 209.488 11.1396C209.474 11.3128 209.413 11.4791 209.312 11.6209C209.212 11.7583 209.089 11.8776 208.948 11.9737C208.798 12.0759 208.638 12.1638 208.471 12.236L207.176 12.783L205.637 9.1892Z" fill="white"/>
<path fill-rule="evenodd" clip-rule="evenodd" d="M212.227 8.86561C212.322 8.8479 212.426 8.83019 212.518 8.80658C212.611 8.78462 212.7 8.74879 212.781 8.70034C212.855 8.65441 212.915 8.5893 212.954 8.51213C212.999 8.41658 213.009 8.30879 212.984 8.20653C212.975 8.11073 212.937 8.01962 212.877 7.94421C212.82 7.88493 212.748 7.84227 212.668 7.82092C212.582 7.79707 212.492 7.78516 212.402 7.7855C212.312 7.79141 212.217 7.79731 212.136 7.80911L211.538 7.89699L211.693 8.94627L212.227 8.86561ZM210.759 7.4117L212.101 7.21496C212.281 7.18817 212.463 7.17851 212.644 7.1861C212.812 7.19419 212.978 7.23195 213.133 7.29759C213.281 7.3571 213.41 7.45719 213.503 7.58614C213.628 7.77026 213.701 7.98403 213.715 8.20537C213.729 8.42671 213.682 8.64762 213.58 8.84528C213.444 9.06536 213.225 9.22386 212.972 9.28663L214.254 10.8402L213.425 10.9635L212.28 9.45517L211.78 9.53059L212.03 11.1662L211.338 11.2665L210.759 7.4117Z" fill="white"/>
<path fill-rule="evenodd" clip-rule="evenodd" d="M217.952 9.5897L217.535 7.94233L216.748 9.4546L217.952 9.5897ZM217.35 7.09766L217.948 7.16324L219.172 11.2292L218.382 11.1321L218.125 10.2081L216.443 10.0114L215.99 10.8587L215.215 10.7708L217.35 7.09766Z" fill="white"/>
<path fill-rule="evenodd" clip-rule="evenodd" d="M221.764 11.4757C221.956 11.5559 222.157 11.6132 222.363 11.6462C222.547 11.6743 222.736 11.6663 222.917 11.6226C223.094 11.582 223.258 11.4991 223.395 11.3813C223.547 11.2363 223.667 11.0608 223.746 10.8665C223.83 10.6769 223.877 10.4732 223.883 10.2664C223.883 10.0921 223.84 9.92038 223.758 9.76607C223.676 9.61513 223.563 9.48286 223.426 9.37784C223.27 9.25549 223.097 9.15648 222.913 9.08404L222.328 8.8368L221.286 11.2751L221.764 11.4757ZM221.931 8L223.351 8.59022C223.583 8.68823 223.798 8.82095 223.989 8.9837C224.179 9.14692 224.332 9.34837 224.437 9.57457C224.542 9.80078 224.597 10.0465 224.598 10.2953C224.599 10.5893 224.536 10.88 224.413 11.1478C224.303 11.4277 224.127 11.6778 223.9 11.8777C223.698 12.0469 223.462 12.1716 223.208 12.2437C222.964 12.3134 222.71 12.3394 222.457 12.3204C222.212 12.3019 221.972 12.2441 221.747 12.1492L220.404 11.5879L221.931 8Z" fill="white"/>
<path fill-rule="evenodd" clip-rule="evenodd" d="M228.326 12.5349C228.333 12.4071 228.302 12.2801 228.236 12.1696C228.169 12.0559 228.08 11.9561 227.974 11.8758C227.912 11.8257 227.844 11.784 227.771 11.7519C227.703 11.7232 227.63 11.7053 227.556 11.6988C227.485 11.6927 227.413 11.7049 227.348 11.7342C227.273 11.7656 227.209 11.8167 227.163 11.8817C227.123 11.9248 227.095 11.9768 227.08 12.0331C227.066 12.0895 227.065 12.1485 227.079 12.205C227.115 12.3299 227.169 12.4488 227.241 12.5579C227.312 12.6818 227.401 12.811 227.497 12.9468C227.595 13.0757 227.673 13.2185 227.729 13.3704C227.785 13.5227 227.805 13.6854 227.789 13.8465C227.765 14.0401 227.684 14.2226 227.556 14.3711C227.442 14.5209 227.295 14.6435 227.127 14.7299C226.975 14.8057 226.808 14.846 226.638 14.8479C226.466 14.8481 226.296 14.816 226.137 14.7535C225.965 14.6879 225.804 14.5968 225.66 14.4833C225.471 14.34 225.309 14.1646 225.182 13.9652C225.053 13.762 224.981 13.5283 224.974 13.2884L225.702 13.2058C225.688 13.357 225.715 13.509 225.779 13.6471C225.843 13.785 225.939 13.9061 226.059 14.0006C226.125 14.0489 226.197 14.0883 226.274 14.118C226.347 14.1514 226.426 14.1714 226.507 14.177C226.586 14.1827 226.665 14.1706 226.739 14.1416C226.814 14.1085 226.879 14.0581 226.93 13.9947C226.971 13.9474 227.001 13.8916 227.018 13.8315C227.034 13.7714 227.037 13.7085 227.026 13.6471C226.997 13.5181 226.947 13.3948 226.876 13.2825C226.805 13.1592 226.715 13.0294 226.62 12.8943C226.522 12.7649 226.443 12.6222 226.387 12.4706C226.329 12.3206 226.307 12.1597 226.32 11.9998C226.344 11.8061 226.425 11.6236 226.553 11.4751C226.663 11.3293 226.809 11.2139 226.977 11.14C227.129 11.0759 227.294 11.0457 227.46 11.0515C227.631 11.0521 227.799 11.0883 227.955 11.1577C228.122 11.2219 228.279 11.3103 228.42 11.42C228.58 11.5427 228.719 11.6897 228.831 11.8555C228.948 12.0247 229.023 12.2178 229.052 12.4201L228.326 12.5349Z" fill="white"/>
<path fill-rule="evenodd" clip-rule="evenodd" d="M231.057 14.9705L230.306 14.0471L230.8 13.6523L232.734 16.0355L232.244 16.4303L231.493 15.5063L228.922 17.5596L228.486 17.0245L231.057 14.9705Z" fill="white"/>
<path fill-rule="evenodd" clip-rule="evenodd" d="M232.942 19.8048C232.984 19.8927 233.032 19.9812 233.08 20.0639C233.128 20.1447 233.188 20.218 233.258 20.2816C233.324 20.3391 233.405 20.3777 233.491 20.3931C233.596 20.4082 233.703 20.3874 233.795 20.3341C233.885 20.2987 233.962 20.2371 234.016 20.1576C234.058 20.086 234.08 20.005 234.082 19.9222C234.08 19.8328 234.064 19.7442 234.034 19.6599C234.007 19.574 233.976 19.4897 233.939 19.4074L233.682 18.8703L232.715 19.3176L232.942 19.8048ZM233.932 17.9922L234.505 19.2159C234.581 19.3784 234.641 19.548 234.684 19.7222C234.725 19.8837 234.737 20.051 234.72 20.2167C234.702 20.3742 234.642 20.5244 234.547 20.6521C234.428 20.7999 234.274 20.9169 234.099 20.9931C233.867 21.1078 233.601 21.1391 233.348 21.0817C233.096 21.0137 232.881 20.851 232.75 20.6285L231.611 22.2877L231.253 21.5348L232.383 20.0225L232.168 19.5694L230.66 20.2639L230.367 19.6402L233.932 17.9922Z" fill="white"/>
<path fill-rule="evenodd" clip-rule="evenodd" d="M235.859 22.8984L236.343 25.4174L235.716 25.5348L235.364 23.6933L234.416 23.8697L234.75 25.6174L234.129 25.7348L233.795 23.9871L232.745 24.1871L233.116 26.123L232.495 26.2411L231.994 23.6283L235.859 22.8984Z" fill="white"/>
<path fill-rule="evenodd" clip-rule="evenodd" d="M236.498 27.999L236.355 30.5586L235.723 30.5232L235.83 28.6522L234.864 28.599L234.762 30.3703L234.13 30.3349L234.231 28.5636L233.163 28.5046L233.056 30.4759L232.424 30.4405L232.573 27.7812L236.498 27.999Z" fill="white"/>
<path fill-rule="evenodd" clip-rule="evenodd" d="M235.042 33.6743L235.388 32.5391L235.996 32.7214L235.096 35.6456L234.493 35.4633L234.839 34.3274L231.684 33.3805L231.886 32.7214L235.042 33.6743Z" fill="white"/>
</g>
<defs>
<clipPath id="clip0_3621_3841">
<rect width="61" height="56" fill="white"/>
</clipPath>
<clipPath id="clip1_3621_3841">
<rect width="72" height="53" fill="white" transform="translate(85 1.5)"/>
</clipPath>
<clipPath id="clip2_3621_3841">
<rect width="68" height="53" fill="white" transform="translate(181 1.5)"/>
</clipPath>
</defs>
</svg>
