<svg width="101" height="60" viewBox="0 0 101 60" fill="none" xmlns="http://www.w3.org/2000/svg">
<path d="M0.000976562 39.6006C0.000976562 29.1024 8.52826 20.9297 19.6401 20.9297C26.0716 20.9297 31.9422 23.817 35.2969 28.186L30.4741 33.0479C29.1954 31.397 27.5632 30.0588 25.7001 29.1315C23.837 28.2042 21.7881 27.7133 19.7104 27.6933C13.0715 27.6933 7.75814 32.697 7.75814 39.6006C7.75814 46.577 13.0715 51.5806 19.7104 51.5806C21.8639 51.577 23.9867 51.0733 25.9147 50.1079C27.8409 49.1424 29.5218 47.7406 30.824 46.0133L35.5764 50.7351C32.3625 55.3151 26.2105 58.3442 19.6401 58.3442C8.52826 58.3442 0.000976562 50.1715 0.000976562 39.6006Z" fill="#D1D1D1"/>
<path d="M49.4855 22.1953H41.8672V57.0735H49.4855V22.1953Z" fill="#D1D1D1"/>
<path d="M63.6765 47.707V28.6834H55.3584V22.1998H64.0246V14.7307L71.1541 11.207V22.1998H82.4787V28.6834H71.1541V46.4398C71.1541 49.9616 73.1128 51.5125 76.8173 51.5125C78.7435 51.5216 80.6517 51.1143 82.4084 50.3143V56.9379C80.2062 57.9125 77.8219 58.3925 75.4177 58.347C68.6381 58.347 63.6765 54.6125 63.6765 47.707Z" fill="#D1D1D1"/>
<path d="M96.1075 22.1953H88.4893V57.0735H96.1075V22.1953Z" fill="#D1D1D1"/>
<path d="M68.9168 0.000104532C75.1752 -0.0144409 81.3434 1.4892 86.9021 4.38374C92.4625 7.27829 97.2491 11.4783 100.86 16.631H91.9827C89.0736 13.3692 85.5169 10.7637 81.5436 8.97829C77.5686 7.19465 73.267 6.27102 68.9168 6.27102C64.5666 6.27102 60.2651 7.19465 56.2918 8.97829C52.3186 10.7637 48.7619 13.3692 45.851 16.631H36.9756C40.5845 11.4783 45.373 7.27829 50.9316 4.38374C56.492 1.4892 62.6602 -0.0144409 68.9168 0.000104532Z" fill="#7A7A7A"/>
</svg>
