<svg width="128" height="48" viewBox="0 0 128 48" fill="none" xmlns="http://www.w3.org/2000/svg">
<g clip-path="url(#clip0_3722_6018)">
<path d="M23.1507 44.6523H0V47.9946H23.1507V44.6523Z" fill="#D1D1D1"/>
<path d="M23.1507 38.2695H0V41.6118H23.1507V38.2695Z" fill="#D1D1D1"/>
<path d="M16.5348 31.8945H6.60449V35.2368H16.5348V31.8945Z" fill="#D1D1D1"/>
<path d="M16.5348 25.5156H6.60449V28.8579H16.5348V25.5156Z" fill="#D1D1D1"/>
<path d="M16.5348 19.1406H6.60449V22.4829H16.5348V19.1406Z" fill="#D1D1D1"/>
<path d="M16.5348 12.7539H6.60449V16.0961H16.5348V12.7539Z" fill="#D1D1D1"/>
<path d="M23.1507 6.375H0V9.71723H23.1507V6.375Z" fill="#D1D1D1"/>
<path d="M23.1507 0H0V3.34223H23.1507V0Z" fill="#D1D1D1"/>
<path d="M26.4541 47.9629L51.1146 47.9985C54.4169 47.9985 57.4007 46.7185 59.6297 44.6562H26.4545L26.4541 47.9629Z" fill="#D1D1D1"/>
<path d="M26.4541 41.6118H62.0595C62.661 40.5807 63.1091 39.4547 63.3805 38.2695H26.4546L26.4541 41.6118Z" fill="#D1D1D1"/>
<path d="M42.9888 31.8945H33.0703V35.2368H42.9888V31.8945Z" fill="#D1D1D1"/>
<path d="M52.918 31.8945V35.2368H63.7446C63.7446 34.0871 63.5913 32.9613 63.2964 31.8945H52.918Z" fill="#D1D1D1"/>
<path d="M59.2883 25.5156H33.0703V28.8579H62.059C61.3041 27.5778 60.3724 26.4519 59.2874 25.5156H59.2883Z" fill="#D1D1D1"/>
<path d="M33.0703 19.1406V22.4829H59.2883C60.3969 21.5465 61.3285 20.4206 62.0599 19.1406H33.0703Z" fill="#D1D1D1"/>
<path d="M42.9888 12.7539H33.0703V16.0961H42.9888V12.7539Z" fill="#D1D1D1"/>
<path d="M52.918 16.0961H63.2964C63.5913 15.0295 63.7446 13.9036 63.7446 12.7539H52.918V16.0961Z" fill="#D1D1D1"/>
<path d="M62.0595 6.375H26.4541V9.71723H63.38C63.0734 8.53204 62.6252 7.4062 62.0592 6.375H62.0595Z" fill="#D1D1D1"/>
<path d="M51.1146 0H26.4541V3.34223H59.6186C57.4014 1.27996 54.3941 0 51.1154 0H51.1146Z" fill="#D1D1D1"/>
<path d="M66.1514 9.71723H88.4293L87.2851 6.375H66.1514V9.71723Z" fill="#D1D1D1"/>
<path d="M66.1514 3.34223H86.2361L85.0918 0H66.1514V3.34223Z" fill="#D1D1D1"/>
<path d="M102.522 48.0022V44.6602H119.07V48.0022H102.522Z" fill="#D1D1D1"/>
<path d="M102.522 41.6115V38.2695H119.07V41.6115H102.522Z" fill="#D1D1D1"/>
<path d="M92.6038 21.8425L91.6727 19.1406H82.6853H72.7549V22.4826H82.6853V19.4134L83.7355 22.4826H101.473L102.522 19.4134V22.4826H112.453V19.1406H102.522H93.5361L92.6038 21.8425Z" fill="#D1D1D1"/>
<path d="M112.454 12.7539H95.7302L94.5859 16.0959H112.454V12.7539Z" fill="#D1D1D1"/>
<path d="M119.069 3.34223V0H100.129L98.9844 3.34223H119.069Z" fill="#D1D1D1"/>
<path d="M91.4609 44.6562L92.604 47.9623L93.7483 44.6562H91.4609Z" fill="#D1D1D1"/>
<path d="M89.2422 38.2695L90.4103 41.6115H94.798L95.9768 38.2695H89.2422Z" fill="#D1D1D1"/>
<path d="M87.0137 31.8945L88.1817 35.2365H97.0274L98.1943 31.8945H87.0137Z" fill="#D1D1D1"/>
<path d="M85.9646 28.8576H99.2563L100.389 25.5156H84.8203L85.9646 28.8576Z" fill="#D1D1D1"/>
<path d="M72.7549 16.0959H90.6225L89.4794 12.7539H72.7549V16.0959Z" fill="#D1D1D1"/>
<path d="M119.069 6.375H97.9222L96.791 9.71723H119.069V6.375Z" fill="#D1D1D1"/>
<path d="M82.6985 44.6562H66.1514V47.9985H82.6985V44.6562Z" fill="#D1D1D1"/>
<path d="M82.6985 38.2695H66.1514V41.6118H82.6985V38.2695Z" fill="#D1D1D1"/>
<path d="M82.6852 31.8945H72.7549V35.2368H82.6852V31.8945Z" fill="#D1D1D1"/>
<path d="M82.6852 25.5156H72.7549V28.8579H82.6852V25.5156Z" fill="#D1D1D1"/>
<path d="M112.453 25.5156H102.522V28.8579H112.453V25.5156Z" fill="#D1D1D1"/>
<path d="M112.453 31.8945H102.522V35.2368H112.453V31.8945Z" fill="#D1D1D1"/>
<path d="M125.262 42.7344C124.567 42.7344 123.901 43.0117 123.41 43.5054C122.919 43.9991 122.643 44.6686 122.643 45.3668C122.643 46.065 122.919 46.7345 123.41 47.2282C123.901 47.7219 124.567 47.9992 125.262 47.9992C125.957 47.9992 126.623 47.7219 127.114 47.2282C127.606 46.7345 127.882 46.065 127.882 45.3668C127.882 44.6686 127.606 43.9991 127.114 43.5054C126.623 43.0117 125.957 42.7344 125.262 42.7344ZM125.262 43.213C125.831 43.213 126.376 43.4399 126.778 43.8438C127.18 44.2478 127.405 44.7956 127.405 45.3668C127.405 45.938 127.18 46.4859 126.778 46.8898C126.376 47.2937 125.831 47.5206 125.262 47.5206C124.694 47.5206 124.149 47.2937 123.747 46.8898C123.345 46.4859 123.119 45.938 123.119 45.3668C123.119 44.7956 123.345 44.2478 123.747 43.8438C124.149 43.4399 124.694 43.213 125.262 43.213ZM124.149 44.0258V46.7078H124.798V45.7828H125.167L125.663 46.7078H126.375L125.777 45.6809C126.07 45.5655 126.261 45.2961 126.261 44.8732C126.261 44.3848 125.956 44.0258 125.358 44.0258H124.149ZM124.798 44.539H125.281C125.485 44.539 125.599 44.6288 125.599 44.8209V45.0139C125.599 45.206 125.485 45.2962 125.281 45.2962H124.798V44.539Z" fill="#D1D1D1"/>
</g>
<defs>
<clipPath id="clip0_3722_6018">
<rect width="128" height="48" fill="white"/>
</clipPath>
</defs>
</svg>
