<svg width="206" height="62" viewBox="0 0 206 62" fill="none" xmlns="http://www.w3.org/2000/svg">
<g clip-path="url(#clip0_3722_6061)">
<path fill-rule="evenodd" clip-rule="evenodd" d="M0.456055 31C0.456055 13.8804 16.5035 0 36.3012 0C56.099 0 72.145 13.8804 72.145 31C72.145 48.1196 56.0976 62 36.3012 62C16.5048 62 0.456055 48.1216 0.456055 31Z" fill="#7A7A7A"/>
<path fill-rule="evenodd" clip-rule="evenodd" d="M31.9483 9.95828L40.2763 7.19141L40.3173 52.4602L31.9189 55.2897L31.9483 9.95828ZM118.575 48.9228C126.578 48.9228 132.674 44.2428 132.674 36.1889C132.674 28.0911 126.578 23.4029 118.575 23.4029C110.577 23.4029 104.481 28.0774 104.481 36.1889C104.481 44.2435 110.576 48.9228 118.575 48.9228ZM118.575 43.0261C114.715 43.0261 113.136 39.7952 113.136 36.1889C113.136 32.5353 114.708 29.3147 118.575 29.3147C122.442 29.3147 124.019 32.5415 124.019 36.1889C124.019 39.7952 122.447 43.0261 118.575 43.0261ZM131.904 29.8688H136.69V39.7952C136.69 45.597 138.504 48.9228 145.991 48.9228C148.085 48.9228 149.669 48.6478 151.255 48.4553L150.982 42.9793C150.145 43.1189 149.261 43.3058 148.425 43.3058C145.772 43.3058 145.073 41.8072 145.073 38.8582V29.8688H150.935V23.9707H145.073L145.071 15.536L136.842 18.4919V23.9707H131.91V29.8688M180.242 48.3625H188.617V36.2845H188.708L195.409 48.3625H205.543L196.424 35.1606L204.843 23.9721H195.68L188.702 34.2243H188.61V15.5676L180.235 18.494V48.3694" fill="#D1D1D1"/>
<path fill-rule="evenodd" clip-rule="evenodd" d="M82.1826 48.3606H90.5597V36.2826H90.6514L97.3522 48.3606H107.492L98.3729 35.1586L106.793 23.9708H97.6305L90.6527 34.2231H90.5611V15.5664L82.184 18.3436V48.3606M177.262 48.474C176.884 46.5334 176.784 44.5901 176.784 42.646V33.4552C176.784 25.9211 171.368 23.2126 165.106 23.2126C161.482 23.2126 158.326 23.7323 155.314 24.9655L155.451 30.7447C157.801 29.42 160.533 28.8887 163.265 28.8887C166.326 28.8887 168.819 29.7906 168.866 33.1541C167.559 32.9381 166.237 32.8276 164.913 32.8235C160.401 32.8235 152.249 33.7254 152.249 41.2581C152.249 46.6118 156.581 49.026 161.429 49.026C164.913 49.026 167.266 47.6512 169.198 44.5736H169.311C169.311 45.8522 169.451 47.1322 169.499 48.4575H177.269L177.262 48.474ZM160.169 40.658C160.169 38.2878 162.43 37.3886 165.301 37.3886C166.573 37.3886 167.799 37.4828 168.879 37.5302C168.879 40.4215 166.856 43.3561 163.656 43.3561C161.677 43.3561 160.169 42.3621 160.169 40.658Z" fill="#D1D1D1"/>
<path fill-rule="evenodd" clip-rule="evenodd" d="M63.2583 34.1202C62.4769 40.5957 58.8646 47.1379 50.9769 47.1503C46.3721 47.1585 42.7748 43.9881 40.2837 40.109V35.616C43.401 37.1723 46.3146 38.8428 49.8496 38.8936C54.2043 38.9583 58.142 37.2748 59.7704 34.1195H63.2589L63.2583 34.1202ZM36.8909 38.1863C33.2724 42.572 29.7757 47.052 23.2239 47.052C13.9696 47.052 9.58008 38.055 9.58008 30.5332C9.58008 23.3057 13.0105 14.75 22.0261 14.75C25.9365 14.75 29.7005 17.1546 31.9442 19.6981L31.9373 25.8333C30.0628 24.5643 25.864 23.3194 23.1227 23.2747C17.4055 23.1785 12.3652 25.6704 12.4527 31.3451C12.5121 35.2517 16.3616 37.9072 20.1913 37.9072C26.0568 37.9072 29.6103 32.5192 32.5799 28.4297C33.7706 26.8686 34.9476 25.2971 36.1109 23.7154C39.4093 19.0808 43.226 14.8497 49.7779 14.8497C57.496 14.8497 61.8288 21.1052 63.0539 27.545H59.5674C58.1659 25.4566 55.4704 24.1787 52.8152 24.1787C46.7515 24.1787 43.1283 29.7881 40.0957 33.9181L36.8827 38.1856" fill="white"/>
</g>
<defs>
<clipPath id="clip0_3722_6061">
<rect width="206" height="62" fill="white"/>
</clipPath>
</defs>
</svg>
