<svg width="247" height="66" viewBox="0 0 247 66" fill="none" xmlns="http://www.w3.org/2000/svg">
<g clip-path="url(#clip0_3722_6111)">
<path d="M235.618 55.1527C235.494 55.1527 235.37 55.1216 235.277 55.0284L190.475 10.1168C190.289 9.93029 190.289 9.65057 190.475 9.46408C190.661 9.2776 190.94 9.2776 191.127 9.46408L235.96 54.3757C236.146 54.5621 236.146 54.8419 235.96 55.0284C235.867 55.0905 235.743 55.1527 235.618 55.1527Z" fill="#D1D1D1"/>
<path d="M190.848 55.188C190.723 55.188 190.599 55.1569 190.506 55.0637C190.32 54.8772 190.32 54.5975 190.506 54.411L235.339 9.53049C235.526 9.344 235.805 9.344 235.991 9.53049C236.177 9.71697 236.177 9.9967 235.991 10.1832L191.189 55.0637C191.096 55.1569 190.972 55.188 190.848 55.188Z" fill="#D1D1D1"/>
<path d="M213.311 64.477C213.062 64.477 212.845 64.2594 212.845 64.0107V0.481835C212.845 0.23319 213.062 0.015625 213.311 0.015625C213.559 0.015625 213.776 0.23319 213.776 0.481835V64.0107C213.776 64.2594 213.559 64.477 213.311 64.477Z" fill="#D1D1D1"/>
<path d="M245.019 32.7137H181.57C181.322 32.7137 181.105 32.4961 181.105 32.2475C181.105 31.9988 181.322 31.7812 181.57 31.7812H244.988C245.236 31.7812 245.454 31.9988 245.454 32.2475C245.454 32.4961 245.267 32.7137 245.019 32.7137Z" fill="#D1D1D1"/>
<path d="M240.706 16.8309H185.634C185.386 16.8309 185.169 16.6133 185.169 16.3646C185.169 16.116 185.386 15.8984 185.634 15.8984H240.706C240.954 15.8984 241.172 16.116 241.172 16.3646C241.172 16.6133 240.954 16.8309 240.706 16.8309Z" fill="#D1D1D1"/>
<path d="M240.644 48.5965H185.634C185.386 48.5965 185.169 48.3789 185.169 48.1303C185.169 47.8816 185.386 47.6641 185.634 47.6641H240.644C240.892 47.6641 241.109 47.8816 241.109 48.1303C241.109 48.3789 240.923 48.5965 240.644 48.5965Z" fill="#D1D1D1"/>
<path d="M213.311 64.477C213.062 64.477 212.845 64.2594 212.845 64.0107V0.481835C212.845 0.23319 213.062 0.015625 213.311 0.015625C213.559 0.015625 213.776 0.23319 213.776 0.481835V64.0107C213.776 64.2594 213.559 64.477 213.311 64.477Z" fill="#D1D1D1"/>
<path d="M197.456 60.1251C197.208 60.1251 196.991 59.9075 196.991 59.6589V4.67715C196.991 4.4285 197.208 4.21094 197.456 4.21094C197.704 4.21094 197.922 4.4285 197.922 4.67715V59.6589C197.922 59.9386 197.704 60.1251 197.456 60.1251Z" fill="#D1D1D1"/>
<path d="M229.165 60.1217C228.917 60.1217 228.7 59.9041 228.7 59.6555V4.76699C228.7 4.51835 228.917 4.30078 229.165 4.30078C229.413 4.30078 229.63 4.51835 229.63 4.76699V59.6555C229.63 59.9352 229.413 60.1217 229.165 60.1217Z" fill="#D1D1D1"/>
<path d="M245.019 32.7124C244.895 32.7124 244.771 32.6813 244.678 32.5881L212.969 0.792557C212.783 0.606073 212.783 0.326347 212.969 0.139863C213.155 -0.046621 213.435 -0.046621 213.621 0.139863L245.33 31.9043C245.516 32.0908 245.516 32.3705 245.33 32.557C245.237 32.6502 245.144 32.7124 245.019 32.7124Z" fill="#D1D1D1"/>
<path d="M213.31 64.4782C213.186 64.4782 213.062 64.4471 212.969 64.3539L181.26 32.5894C181.074 32.403 181.074 32.1232 181.26 31.9367C181.446 31.7503 181.726 31.7503 181.912 31.9367L213.621 63.7012C213.807 63.8877 213.807 64.1674 213.621 64.3539C213.528 64.4471 213.404 64.4782 213.31 64.4782Z" fill="#D1D1D1"/>
<path d="M213.31 64.4782C213.186 64.4782 213.062 64.4471 212.969 64.3539C212.783 64.1674 212.783 63.8877 212.969 63.7012L244.678 31.9367C244.864 31.7503 245.144 31.7503 245.33 31.9367C245.516 32.1232 245.516 32.403 245.33 32.5894L213.621 64.3539C213.528 64.4471 213.404 64.4782 213.31 64.4782Z" fill="#D1D1D1"/>
<path d="M181.57 32.7124C181.446 32.7124 181.322 32.6813 181.229 32.5881C181.043 32.4016 181.043 32.1219 181.229 31.9354L212.969 0.139863C213.155 -0.046621 213.434 -0.046621 213.62 0.139863C213.807 0.326347 213.807 0.606073 213.62 0.792557L181.912 32.5881C181.818 32.6503 181.694 32.7124 181.57 32.7124Z" fill="#D1D1D1"/>
<path d="M213.217 64.446C195.47 64.446 181.043 49.9935 181.043 32.2465C181.043 14.4683 195.47 0.046875 213.217 0.046875C230.964 0.046875 245.392 14.4994 245.392 32.2465C245.392 49.9935 230.964 64.446 213.217 64.446ZM213.217 0.948215C195.998 0.948215 181.974 14.9967 181.974 32.2154C181.974 49.4652 195.998 63.4825 213.217 63.4825C230.437 63.4825 244.461 49.4652 244.461 32.2154C244.461 14.9656 230.437 0.948215 213.217 0.948215Z" fill="#D1D1D1"/>
<path d="M215.947 32.2119C215.947 33.7038 214.737 34.9159 213.248 34.9159C211.759 34.9159 210.549 33.7038 210.549 32.2119C210.549 30.72 211.759 29.5078 213.248 29.5078C214.768 29.5389 215.947 30.72 215.947 32.2119Z" fill="#D1D1D1"/>
<path d="M215.296 48.1259C215.296 49.2448 214.396 50.1151 213.31 50.1151C212.224 50.1151 211.324 49.2137 211.324 48.1259C211.324 47.0381 212.224 46.1367 213.31 46.1367C214.396 46.1367 215.296 47.007 215.296 48.1259Z" fill="#D1D1D1"/>
<path d="M199.442 16.3642C199.442 17.452 198.542 18.3534 197.456 18.3534C196.37 18.3534 195.471 17.452 195.471 16.3642C195.471 15.2453 196.37 14.375 197.456 14.375C198.542 14.375 199.442 15.2453 199.442 16.3642Z" fill="#D1D1D1"/>
<path d="M200.124 48.1259C200.124 49.6178 198.914 50.83 197.424 50.83C195.935 50.83 194.725 49.6178 194.725 48.1259C194.725 46.634 195.935 45.4219 197.424 45.4219C198.945 45.4219 200.124 46.634 200.124 48.1259Z" fill="#D1D1D1"/>
<path d="M247.005 32.2431C247.005 33.3309 246.105 34.2323 245.019 34.2323C243.933 34.2323 243.034 33.3309 243.034 32.2431C243.034 31.1242 243.933 30.2539 245.019 30.2539C246.105 30.2539 247.005 31.1242 247.005 32.2431Z" fill="#D1D1D1"/>
<path d="M215.296 64.0087C215.296 65.0966 214.396 65.9979 213.31 65.9979C212.224 65.9979 211.324 65.0966 211.324 64.0087C211.324 62.9209 212.224 62.0195 213.31 62.0195C214.396 62.0195 215.296 62.9209 215.296 64.0087Z" fill="#D1D1D1"/>
<path d="M231.833 59.6611C231.833 61.153 230.623 62.3651 229.134 62.3651C227.645 62.3651 226.435 61.153 226.435 59.6611C226.435 58.1692 227.645 56.957 229.134 56.957C230.654 56.9881 231.833 58.1692 231.833 59.6611Z" fill="#D1D1D1"/>
<path d="M187.62 48.1259C187.62 49.2448 186.721 50.1151 185.635 50.1151C184.549 50.1151 183.649 49.2137 183.649 48.1259C183.649 47.0381 184.549 46.1367 185.635 46.1367C186.721 46.1367 187.62 47.007 187.62 48.1259Z" fill="#D1D1D1"/>
<path d="M231.833 4.77046C231.833 6.26235 230.623 7.47451 229.134 7.47451C227.645 7.47451 226.435 6.26235 226.435 4.77046C226.435 3.27857 227.645 2.06641 229.134 2.06641C230.654 2.06641 231.833 3.27857 231.833 4.77046Z" fill="#D1D1D1"/>
<path d="M188.303 16.3955C188.303 17.8873 187.093 19.0995 185.604 19.0995C184.114 19.0995 182.904 17.8873 182.904 16.3955C182.904 14.9036 184.114 13.6914 185.604 13.6914C187.124 13.7225 188.303 14.9346 188.303 16.3955Z" fill="#D1D1D1"/>
<path d="M242.692 16.3642C242.692 17.452 241.792 18.3534 240.706 18.3534C239.62 18.3534 238.721 17.452 238.721 16.3642C238.721 15.2453 239.62 14.375 240.706 14.375C241.792 14.375 242.692 15.2453 242.692 16.3642Z" fill="#D1D1D1"/>
<path d="M231.15 32.2783C231.15 33.3972 230.25 34.2674 229.164 34.2674C228.078 34.2674 227.179 33.3661 227.179 32.2783C227.179 31.1904 228.078 30.2891 229.164 30.2891C230.25 30.2891 231.15 31.1593 231.15 32.2783Z" fill="#D1D1D1"/>
<path d="M192.802 9.77825C192.802 10.8661 191.902 11.7674 190.816 11.7674C189.73 11.7674 188.831 10.8661 188.831 9.77825C188.831 8.69041 189.73 7.78906 190.816 7.78906C191.902 7.78906 192.802 8.69041 192.802 9.77825Z" fill="#D1D1D1"/>
<path d="M42.3866 9.86764H34.7541C34.568 9.86764 34.4128 9.96088 34.3508 10.1163L21.475 34.0473L8.47492 10.1163C8.38184 9.96089 8.2267 9.86764 8.07158 9.86764H0.470267C0.222047 9.86764 0.00488281 10.0852 0.00488281 10.3338V55.3686C0.00488281 55.6173 0.222065 55.8348 0.470267 55.8348H7.76147C8.00969 55.8348 8.22685 55.6173 8.22685 55.3686V25.9654L19.6755 45.9813C19.7685 46.1367 19.9237 46.23 20.0788 46.23H22.7471C22.9022 46.23 23.0574 46.1367 23.1504 45.9813L34.5369 25.9034V55.3374C34.5369 55.586 34.7541 55.8036 35.0023 55.8036H42.3554C42.4795 55.8036 42.6036 55.7414 42.6967 55.6793C42.7898 55.586 42.8208 55.4617 42.8208 55.3374V10.3334C42.8519 10.0537 42.6347 9.86719 42.3865 9.86719L42.3866 9.86764Z" fill="#ADADAD"/>
<path d="M156.75 9.74219H149.893C149.645 9.74219 149.428 9.95975 149.428 10.2084V55.4916C149.428 55.7402 149.645 55.9578 149.893 55.9578H156.75C156.998 55.9578 157.215 55.7402 157.215 55.4916V10.2084C157.215 9.92867 157.029 9.74219 156.75 9.74219Z" fill="#ADADAD"/>
<path d="M137.917 47.4732L132.953 42.4381C132.767 42.2516 132.488 42.2516 132.302 42.4381C128.64 45.8571 125.321 47.9705 119.984 47.9705C111.979 47.9705 105.929 41.4747 105.929 32.8343V32.7099C105.929 28.6073 107.357 24.8154 109.932 22.0182C112.538 19.1898 116.106 17.6359 119.984 17.6359C124.297 17.6359 127.989 19.2832 131.991 22.9816C132.085 23.0749 132.209 23.106 132.333 23.106C132.457 23.106 132.581 23.0438 132.674 22.9506L137.638 17.2317C137.793 17.0453 137.793 16.7655 137.607 16.579C134.008 13.1291 129.075 9.58594 120.077 9.58594C106.891 9.58594 96.9321 19.5939 96.9321 32.8332V32.9576C96.9321 39.2359 99.2592 45.048 103.448 49.3681C107.698 53.7194 113.469 56.0815 119.767 56.0815C124.98 56.0815 131.216 55.1491 137.949 48.125C138.104 47.9385 138.104 47.6588 137.918 47.4723L137.917 47.4732Z" fill="#ADADAD"/>
<path d="M83.713 32.8689C81.5722 31.1594 78.7798 30.0404 74.7464 29.2325C74.7154 29.2325 74.6223 29.2014 74.5292 29.1703C74.4672 29.1703 74.4051 29.1392 74.3431 29.1392C73.9397 29.046 73.04 28.8595 72.1091 28.673C71.1162 28.4866 70.0613 28.269 69.7511 28.1757C67.3001 27.492 65.8417 26.8393 64.973 26.0001C64.1353 25.2231 63.732 24.1975 63.6699 22.8611V22.7367V22.3638C63.794 19.5044 66.0279 17.4841 69.5339 17.049C70.4027 16.9558 71.2404 16.9247 72.078 16.9869C75.615 17.2355 78.6246 18.4477 81.3548 20.6545C81.4789 20.7788 81.7271 20.8099 81.8822 20.7477H81.9132C82.0373 20.7477 82.1615 20.6856 82.2545 20.5923L86.4119 15.6504C86.5671 15.464 86.5671 15.1532 86.3499 14.9978C82.0062 11.237 77.2902 9.55859 71.054 9.55859C61.7772 9.55859 55.5408 14.9665 55.5408 23.0475V23.2029C55.5408 26.9325 56.6578 29.7609 58.8917 31.8743C60.9084 33.7702 63.8558 35.1066 67.8583 35.9458C68.1065 36.008 68.727 36.1323 69.3475 36.2566C69.7819 36.3498 70.1853 36.412 70.3714 36.4742C70.6506 36.5363 71.2712 36.6607 71.8607 36.7539C72.4191 36.8471 72.9776 36.9715 73.1638 37.0025C75.3977 37.562 76.8559 37.9971 77.9418 38.8674C79.1829 39.8308 79.7103 41.043 79.7413 42.8146V42.9389C79.7413 46.1402 77.2282 48.2537 73.0396 48.5955C72.5742 48.6266 72.0778 48.6577 71.5814 48.6577C71.147 48.6577 70.7127 48.6577 70.2783 48.6266C65.9346 48.3158 62.5528 46.855 59.3571 43.9024C59.233 43.7781 59.0468 43.747 58.9227 43.7781H58.8917C58.7676 43.7781 58.6435 43.8402 58.5504 43.9335L54.0206 48.8754C53.8344 49.0618 53.8654 49.3416 54.0516 49.5281C58.7676 54.0036 64.4764 56.1483 71.5194 56.1483C81.5098 56.1483 87.9321 50.7713 87.9321 42.473V42.3486C87.9632 38.2772 86.536 35.0759 83.7126 32.869L83.713 32.8689Z" fill="#ADADAD"/>
<path d="M199.441 4.77042C199.441 5.85824 198.541 6.75959 197.455 6.75959C196.369 6.75959 195.47 5.85824 195.47 4.77042C195.47 3.65151 196.369 2.78125 197.455 2.78125C198.541 2.78125 199.441 3.68259 199.441 4.77042Z" fill="#D1D1D1"/>
</g>
<defs>
<clipPath id="clip0_3722_6111">
<rect width="247" height="66" fill="white"/>
</clipPath>
</defs>
</svg>
