<svg width="178" height="48" viewBox="0 0 178 48" fill="none" xmlns="http://www.w3.org/2000/svg">
<g clip-path="url(#clip0_3722_6007)">
<path d="M24.4755 44.9061C21.7979 45.3752 19.0731 45.5159 16.2545 45.8905L7.6573 20.7657V46.9689C4.97965 47.25 2.53685 47.625 0 48V0H7.14086L16.9121 27.2348V0H24.4755V44.9061ZM39.2737 17.5781C42.1865 17.5781 46.6494 17.4375 49.327 17.4375V24.9373C45.9914 24.9373 42.0925 24.9373 39.2737 25.078V36.2344C43.6898 35.9533 48.1057 35.5779 52.5684 35.4373V42.6556L31.757 44.2966V0H52.5684V7.50001H39.2737V17.5781ZM80.5203 7.50018H72.722V42.0001C70.1852 42.0001 67.6483 42.0001 65.2059 42.0936V7.50018H57.4076V0H80.5207L80.5203 7.50018ZM92.7345 17.0627H103.023V24.5625H92.7345V41.5783H85.3585V0H106.358V7.50001H92.7345V17.0627ZM118.573 35.0156C122.848 35.1091 127.169 35.4378 131.351 35.6718V43.0781C124.633 42.6559 117.915 42.2346 111.056 42.0936V0H118.573V35.0156ZM137.693 43.5938C140.088 43.7346 142.625 43.8753 145.068 44.1561V0H137.693V43.5938ZM178 0L168.463 22.8282L178 48C175.181 47.625 172.362 47.1093 169.544 46.6405L164.141 32.7658L158.645 45.5159C155.92 45.0467 153.289 44.9061 150.565 44.5311L160.243 22.5467L151.504 0H159.584L164.517 12.6094L169.779 0L178 0Z" fill="#D1D1D1"/>
</g>
<defs>
<clipPath id="clip0_3722_6007">
<rect width="178" height="48" fill="white"/>
</clipPath>
</defs>
</svg>
