<svg width="152" height="76" viewBox="0 0 152 76" fill="none" xmlns="http://www.w3.org/2000/svg">
<path d="M79.271 11.6678L74.0781 21.0099L107.308 21.0133L112.852 11.6641L79.271 11.6678Z" fill="#7A7A7A"/>
<path d="M118.39 2.32403L113.197 11.6661L146.427 11.6696L151.972 2.32031L118.39 2.32403Z" fill="#7A7A7A"/>
<path d="M113.486 32.5827C108.183 33.5255 105.354 37.5325 105.354 44.4859C105.354 51.5572 109.125 56.2714 114.664 56.2714C117.375 56.2714 119.732 55.3285 124.682 52.8535V58.6283C118.672 61.4568 115.136 62.164 110.422 62.164C105.118 62.164 101.347 60.8676 98.4007 57.6855C95.3364 54.6213 93.6865 50.6142 93.6865 46.018C93.6865 36.0005 101.229 29.0469 112.189 29.0469C119.378 29.0469 124.446 32.4647 124.446 37.2967C124.446 40.4787 122.088 42.7179 118.671 42.7179C116.903 42.7179 115.489 42.1286 113.485 41.0679" fill="#D1D1D1"/>
<path d="M86.9685 46.0179C91.8005 40.0074 93.5684 37.5325 93.5684 34.5861C93.5684 31.6397 91.2112 29.0469 87.9114 29.0469C86.0257 29.0469 84.2579 30.1076 83.4329 31.0504V43.4251C75.5367 54.0319 75.5367 54.0319 75.5367 54.0319V29.9901H67.9942L55.5017 50.6145V29.9901H51.259L39.8271 32.5829V35.5293L46.0734 36.1185V61.6933H53.9696L65.9906 41.8938V61.6933H74.8297" fill="#D1D1D1"/>
<path d="M15.9029 57.6846H17.6706C24.0347 57.6846 27.5703 53.7955 27.5703 46.0171C27.5703 39.5352 24.7419 35.9996 19.4383 35.9996C18.7312 35.9996 17.6706 36.1174 15.9027 36.471L15.9029 57.6846ZM15.9029 71.5913C21.0884 72.7699 21.0884 72.7699 21.0884 72.7699V75.7163H0.699946V72.7699C5.41408 71.5913 5.41409 71.5913 5.41409 71.5913V35.9989H0.228516V33.0525L12.6032 29.2812H15.903V33.524C21.6779 29.9883 23.6814 29.3991 26.7456 29.3991C33.5811 29.3991 38.7667 35.7631 38.7667 44.6022C38.7667 54.7375 31.8134 61.6905 21.2064 61.6905C20.0279 61.6905 18.0244 61.5726 15.903 61.4548" fill="#D1D1D1"/>
</svg>
